<?xml version="1.0" encoding="utf-8"?>
<!-- Generator: Adobe Illustrator 16.0.0, SVG Export Plug-In . SVG Version: 6.00 Build 0)  -->
<!DOCTYPE svg PUBLIC "-//W3C//DTD SVG 1.1//EN" "http://www.w3.org/Graphics/SVG/1.1/DTD/svg11.dtd">
<svg version="1.1" id="Layer_1" xmlns="http://www.w3.org/2000/svg" xmlns:xlink="http://www.w3.org/1999/xlink" x="0px" y="0px"
	 width="1434.144px" height="799.108px" viewBox="0 0 1434.144 799.108" enable-background="new 0 0 1434.144 799.108"
	 xml:space="preserve">
<path fill-rule="evenodd" clip-rule="evenodd" fill="#6D6E71" d="M1045.84,187.401c-0.24-0.062-0.643-0.06-0.697-0.197
	c-0.983-2.463-1.864-1.385-2.959-0.034c-1.045,1.289-2.1,1.556-2.375-0.598c-0.135-1.059-0.796-1.472-1.723-1.375
	c-2.567,0.268-5.131,0.732-7.492-0.732c-0.331,0.822,0.091,1.033,0.353,1.329c0.413,0.465,1.292,0.691,0.984,1.542
	c-0.164,0.454-0.695,0.39-1.098,0.283c-0.743-0.199-1.76,0.083-1.962-1.116c-0.148-0.887,0.244-2.022-0.925-2.532
	c-0.739,0.552-0.401,1.134-0.278,1.667c0.237,1.032,0.15,1.79-1.137,2.001c-1.169,0.192-2.071-0.066-2.274-1.295
	c-0.194-1.169-0.563-1.968-1.803-2.388c-3.906-1.324-3.93-1.351-3.595,2.774c0.073,0.91-0.325,1.154-0.967,0.726
	c-0.877-0.586-1.939-1.15-2.102-2.335c-0.147-1.072-0.479-1.859-1.692-1.562c-1.452,0.357-0.812,1.314-0.499,2.17
	c0.135,0.37,0.131,0.79,0.188,1.172c-0.257,0.073-0.483,0.196-0.535,0.145c-3.97-3.97-8.551-2.456-13.102-1.536
	c-2.088,0.422-4.163,1.028-6.374,0.502c-1.989-0.473-2.639,1.263-3.456,2.614c-1.541-2.097-3.051-2.051-4.98,0.03
	c-0.888,0.958-1.712,1.328-2.519-0.138c-0.39-0.708-4.861-1.549-5.485-1.073c-0.228,0.173-0.476,0.588-0.419,0.819
	c0.274,1.107,1.367,0.085,2.062,0.846c-1.431,1.65-3.545,1.683-5.331,1.759c-0.975,0.042-0.077-1.169,0.265-1.689
	c0.494-0.751,0.897-1.41,0.166-2.229c-0.603-0.675-1.298-1.046-2.213-0.774c-0.95,0.283-1.962,0.531-1.761,1.936
	c0.858,0.217,1.317-0.776,2.123-0.503c0.433,0.146,0.938,0.313,0.622,0.771c-0.878,1.278-1.487,2.877-3.189,3.344
	c-0.796,0.218-1.812-0.018-1.536-0.982c0.528-1.852-0.364-3.133-1.722-3.588c-1.845-0.619-3.82,0.739-4.462,2.066
	c-1.356,2.804-3.266,1.955-5.232,1.534c-0.637-0.136-1.258-0.686-1.83-0.055c-1.036,1.142-2.419,1.084-3.74,1.476
	c-2.06,0.611-3.761,0.973-5.549-0.483c-0.506-0.412-0.938-0.264-1.107,0.643c-0.347,1.853-2.19,2.344-3.504,3.282
	c-0.439,0.314-1.208,0.489-1.513-0.203c-0.252-0.571,0.5-0.744,0.782-1.113c0.585-0.767,2.756-0.623,1.892-1.939
	c-0.751-1.145-2.993-0.513-3.61,0.284c-1.289,1.664-3.324,2.047-4.672,3.479c-1.993,2.117-2.042,2.078-3.925-0.062
	c-0.516-0.587-1.021-0.137-1.228,0.178c-1.147,1.753-2.891,1.261-4.41,1.105c-3.032-0.311-4.677,0.81-5.307,3.946
	c-0.188,0.932-3.414,1.898-4.234,1.006c-1.966-2.137-3.342-0.591-4.547,0.638c-0.836,0.853-1.391,1.362-2.462,0.604
	c-0.135-0.095-0.34-0.279-0.419-0.239c-3.617,1.849-7.799-0.974-11.317,1.323c-2.117,1.382-4.432,2.382-6.445,4.027
	c-1.575,1.288-3.566,2.824-6.11,1.558c-1.701-0.847-7.221,0.949-8.287,2.523c-0.132,0.196-0.225,0.424-0.306,0.648
	c-0.273,0.755,2.196,0.464,0.711,1.316c-1.24,0.711-2.844,1.73-4.393,1.148c-4.236-1.591-7.959,0.458-10.992,2.455
	c-2.027,1.333-3.876,1.828-6.01,2.309c-3.052,0.688-5.416,2.878-8.28,4.005c-0.46,0.181-0.862,0.632-1.318,0.677
	c-3.816,0.375-6.391,3.477-9.926,4.491c-0.69,0.198-1.729,0.552-1.046,1.985c0.558,1.17-0.704,1.039-1.365,0.933
	c-3.561-0.568-6.524,0.82-9.196,2.899c-1.394,1.084-3.187,0.834-4.586,1.812c-1.854,1.295-4.414,1.911-4.216,4.954
	c0.032,0.504-0.207,1.086-0.82,1.04c-0.588-0.045-1.384,0.201-1.628-0.753c-0.376-1.47-1.283-1.145-2.01-0.397
	c-1.302,1.338-2.772,2.646-3.602,4.26c-0.483,0.94-0.947,1.6-1.812,1.697c-2.188,0.248-3.269,1.922-4.341,3.393
	c-1.207,1.657-2.527,2.775-4.595,3.056c-1.074,0.146-2.062,0.645-2.706,1.633c-0.591,0.908-1.608,1.204-2.534,1.504
	c-2.594,0.843-8.187,3.828-10.192,5.615c-0.58,0.516-1.712,0.854-1.266,1.882c0.436,1.002,1.499,0.203,2.295,0.375
	c0.069,0.927-0.771,1.287-1.209,1.287c-2.091-0.001-3.293,2.247-5.577,1.983c-0.759-0.087-2.588,0.857-1.249,2.548
	c0.591,0.745-0.02,0.812-0.465,0.986c-2.924,1.141-4.431,3.914-6.713,5.773c-2.203,1.795-3.192,4.839-6.146,5.816
	c-0.292,0.097-0.624,0.365-0.745,0.64c-1.793,4.056-5.796,6.268-8.196,9.852c-1.015,1.516-1.378,3.287-2.668,4.722
	c-2.608,2.9-4.817,6.157-7.211,9.251c-1.027,1.328-1.905,2.683-2.246,4.397c-0.168,0.847-0.664,1.837-1.331,2.338
	c-2.18,1.639-2.633,4.223-3.769,6.415c-0.608,1.175-1.806,1.793-2.318,3.07c-0.555,1.383-0.592,3.477-1.131,4.065
	c-2.126,2.322,0.338,6.142-2.893,7.808c0.024,2.667-2.589,4.874-1.345,7.755c0.49,1.134,0.692,2.231-0.382,3.205
	c-0.223,0.201-0.488,0.691-0.395,0.854c1.564,2.725-0.219,5.442,0.012,8.157c-0.374,0.154-0.618-0.05-0.829-0.336
	c-0.369-0.501,0.146-1.552-0.797-1.621c-0.972-0.071-0.808,0.937-0.939,1.498c-0.23,0.989-1.474,1.076-1.635,2.112
	c-0.376,2.418,1.183,3.223,3.32,3.919c-0.325-1.146-0.678-2.409,0.986-2.48c1.438-0.061,1.516,1.248,1.607,2.126
	c0.159,1.518,0.335,2.884,1.217,4.265c0.945,1.479-0.767,3.013-0.341,4.875c0.665,2.908,1.925,5.509,3.26,8.04
	c0.885,1.679,0.761,2.403-0.878,2.997c-1.744,0.633-2.782,1.725-2.742,3.697c0.016,0.782-0.398,1.469-1.086,1.87
	c-1.75,1.022-3.051,2.29-2.956,4.526c0.022,0.544-0.352,0.973-0.95,0.929c-0.866-0.063-1.846-0.354-1.943-1.268
	c-0.16-1.487-0.907-1.597-2.164-1.61c-2.185-0.023-3.646-1.9-5.646-2.514c-0.796-0.244-1.457-0.865-2.064,0.291
	c-0.336,0.641-1.146,0.593-1.539,0.196c-2.054-2.073-4.447-1.19-6.751-0.843c-1.224,0.186-2.128-0.053-2.768-1.133
	c-0.597-1.006-1.438-1.309-2.176-0.31c-1.651,2.235-3.022,1.233-4.591-0.549c0,0.642,0.088,1.181-0.013,1.218
	c-1.955,0.73-4.009,1.146-5.94,2c-0.523,0.231-1.007-0.49-0.309-1.117c0.463-0.416,0.872-0.877,0.311-1.467
	c-0.478-0.502-1.148-0.391-1.636-0.108c-1.532,0.886-3.074,1.163-4.894,1.177c-2.035,0.016-0.648,2.139-1.221,3.242
	c-0.585-0.218-1.162-0.513-1.773-0.631c-0.396-0.078-0.865,0.137-0.9,0.651c-0.155,2.291-0.348,2.492-3.115,2.405
	c-0.532-0.017-0.706,0.142-0.951,0.499c-1.364,1.993-3.766,1.472-5.623,2.278c-0.456,0.197-0.667-0.212-0.964-0.541
	c-1.739-1.928-4.183-2.145-6.162-0.627c-0.344,0.264-0.689,0.547-0.505,1.022c0.237,0.612,0.715,0.925,1.386,0.77
	c0.881-0.205,1.695-0.734,2.66-0.524c0.431,0.094,0.788,0.287,0.906,0.741c0.098,0.379-0.109,0.783-0.435,0.766
	c-2.005-0.109-3.075,1.883-4.964,2.106c-1.465,0.174-2.813,0.55-2.481-2.127c-1.381,1.29-2.226,2.893-4.024,1.743
	c-0.115-0.073-0.539,0.1-0.623,0.261c-0.276,0.524,0.136,0.718,0.541,0.87c0.373,0.14,0.926,0.15,0.858,0.711
	c-0.074,0.61-0.65,0.729-1.138,0.753c-1.544,0.071-2.949,0.452-4.135,1.511c-0.229,0.204-0.728,0.431-0.899,0.323
	c-2.547-1.583-4.066,0.559-5.934,1.534c-0.873,0.456-1.932,0.552-2.814,0.994c-1.033,0.517-3.429,0.529-1.188,2.66
	c0.758,0.721-0.143,1.42-0.624,1.889c-1.834,1.787-4.616,1.626-6.63,3.807c-0.092-2.032,1.693-1.924,1.834-3.073
	c-1.829-0.517-2.663-0.283-2.777,1.346c-0.21,2.995-3.115,3.382-4.534,5.169c-0.145,0.183-0.769,0.26-0.923,0.117
	c-2.154-1.983-2.458,0.161-3.759,1.237c-2.163,1.789-3.599,4.89-7.047,4.854c-0.078-0.001-0.214,0.032-0.229,0.079
	c-1.245,4.006-5.596,2.719-7.985,4.713c-0.949,0.793-2.808,1.611-0.893,3.351c0.447,0.406-0.999,1.974-2.039,2.171
	c-2.467,0.467-4.198,1.932-5.658,3.903c-1.442,1.948-2.714,4.78-4.657,5.426c-2.939,0.976-3.359,3.264-4.858,5.131
	c-3.517,4.385-6.957,8.83-9.976,13.544c-1.704,2.659-3.92,5.029-4.405,8.581c-0.384,2.811-2.326,5.361-4.49,7.458
	c-0.384,0.372-1.133,0.7-0.521,1.384c0.461,0.514,1.038,0.378,1.555-0.053c0.376-0.313,0.546-1.286,1.303-0.54
	c0.541,0.534,0.981,1.206,0.563,2.016c-0.34,0.66-0.695,1.342-1.186,1.886c-0.5,0.554-1.05,0.938-0.012,1.464
	c0.19,0.097,0.287,0.38,0.427,0.576c-2.109,0.97,0.133,2.325-0.304,3.434c-0.616,1.562-0.059,3.132-0.069,4.697
	c-0.005,0.796-0.493,1.116-1.192,1.381c-1.707,0.646-1.994,2.866-3.756,3.508c-0.078,0.029-0.107,0.498-0.002,0.66
	c0.215,0.332,0.645,0.307,0.868,0.072c1.074-1.123,1.905-1.072,2.997,0.126c0.412,0.453,1.585,0.206,2.41,0.29
	c0.568,0.059,1.357,0.011,1.297,0.81c-0.08,1.066-0.166,2.473,1.208,1.976c1.589-0.575,3.664,1.518,4.912-1.124
	c0.372-0.787,2.065-1.244,3.188-1.317c1.898-0.123,3.837-0.52,5.67,0.941c0.79,0.63,2.273,0.628,3.362,1.217
	c0.228,0.123,0.835-0.151,1.081-0.416c1.722-1.848,3.499-1.73,4.682,0.434c0.509,0.933,1.415,0.676,1.535,0.19
	c0.789-3.203,3.145-1.632,4.763-1.461c1.359,0.145,2.655,0.873,4.119,0.479c0.633-0.17,1.19,0.084,1.427,0.712
	c0.833,2.219,2.679,2.044,4.114,1.254c3.236-1.782,6.688-0.754,10-1.031c2.998-0.252,6.448-0.458,9.102,0.572
	c4.56,1.771,9.05-0.838,13.429,0.785c1.471,0.545,2.457-0.586,3.309-1.682c1.047-1.349,2.114-2.703,1.048-4.498
	c-1.804-3.035,0.641-5.781,0.594-8.712c-0.014-0.854,1.228-0.479,1.925-0.271c1.717,0.515,2.112-0.18,1.687-1.877
	c-0.819,0.348-1.504,1.953-2.35,0.348c-0.56-1.062-0.589-2.143,0.78-2.671c2.193-0.847,1.421-2.86,1.46-4.3
	c0.042-1.58,0.281-2.952,1.116-4.238c2.689-4.145,4.689-8.71,8.105-12.433c1.098-1.196,2.479-1.87,3.564-3.015
	c2.276-2.397,3.128-5.735,5.762-7.962c1.421-1.202,2.879-2.491,4.199-3.868c0.26-0.271,0.805-0.807,1-0.405
	c0.824,1.691,1.273,0.517,1.481-0.215c1.012-3.57,4.3-4.602,6.938-6.349c1.157-0.767,1.968,1.792,3.04,0.531
	c0.668-0.786-0.496-2.262,0.67-3.175c0.511-0.399,0.849-1.044,1.626-1.033c0.092,0.123,0.249,0.237,0.261,0.363
	c0.085,0.928-1.467,2.191,0.265,2.72c1.481,0.453,3.349,0.148,3.665-1.623c0.279-1.558,2.84-2.644,1.005-4.771
	c-0.248-0.288,1.341-0.965,2.261-0.713c3.533,0.968,5.988-0.021,7.597-3.45c0.61-1.302,1.546-1.85,2.704-2.339
	c0.596-0.252,1.197-0.32,1.599,0.211c1.327,1.758,3.349,1.173,5.074,1.571c0.821,0.189,1.527-0.026,1.789-0.915
	c0.396-1.35-0.613-0.949-1.29-1.024c-0.458-0.052-0.791-0.396-0.656-0.88c0.246-0.878,1.252-1.309,1.759-1.05
	c3.356,1.721,4.182-1.105,5.625-2.922c0.729-0.916,1.563-1.486,2.646-0.312c0.996,1.083,2.471,0.862,3.747,1.154
	c1.006,0.229,2.104,0.238,2.741-0.681c0.594-0.857,0.188-1.742-0.481-2.49c-0.331-0.37-0.712-0.838-0.108-1.258
	c0.452-0.314,1.115-0.235,1.381,0.152c0.688,1,1.351,1.337,2.576,0.791c0.575-0.256,1.108,0.598,1.517,1.114
	c0.492,0.621,0.995,1.238,1.849,0.659c0.71-0.482,0.864-1.217,0.479-1.986c-0.333-0.663-0.896-1.255-0.001-1.938
	c0.902-0.688,1.522-0.174,2.201,0.367c1.013,0.809,1.803,1.418,3.46,0.772c1.235-0.482,2.621-0.339,3.591-1.643
	c1.608-2.163,4.278-1.549,6.444-1.96c2.305-0.437,4.785,0.051,7.188,0.145c0.158,0.007,0.39,0.058,0.457,0.168
	c1.711,2.808,3.375,2.021,5.644,0.432c1.072-0.752,3.288-2.164,4.734,0.246c0.233,0.388,0.592,0.088,0.854-0.082
	c2.059-1.335,3.621-0.205,4.736,1.293c1.382,1.854,2.531,2.106,4.238,0.467c1.098-1.054,3.336-0.28,3.56,1.253
	c0.165,1.128,0.673,0.396,0.901,0.304c1.485-0.604,2.608-0.135,3.467,1.102c0.758,1.092,1.881,1.235,3.062,1.372
	c2.657,0.304,5.425-0.151,7.759,1.979c0.754,0.688,2.783,0.694,3.702,0.666c3.308-0.104,4.625,3.984,7.92,3.217
	c0.717,2.333,4.172,0.367,4.763,3.036c0.09,0.406,0.89,0.846,1.415,0.931c2.191,0.354,4.436,0.474,5.679,2.79
	c0.122,0.227,0.86,0.366,1.149,0.221c2.444-1.224,3.825,0.583,5.396,1.825c1.115,0.881,3.193,0.696,3.167,2.892
	c-0.004,0.275,0.546,0.155,0.876,0.056c0.812-0.243,1.999-1.099,1.352,0.949c-0.288,0.91,0.725,0.732,1.198,0.733
	c2.32,0.003,4.412,0.84,5.66,2.656c1.756,2.558,4.759,3.159,6.795,4.975c1.688,1.506,2.233,4.29,5.308,3.967
	c1.369,3.23,3.913,4.345,7.286,4.321c1.682-0.012,0.664,1.731,1.377,2.428c-0.776,0.573-2.357-0.538-2.116,1.113
	c0.147,1.01,0.926,1.814,2.221,1.122c0.184-0.098,0.648-0.077,0.664-0.022c0.752,2.684,4.224,2.712,5.143,5.438
	c0.455,1.351,1.276,3.791,3.883,2.141c0.336-0.213,0.852,0.121,0.827,0.646c-0.171,3.651,1.62,6.489,3.77,9.181
	c0.482,0.604,0.806,1.21,0.73,2.041c-0.349,3.85-0.193,4.082,3.284,5.579c0.3,0.13,0.575,0.315,1.152,0.636
	c-1.774,0.87-1.562,1.935-0.659,3.231c1.448,2.08,2.108,4.752,4.667,5.979c0.479,0.23,0.741,0.713,0.487,1.262
	c-1.018,2.203,0.956,3.513,1.618,5.185c0.309,0.779,1.366,1.449,2.284,1.286c1.812-0.322,2.323,0.796,3.197,2.007
	c1.081,1.501,1.805,2.464-0.554,3.231c-0.865,0.281-0.488,0.904-0.123,1.392c1.345,1.797,2.26,3.868,3.45,5.714
	c0.876,1.358,2.706,2.062,1.926,4.162c1.587,0.502,2.305,2.439,4.448,2.276c1.312-0.1,3.816-0.676,3.432,2.323
	c-0.018,0.137,0.308,0.43,0.506,0.465c2.824,0.503,4.525,3.33,7.507,3.578c0.838,0.069,1.986,0.146,1.482,1.863
	c-0.379,1.29,0.879,1.049,1.683,0.746c1.296-0.488,1.98-0.063,2.442,1.241c0.905,2.555,0.964,2.534,3.451,1.565
	c0.812-0.316,4.447,2.352,4.212,3.38c-0.765,3.332,2.229,4.354,3.682,6.216c1.182,1.514,2.525,2.986,4.863,3.41
	c2.991,0.542,4.208,3.672,5.401,5.927c1.047,1.979,2.645,3.306,3.813,5.052c0.746,1.114,1.664,1.625,1.622,3.545
	c-0.035,1.637,1.833,4.108,3.911,5.373c0.354,0.216,0.811,0.407,0.924-0.258c0.077-0.454-0.126-1.159,0.719-0.82
	c0.677,0.271,1.212,0.979,0.794,1.597c-1.539,2.274,0.19,4.038,1.047,5.698c0.676,1.31,2.696,1.466,3.97,2.474
	c1.279,1.014,2.094,1.75,1.575,3.658c-0.692,2.552,0.506,4.207,3,5.041c1.752,0.586,2.085,2.525,0.13,4.379
	c-2.136,2.025-0.767,2.926,0.648,4.038c0.604,0.476,1.252,0.903,1.355,1.705c0.198,1.527,1.208,1.94,2.542,2.282
	c2.159,0.554,2.596,2.33,0.901,3.808c-0.804,0.7-0.712,0.895,0.045,1.359c0.484,0.299,0.494,0.841,0.461,1.349
	c-0.122,1.883,0.777,2.371,2.352,1.703c0.484,0.515,0.195,0.859,0.042,1.244c-0.766,1.921-1.08,3.546,1.306,4.824
	c3.04,1.628,4.196,3.979,3.565,5.936c-0.201,0.626-0.685,0.892-1.226,1.417c2.998,1.508,4.749,3.92,5.401,7.147
	c0.109,0.539,0.655,1.033-0.355,1.294c-0.676,0.174-0.327,0.872-0.041,0.899c2.09,0.197,3.063,2.397,5.324,2.579
	c3.987,0.32,7.87,1.747,11.125,3.932c2.993,2.009,6.115,2.739,9.471,3.032c1.329,0.116,1.858,0.488,2.136,1.819
	c0.611,2.938,2.506,3.867,4.954,2.601c1.044-0.541,1.406-0.135,1.332,0.886c-0.147,2.039,0.826,2.345,2.46,1.619
	c0.657-0.291,1.263-0.438,1.836,0.138c0.405,0.408,0.564,0.91,0.13,1.323c-2.019,1.922-0.114,2.883,0.986,3.971
	c1.464,1.449,2.094-0.415,3.175-0.965c0.722,0.833-0.916,3.823,2.186,2.556c0.301-0.123,0.277,0.782,0.223,1.28
	c-0.294,2.648,3.755,6.15,6.351,5.413c1.028-0.291,1.843-0.683,2.562,0.509c0.736,1.221-0.354,1.592-0.881,2.247
	c-0.152,0.189-0.27,0.406-0.495,0.753c2.14-0.311,4.05-0.774,2.519,2.607c-0.459,1.015-0.363,3.689,2.428,4.202
	c1.364,0.25,1.889,2.128,2.667,3.383c1.035,1.671,2.153,3.362,4.604,2.557c0,20.251-0.02,40.502,0.043,60.753
	c0.004,1.492-0.297,1.822-1.794,1.795c-5.914-0.108-11.833-0.044-17.749-0.044c-1.719-0.99-0.741-1.972,0.166-2.655
	c-0.343-0.654-0.66-0.67-1.005-0.631c-4.691,0.529-5.876-0.58-5.723-5.271c0.033-0.991-0.048-1.999-0.207-2.979
	c-0.178-1.087,0.013-1.984,0.892-2.683c1.055-0.838,1.844-1.663,0.018-2.531c-0.205-0.098-0.492-0.494-0.487-0.498
	c2.044-2.039-0.299-3.737-0.54-5.557c-0.204-1.543-1.101-2.974-1.144-4.662c-0.03-1.193,0.206-1.789,1.36-2.249
	c2.245-0.893,2.946-2.743,1.505-4.438c-0.893-1.049-0.902-1.851-0.432-2.879c0.352-0.767,0.322-1.42-0.215-2.084
	c-0.672-0.832-1.304-0.367-1.982-0.025c-1.193,0.601-1.491,0.133-1.274-1.057c0.193-1.051,0.78-1.816,1.52-2.517
	c1.247-1.18,1.716-2.647,1.449-4.317c-0.141-0.874-0.161-1.989-1.312-2.162c-1.022-0.153-1.677,0.59-2.15,1.427
	c-0.405,0.715-0.784,1.443-1.227,2.262c-0.274-0.234-0.604-0.419-0.579-0.509c1.029-3.852-1.218-6.68-2.97-9.668
	c-0.158-0.27-0.35-0.688-0.25-0.916c1.142-2.604-1.604-4.136-1.76-6.411c-0.051-0.733-1-1.162-1.967-1.201
	c-1.811-0.073-1.818-0.143-2.201-2.136c-0.09-0.467-0.594-0.297-0.716-0.485c-0.885-1.364-3.177-1.832-2.329-4.37
	c0.33-0.986-1.408-1.588-2.403-2.008c-2.335-0.982-4.051-2.559-5.007-4.884c-0.316-0.77-0.703-1.246-1.508-1.479
	c-1.159-0.335-2.015-1.174-2.803-2.026c-3.419-3.699-7.604-4.495-12.098-2.193c-1.107,0.567-2.148,1.269-3.192,1.951
	c-0.427,0.279-0.824,0.659-1.331,0.308c-0.487-0.338-0.387-0.833-0.221-1.347c0.566-1.742-0.815-3.939-2.389-3.384
	c-2.072,0.731-3.057-0.502-4.394-1.351c-0.982-0.623-2.005-1.184-3.024-1.748c-0.29-0.16-0.647-0.814-0.955-0.094
	c-0.644,1.51-1.466,0.714-2.064,0.104c-0.919-0.934-1.851-1.413-3.103-0.788c-0.947,0.473-1.411-0.04-1.709-0.824
	c-0.473-1.243-1.605-1.688-2.671-2.089c-1.253-0.471-2.998-0.095-3.18-2.139c-0.006-0.061-0.145-0.101-0.172-0.171
	c-0.454-1.115-2.706,1.497-2.283-1.018c0.162-0.965,1.256-1.754,1.861-2.688c1.392-2.142,1.591-3.908-0.379-5.408
	c-1.088-0.829-1.123-1.221-0.076-1.992c1.705-1.258,0.738-1.822-0.65-2.229c-1.764-0.517-3.386-1.304-5.382-2.896
	c2.202,0.695,3.431-0.813,5.056-0.538c0.428,0.073,0.788-0.296,0.781-0.78c-0.007-0.465-0.33-0.802-0.757-0.878
	c-0.732-0.13-1.48-0.2-2.225-0.225c-3.259-0.109-4.011-0.791-4.616-3.842c-0.182-0.913,0.275-0.976,0.848-1.146
	c0.871-0.257,1.783-0.418,2.02-1.557c0.204-0.98,1.692-2.243-0.681-2.521c-0.133-0.015-0.354-0.215-0.35-0.321
	c0.135-3.162-2.653-2.795-4.407-3.563c-1.537-0.673-2.639-1.718-3.492-3.077c-0.327-0.521-1.056-1.132-0.459-1.754
	c0.578-0.603,1.213,0.171,1.815,0.334c0.671,0.182,1.138,0.658,1.416,1.313c0.106,0.251,0.303,0.899,0.553,0.469
	c1.163-2.012,2.19-0.402,3.622,0.52c-0.479-1.77-0.241-3.112-2.452-2.623c-1.993,0.44-0.649-2.144-2.157-2.577
	c0.04-0.019-0.213,0.033-0.365,0.186c-0.466,0.465-0.478,1.599-1.597,1.063c-0.494-0.236-1.271-0.248-1.19-1.052
	c0.075-0.756-0.471-1.835,0.681-2.148c1.33-0.361,0.797-0.903,0.323-1.565c-1.244-1.739-2.206-3.729-4.559-4.355
	c-0.987-0.262-1.929-0.982-2.134-1.966c-0.622-2.98-2.605-5.293-3.715-8.027c-0.528-1.301-0.606-2.383,1.13-3.774
	c-3.586,0.744-3.987-1.821-4.648-3.474c-0.683-1.707-2.504-3.477-0.741-5.743c0.567-0.73-3.022-6.782-4.155-7.186
	c-3.789-1.348-5.899-4.397-7.736-7.64c-0.732-1.294-2.022-1.677-2.939-2.599c-2.109-2.117-4.046-4.428-6.299-6.375
	c-1.779-1.539-3.801-2.919-5.441-4.529c-3.145-3.086-7.433-4.492-10.381-7.862c-2.174-2.482-5.233-3.993-8.4-5.11
	c-3.478-1.227-6.766-2.664-7.95-6.687c-0.268-0.91-0.785-1.707-2.205-1.454c-1.222,0.217-4.979-6.889-4.045-7.611
	c1.859-1.44,1.106-2.257,0.056-3.777c-1.191-1.722-1.499-4.03-3.059-5.616c-1.107-1.126,1.693-2.676-0.253-3.409
	c-1.011-0.38-2.378,0.493-3.591-0.159c-0.717-0.386-1.628-0.511-1.735-1.572c0.486-0.688,0.84,0.049,1.253,0.089
	c1.023,0.1,2.415,0.543,1.744-1.446c-0.051-0.149-0.051-0.336-0.014-0.49c0.238-0.982,2.083-1.638,1.066-2.711
	c-0.982-1.037-2.706-0.584-4.049-0.509c-2.92,0.165-4.049-0.956-3.541-3.865c0.155-0.893,0.308-1.85,0.141-2.716
	c-0.143-0.735-0.537-1.808-1.62-1.493c-1.293,0.376-2.255,0.173-2.491-1.17c-0.221-1.253-0.512-2.674,1.121-3.456
	c0.643-0.308,1.571-0.765,1.356-1.592c-0.277-1.073-1.47-1.599-2.382-1.483c-3.761,0.476-4.456-3.297-6.8-4.751
	c-0.421-0.262-1.262-1.604,0.449-1.535c1.269,0.051,1.658-0.617,1.752-1.603c0.109-1.149-0.589-2.19-1.588-2.223
	c-2.248-0.073-3.185-2.759-5.493-2.51c-0.124,0.014-0.398-0.202-0.385-0.252c0.823-2.979-1.633-1.837-2.835-2.289
	c-0.374-0.141-0.999-0.479-0.979-0.672c0.233-2.199-2.556-2.539-2.727-4.502c-0.028-0.324-0.71-0.812-1.122-0.847
	c-3.486-0.297-5.576-2.598-7.543-5.103c-0.436-0.555-1.104-0.662-1.679-0.963c-1.633-0.854-3.724-1.085-4.579-3.12
	c-0.11-0.262-0.487-0.535-0.775-0.58c-5.14-0.8-9.031-4.481-13.89-5.982c-2.233-0.689-4.616-0.858-6.723-1.842
	c-1.827-0.852-4.198-0.937-5.16-3.226c-0.193-0.462-0.816-0.644-0.98-0.228c-0.751,1.902-1.809,0.643-2.73,0.321
	c-1.262-0.438-2.353-0.739-3.575,0.348c-0.576,0.513-1.739,0.42-2.645,0.493c-1.79,0.144-0.711-1.146-0.938-1.837
	c-0.438-1.339-1.461-0.777-2.195-0.321c-3.272,2.034-6.848,2.601-10.641,2.711c-1.862,0.054-4.014,0.101-5.308,2.034
	c-0.789,1.179-2.142,1.175-3.345,1.43c-0.524,0.111-0.88-0.047-1.012-0.739c-0.475-2.496-1.234-2.868-3.06-1.137
	c-1.081,1.025-2.093,1.485-3.497,1.653c-0.613,0.073-1.964,0.125-1.07,1.74c0.541,0.979-1.756,2.064-3.142,1.349
	c-0.573-0.296-0.997-0.871-1.532-1.259c-0.714-0.518-1.477-0.379-2.056,0.182c-0.61,0.589-0.049,1.031,0.384,1.433
	c0.725,0.67,0.429,1.149-0.297,1.532c-0.695,0.367-1.276,0.365-1.571-0.519c-0.933-2.794-2.605-2.092-4.514-1.064
	c-1.643,0.884-2.631,2.69-5.232,3.08c1.008,0.279,1.391,0.376,1.768,0.492c0.564,0.176,1.199,0.366,1.21,1.074
	c0.011,0.749-0.705,0.905-1.231,1.029c-4.354,1.025-7.764,3.945-11.703,5.798c-1.123,0.527-2.247,0.611-3.403,0.29
	c-1.377-0.382-2.412-0.062-3.219,1.177c-1.238,1.901-2.54,3.699-5.266,3.492c-0.664-0.051-1.572,0.35-2.034,0.851
	c-2.404,2.605-5.034,4.993-7.195,7.841c-1.483,1.953-2.66,4.095-4.633,5.784c-1.585,1.358-3.073,3.094-3.344,5.78
	c-0.204,2.028-1.937,3.971-2.739,6.118c-1.443,3.862-0.795,7.632-0.421,11.519c0.19,1.979-0.554,4.053-0.914,6.076
	c-0.055,0.305-0.521,0.771-0.465,0.828c2.8,2.778-1.111,4.921-0.732,7.507c0.123,0.84,0.781,1.434,0.704,2.516
	c-2.147-0.995-2.904-0.038-2.89,1.996c0.004,0.646-0.486,1.045-1.077,1.243c-2.149,0.721-3.09,2.376-3.486,4.461
	c-0.086,0.456,0.077,1.162-0.65,1.114c-0.632-0.043-1.026-0.598-1.048-1.225c-0.016-0.481,0.302-0.987,0.241-1.452
	c-0.084-0.642-0.649-1.044-1.263-0.943c-0.708,0.117-0.587,0.785-0.344,1.199c0.568,0.967,0.346,1.9,0.033,3.774
	c-1.7-4.171-4.684-4.126-7.703-3.706c-1.295,0.181-0.866,1.457-0.889,2.64c-0.963-2.962-2.218-2.24-3.615-0.721
	c-0.772,0.84-1.494,1.363-2.113-0.254c-0.699-1.827-2.353-1.558-3.882-1.553c1.008,1.076,2.594,1.499,3.106,3.547
	c-2.527-0.562-4.954-0.631-6.811-2.212c-2.113-1.799-3.615-1.807-5.397,0.287c-0.809,0.949-1.892,0.538-2.775,0.152
	c-1.45-0.636-2.914-1.183-4.429-1.656c-2.983-0.933-2.962-1.003-3.776,2.204c-0.987-1.583-1.909-1.188-3.289-0.521
	c-1.397,0.675-3.303,0.849-3.955-1.536c-0.25-0.913-0.968-1.636-2.095-1.062c-0.737,0.376-1.275-0.114-1.892-0.282
	c-1.79-0.487-3.454-0.328-5.055,1.199c-0.316-1.145-0.094-2.611-1.811-2.423c-0.897,0.099-1.694,0.127-1.603,1.356
	c0.189,2.534-0.794,1.688-2.057,0.791c-1.716-1.218-3.181-3.033-5.645-2.776c-0.585,0.061-1.493-0.629-1.639,0.388
	c-0.104,0.722,0.759,0.994,1.427,1.143c1.05,0.233,2.104,0.444,2.382,2.148c-2.018-0.861-4.27-0.266-5.204-2.98
	c-0.541-1.575-2.509-1.319-3.772-0.765c-2.101,0.921-3.892,0.505-5.606-0.677c-1.062-0.732-1.85-0.318-2.725,0.26
	c-2.674,1.766-5.291,2.797-8.034-0.026c-1.039-1.069-2.342,0.249-3.571,0.165c-2.264-0.155-1.087,1.437-1.062,2.403
	c0.008,0.333,0.15,0.711-0.244,0.859c-0.624,0.233-1.197,0.013-1.514-0.537c-0.962-1.667-2.939-1.806-4.282-2.901
	c-0.445-0.363-1.19-0.49-1.592,0.066c-0.528,0.729,0.261,0.953,0.693,1.284c0.605,0.464,1.849,0.841,0.841,1.802
	c-0.819,0.782-2.065,0.739-2.957-0.105c-0.592-0.561-0.918-1.39-1.457-2.019c-0.878-1.025-2.089-1.541-3.358-1.123
	c-1.097,0.361-2.467,0.682-2.255,2.474c0.147,1.243-1.109,1.821-1.8,1.432c-1.643-0.928-4.388-0.185-4.861-2.994
	c-0.011-0.06-0.295-0.073-0.439-0.105c-1.004,0.56,0.685,1.746-0.428,2.104c-0.904,0.291-1.423-0.695-2.065-1.18
	c-1.589-1.198-4.849-0.936-6.31,0.502c-0.339,0.333-0.513,0.629-0.33,1.076c0.305,0.749,1.494,1.614,0.047,2.228
	c-1.198,0.507-2.598,0.89-3.614-0.54c-0.189-0.266-0.413-0.507-0.729-0.889c-0.724,0.671,0.532,1.48-0.429,2.086
	c-1.215-0.424-1.383-1.955-2.45-2.627c0.226-0.244,0.322-0.444,0.433-0.452c0.932-0.069,1.989-0.08,2.054-1.3
	c0.036-0.668-0.81-0.644-1.177-0.441c-0.981,0.542-2.763-0.365-2.974,1.454c-0.099,0.852,0.064,1.814,1.094,2.326
	c0.506,0.252,1.514,0.594,0.885,1.388c-0.53,0.67-1.491,0.735-2.247,0.085c-0.563-0.484-1.016-1.06-1.758-1.354
	c-2.944-1.166-3.959-0.764-6.792,2.897c-0.287-0.443-0.557-0.85-0.815-1.264c-0.278-0.445-0.599-0.896-1.18-0.532
	c-0.632,0.395-0.591,0.924-0.113,1.464c0.518,0.585,1.5,1.126,0.306,1.969c-1.143,0.806-1.485,0.032-2.021-0.868
	c-0.576-0.967-4.542-0.562-5.968,0.683c-1.468,1.281-2.829,2.315-4.978,2.415c-1.543,0.072-2.474,1.495-2.229,3.311
	c-1.185-0.043-2.404-1.159-3.367-0.131c-1.846,1.972-3.818,3.69-6.382,4.649c-0.51,0.19-0.337,0.532-0.212,0.997
	c0.445,1.663-2.604,5.154-4.286,4.91c-0.388-0.057-0.706-0.604-1.226-1.083c-0.282,0.962,0.019,2.182-1.742,2.116
	c-1.302-0.049-2,1.674-2.736,2.718c-1.799,2.555-3.619,4.929-5.987,7.116c-2.404,2.221-4.66,4.902-6.642,7.666
	c-0.724,1.011-1.586,1.926-2.428,2.845c-3.903,4.262-7.287,8.835-10.256,13.853c-1.39,2.348-2.065,5.571-4.943,7.007
	c-0.585,0.292-0.633,0.938-0.753,1.508c-0.427,2.021-1.151,3.838-3.183,4.804c-0.56,0.266-0.884,0.755-0.99,1.364
	c-0.541,3.097-1.894,5.739-4.209,7.909c-0.445,0.417-0.581,1.169-0.851,1.77c-0.737,1.64-0.94,3.42-2.446,4.835
	c-1.348,1.267-1.271,3.491-1.839,5.253c-0.864,2.684,0.187,5.984-2.883,8.221c-0.945,0.689-1.05,3.607-1.549,5.487
	c-0.815,3.068-0.554,6.224-1.179,9.305c-0.674,3.326-0.747,6.739,0.027,10.098c0.424,1.843-0.003,3.136-2.3,3.419
	c0.957,1.47,3.057,1.748,2.974,3.69c-0.043,1.019-0.173,1.989-1.279,2.714c-0.77-0.804-0.892-2.097-2.093-2.84
	c0.285,2.256-0.346,4.62,2.071,5.983c0.621,0.351,0.655,0.289,2.137-1.452c0.57,1.94,2.471,3.221,0.715,5.689
	c-0.962,1.352,0.784,3.246,1.518,4.72c0.812,1.633,0.408,2.769-0.266,4.231c-0.951-0.704,0.088-1.775-1.095-2.577
	c-0.504,2.751-2.475,3.636-4.817,4.229c-1.123,0.285-1.214,1.696-1.66,2.662c-0.27,0.583-0.443,1.693-1.131,1.378
	c-2.329-1.067-5.287,0.157-7.264-2.071c-0.317-0.359-0.835-0.845-1.208-0.804c-5.576,0.618-9.603-3.618-14.686-4.676
	c-2.463-0.512-4.849-2.185-6.195-4.689c-0.258-0.48-0.658-0.683-1.103-0.932c-4.903-2.745-9.731-5.615-14.3-8.897
	c-1.774-1.274-3.936-1.696-5.838-2.753c-3.158-1.754-6.385-3.382-9.404-5.38c-0.58-0.383-1.241-0.526-1.913-0.451
	c-2.394,0.268-3.91-1.272-5.528-2.618c-0.25-0.208-0.626-0.628-0.753-0.565c-3.228,1.604-4.302-2.222-6.766-2.69
	c-1.545-0.294-2.924-1.158-4.493-0.14c-0.706,0.459-1.458,0.089-2.172-0.121c-3.348-0.984-6.693-1.979-10.043-2.96
	c-0.575-0.169-1.236-0.351-1.427-0.912c-0.772-2.275-2.721-2.844-4.695-3.14c-3.698-0.555-7.274-1.787-11.042-1.931
	c-0.988-0.038-1.989-0.361-2.894,0.325c-0.128,0.098-0.388,0.232-0.443,0.185c-0.852-0.744-1.545-1.949-2.944-0.896
	c-0.766-1.337-2.187-1.097-3.358-1.248c-0.902-0.117-2.274-1.774-2.667,1.061c-0.281,2.033-4.107,1.562-5.859-0.854
	c-0.726-1.001-1.454-1.584-2.666-1.357c-1.758,0.329-3.152,0.915-1.549,3.033c-1.603,0.636-2.415-0.177-3.003-1.25
	c-0.611-1.114-1.276-1.459-2.347-0.577c-0.459,0.379-1.04,0.577-1.641,0.467c-3.157-0.581-6.316-1.062-9.363-2.229
	c-1.424-0.545-3.165-0.398-4.75-0.323c-0.599,0.028-0.27,0.781-0.082,1.239c0.829,2.02-0.492,2.342-1.84,1.897
	c-1.532-0.505-3.038-0.771-4.601-0.646c-0.557,0.044-0.449-0.169-0.54-0.487c-0.65-2.28-1.571-2.42-3.47-0.911
	c-3.913,3.108-7.93,6.029-13.276,6.16c-1.598,0.039-2.976-0.099-4.019-1.425c-0.88-1.118-1.95-1.202-2.621,0.013
	c-1.072,1.942-3.135,2.386-4.715,3.547c-0.332,0.244-0.708,0.58-1.121,0.31c-0.503-0.328-0.343-0.87-0.238-1.361
	c0.147-0.69,0.577-1.361,0.156-2.413c-2.174,2.204-2.033,6.986-6.737,5.935c-0.14-1.211,1.033-0.739,1.282-1.402
	c0.41-1.093,0.581-1.922-0.93-2.201c-2.998-0.556-6.711,2.545-6.501,5.482c-0.146,0.058-0.36,0.211-0.436,0.16
	c-3.598-2.44-6.532-0.366-9.507,1.389c-0.495,0.292-1.06,1.02-1.41,0.918c-2.89-0.841-4.27,1.236-5.302,3.074
	c-1.51,2.688-3.909,1.942-6.034,2.053c-0.991,0.051-1.622,0.279-2.047,1.008c-1.117,1.918-3.206,2.866-4.488,4.614
	c-0.268,0.365-0.583,0.785-1.238,0.569c-3.374-1.116-5.32,0.363-5.649,4.078c-0.09,1.013-0.843,1.873-1.994,1.913
	c-3.837,0.136-3.838,0.108-6.328,2.623c0.507,0.542,1.666-0.578,1.786,0.568c0.08,0.765-0.829,0.919-1.383,1.241
	c-1.936,1.128-3.169,3.38-5.729,3.539c-0.329,0.021-0.217,0.525-0.194,0.864c0.101,1.556-0.781,2.177-2.17,1.861
	c-2.657-0.603-3.125,1.259-3.443,3.06c-0.415,2.352-3.072,4.41-5.387,3.877c0.099,2.522-0.52,4.541-3.511,4.777
	c-0.631,0.051-0.912,0.463-0.827,1.013c0.2,1.287-0.581,2.103-1.423,2.743c-3.496,2.657-5.593,6.567-8.651,9.651
	c-1.734,1.749-3.805,3.944-4.14,6.894c-0.111,0.979-0.938,1.649-1.765,2.305c-1.358,1.075-2.557,2.397-2.148,4.392
	c0.115,0.56-0.078,0.958-0.387,1.372c-2.688,3.61-4.266,7.78-5.986,11.88c-0.457,1.091-0.859,2.168-0.532,3.383
	c0.083,0.311,0.18,0.846,0.03,0.958c-2.081,1.567-0.765,3.83-1.222,5.718c-10.834,0-21.668,0-32.501,0
	c0.29-0.94,0.46-1.81,0.295-2.884c-0.294-1.911-0.471-3.949,0.85-5.691c0.195-0.258,0.479-0.747,0.379-0.886
	c-1.989-2.799,2.038-4.887,0.872-7.587c-0.277-0.643,0.038-1.278,0.463-1.854c1.229-1.661,1.599-3.593,1.818-5.609
	c0.233-2.14,0.662-4.026,2.983-5.295c1.704-0.93,2.356-3.166,2.302-5.234c-0.021-0.792,0.09-1.27,0.541-1.969
	c1.751-2.718,3.769-5.262,5.535-7.918c2.474-3.722,4.815-7.581,7.354-11.268c2.106-3.058,4.569-5.938,7.815-7.961
	c0.281-0.175,0.64-0.357,0.765-0.628c2.195-4.726,7.442-6.555,10.24-10.91c1.185-1.847,3.496-3.436,4.989-5.445
	c0.142-0.19,0.395-0.427,0.596-0.426c3.229,0.005,4.205-3.108,6.328-4.623c1.062-0.759,1.596-1.806,3.016-0.439
	c1.028,0.989,2.071,0.056,2.081-1.015c0.017-1.722,0.108-2.629,2.154-1.671c0.77,0.36,1.724-0.221,1.061-1.169
	c-0.858-1.227-0.635-2.446,0.177-3.137c1.359-1.153,1.62,1.227,2.882,1.286c0.305-1.174-1.567-2.056-0.519-3.185
	c0.728-0.785,1.567-1.499,2.456-2.097c2-1.343,3.97-2.789,6.132-3.811c1.392-0.657,2.821,1.237,4.465,0.602
	c0.262-0.101,0.642,0.135,0.972,0.171c0.816,0.089,1.717,0.342,2.195-0.634c0.195-0.397,0.005-0.818-0.346-1.107
	c-0.744-0.609-1.492-0.607-2.283-0.049c-0.485,0.344-1.049,1.211-1.611,0.316c-0.385-0.613,0.252-1.252,0.724-1.716
	c1.759-1.728,4.122-2.412,6.226-3.547c0.13-0.07,0.42-0.107,0.457-0.049c1.36,2.2,2.844,0.124,4.198,0.228
	c4.146,0.317,5.839-2.452,7.68-5.202c0.515-0.769,0.923-1.211,1.992-0.87c2.316,0.738,4.294-0.338,5.916-1.78
	c1.399-1.244,2.942-1.412,4.614-1.482c0.537-0.022,1.042,0.03,1.053,0.722c0.042,2.552,1.093,1.32,1.685,0.362
	c1.297-2.098,3.984-1.857,5.561-3.515c0.498-0.523,1.639-0.358,2.154,0.549c1.173,2.069,1.812,0.712,2.247-0.421
	c0.523-1.361,0.795-1.826,2.606-1.235c1.771,0.577,3.922-0.327,5.351-2.003c1.71-2.004,1.928-2.021,4.587-0.578
	c-0.007,1.001-1.788,0.836-1.375,2.056c0.06,0.177,0.573,0.312,0.856,0.282c0.959-0.103,1.843-0.337,1.709-1.638
	c-0.037-0.354,0.283-0.794,0.566-0.639c2.538,1.392,4.542-1.71,7.128-0.782c0.775,0.277,1.972-1.072,2.959,0.244
	c0.142,0.189,0.642-0.263,0.867-0.673c1.753-3.194,5.493-3.795,7.919-1.119c1.174,1.295,2.375,1.481,2.818-0.028
	c0.603-2.057,2.327-2.118,3.509-2.135c2.324-0.035,4.647-0.156,6.971-0.229c0.522-0.017,0.966,0.156,1.366,0.502
	c2.488,2.154,2.491,2.151,5.871,2.076c0.092-0.603-1.111-0.972-0.327-1.695c0.781-0.719,1.721-1.209,2.73-0.808
	c1.358,0.54,2.755,0.671,4.16,0.694c1.524,0.025,2.648,0.619,3.724,1.692c2.075,2.069,4.33,1.812,6.062-0.529
	c1.073-1.448,3.687-1.549,4.941,0.104c1.248,1.646,2.272,2.354,3.836,0.521c0.104-0.123,0.261-0.211,0.41-0.283
	c1.656-0.805,9.559,1.145,10.729,2.643c1.376,1.761,4.11,2.485,6.001,1.59c2.339-1.107,2.549-1.107,5.298,0.023
	c0.093,1.136-1.594,0.467-1.563,1.566c0.626,0.773,1.441,0.757,2.21,0.299c3.065-1.83,5.558-0.446,8.208,1.137
	c2.43,1.451,5.09,2.178,8.032,2.562c3.148,0.411,6.896-0.008,9.285,3.146c0.923,1.218,2.419,1.756,3.79,1.146
	c1.578-0.702,2.433-0.082,3.496,0.897c1.59,1.466,3.243,2.928,5.738,1.773c0.916-0.424,1.501,0.088,1.823,1.094
	c0.395,1.235,1.439,1.769,2.544,1.071c1.297-0.819,2.052-0.239,2.739,0.676c1.035,1.378,2.406,1.963,4.071,2.104
	c0.651,0.055,1.453,0.131,1.896,0.524c2.707,2.4,6.421,1.965,9.459,3.455c1.231,0.604,2.766,0.649,3.934,1.491
	c2.026,1.46,4.301,0.896,6.513,0.977c0.064-0.708-0.614-0.75-0.888-1.127c-0.394-0.544-0.44-1.09-0.039-1.608
	c0.435-0.56,0.885-0.167,1.315,0.068c0.748,0.408,1.704,0.916,2.218,0.024c0.555-0.964-0.587-1.556-1.205-1.866
	c-2.196-1.104-2.077-2.442-1.113-4.437c1.05-2.173,2.311-4.265,2.042-7.033c-0.141-1.452,2.161-2.432,2.756-4.199
	c0.387-1.149,0.869-1.971,0.245-3.202c-0.732-1.442-1.399-3.109,1.357-3.233c0.271-0.012,0.607-0.31,0.776-0.564
	c1.674-2.527,2.997-5.345,3.097-8.29c0.062-1.856,0.562-2.994,1.847-3.984c1.262-0.972,2.225-2.014,1.841-3.774
	c-0.065-0.301-0.044-0.763,0.14-0.955c3.953-4.124,3.685-10.404,7.383-14.566c1.398-1.573,2.382-3.413,3.88-4.962
	c2.069-2.14,3.998-4.757,4.435-7.995c0.031-0.229,0.133-0.488,0.288-0.651c3.092-3.237,5.622-6.939,8.091-10.619
	c2.205-3.285,5.268-5.808,7.207-9.429c1.164-2.174,2.651-5.14,5.675-6.119c0.7-0.228,0.787-1.03,1.002-1.65
	c0.667-1.919,1.909-3.22,3.831-3.983c1.55-0.616,2.163-2.286,3.306-3.39c2.114-2.042,4.396-3.818,6.958-5.241
	c1.532-0.851,3.094-1.812,3.976-3.27c0.877-1.449,1.699-1.693,2.996-0.861c1.229,0.789,2.108,0.444,3.033-0.582
	c1.22-1.354,3.017-1.892,3.497-4.27c0.375-1.861,2.541-0.06,3.936-0.015c-1.12-2.61,1.298-6.212,4.428-6.13
	c1.328,0.035,2.941-0.945,4.268,0.62c0.69,0.814,1.328-0.269,1.626-0.887c0.277-0.573,0.155-1.337,0.426-1.916
	c1.105-2.357,4.219-1.511,5.647-3.518c1.52-2.137,2.63-2.127,5.878-0.353c0.197,0.107,0.476,0.064,0.708,0.09
	c0.982-0.918-1.233-1.879,0.009-2.605c1.16-0.68,2.455-1.212,3.334,0.6c0.533,1.099,1.26,2.524,2.671,2.146
	c1.578-0.423,3.405-1.398,3.387-3.252c-0.022-2.28,1.384-2.571,2.844-2.511c3.677,0.154,7.037-1.605,10.672-1.553
	c0.325,0.004,0.681-0.228,0.973-0.152c2.414,0.621,4.304,0.714,3.544-2.786c-0.128-0.591,0.528-1.391,1.236-1.344
	c1.093,0.072,0.54,1.007,0.499,1.563c-0.084,1.136-0.002,2.065,1.475,1.974c0.419-0.027,0.861-0.177,1.005-0.621
	c0.129-0.398-0.216-0.592-0.53-0.71c-1.284-0.486-0.96-1.335-0.531-2.229c0.607-1.266,0.855-3.358-0.03-3.641
	c-1.589-0.507-3.362-2.15-5.279-0.519c-1.138,0.969-2.208,0.785-2.812-0.603c-1.26-2.895-2.169-5.909-2.685-9.025
	c-0.133-0.807-0.07-1.681,0.378-2.432c0.25-0.419,0.53-0.932,1.116-0.842c0.512,0.08,0.453,0.616,0.543,1.002
	c0.095,0.406,0.104,0.854,0.289,1.212c0.317,0.617-0.441,2.042,0.975,1.765c0.815-0.16,1.667-1.122,1.284-2.136
	c-0.527-1.395-0.146-2.357,0.786-3.37c0.6-0.651,0.839-1.616-0.062-2.173c-0.875-0.541-1.386,0.261-1.67,0.964
	c-0.322,0.801-0.617,1.322-1.621,0.847c-0.846-0.401-1.396-0.885-1.235-1.896c0.417-2.618,1.79-4.932,2.334-7.537
	c0.361-1.729,1.738-0.37,2.692-0.278c1.504-1.853-2.888-1.772-1.185-3.814c1-1.199,1.699-2.618,4.158-2.866
	c-1.61-0.716-2.155-1.164-1.359-2.44c1.043-1.671,1.668-3.379,3.679-4.456c1.448-0.776,2.432-2.995,2.785-4.473
	c0.741-3.108,2.761-5.021,4.571-7.304c2.996-3.778,6-7.533,9.206-11.143c1.567-1.764,3.705-2.876,5.084-4.74
	c3.052-4.125,8.052-6.215,10.875-10.573c0.367-0.566,1.201-1.058,1.879-1.152c1.857-0.26,2.754-1.017,3.127-3.022
	c0.327-1.756,2.298-1.361,3.607-1.247c3.114,0.271,4.646-1.296,4.499-4.398c-0.085-1.798,1.96-2.293,2.949-3.458
	c0.727-0.856,1.785-0.71,2.541-0.492c0.945,0.272,0.366,1.093-0.021,1.609c-0.56,0.746-1.623,1.104-1.973,2.919
	c2.146-1.951,4.232-3.02,4.714-5.541c0.257-1.343,0.544-2.293,2.253-1.245c1.501,0.921,6.245-1.937,6.361-3.696
	c0.01-0.156-0.012-0.453-0.037-0.455c-1.009-0.08-1.921-0.3-0.927-1.497c0.823-0.991,1.726-1.644,3.315-1.62
	c1.714,0.024,3.422-1.319,4.22-2.696c1.086-1.873,2.682-2.68,4.412-3.425c1.37-0.589,2.877-0.941,2.967,1.758
	c1.364-3.312,3.952-3.026,6.577-2.451c-0.268-1.384-1.834-0.37-1.688-1.495c0.127-0.969,1.183-0.723,1.854-0.896
	c1.459-0.376,2.859-0.726,3.961-1.933c1.002-1.1,2.537-0.278,3.83-0.559c2.76-0.601,3.921-2.75,5.646-4.305
	c1.049-0.945,1.628-1.508,2.78-0.301c1.439,1.507,2.658-0.701,4.174-0.33c2.32,0.568,2.111-1.172,2.208-2.731
	c0.154-2.485,0.732-2.733,3.076-1.621c0.504-0.49-0.581-1.708,0.679-1.758c1.217-0.048,1.061,1.313,1.726,2.138
	c3.077-3.677,7.447-3.987,11.698-4.576c0.959-0.133,1.469-0.665,1.886-1.428c0.285-0.52,0.627-1.062,1.298-1.018
	c1.023,0.067,0.204,1.198,0.829,1.559c0.838-1.236,2.346-1.569,3.413-2.581c0.86-0.814,2.284-0.241,3.036,0.83
	c1.014,1.442,1.766,1.355,2.861,0.001c1.155-1.427,3.121-1.603,4.634-1.317c3.093,0.583,4.365-1.211,5.608-3.367
	c0.247-0.428,0.529-0.835,0.8-1.259c-1.846-0.304-2.818-2.723-1.707-4.31c0.425-0.606,0.959-1.163,1.533-1.631
	c1.892-1.543,1.938-3.204-0.049-4.53c-0.721-0.481-0.88-1.09-1.211-1.842c1.288-0.17,3.165,1.496,3.228-1.228
	c0.014-0.62-0.117-1.079-0.646-1.508c-2.564-2.083-2.624-4.441-0.221-6.617c1.618-1.466,2.283-4.499,1.54-6.509
	c-0.496-1.344-0.776-2.717,1.392-2.825c0.764-0.039,1.264-0.592,1.495-1.189c0.995-2.57,2.516-4.969,2.658-7.831
	c0.028-0.574-0.138-1.321,0.158-1.69c1.711-2.14,3.488-3.996,4.271-6.958c0.503-1.902,2.89-3.438,2.95-5.979
	c0.014-0.566,0.491-0.996,1.1-1.243c1.813-0.738,2.667-2.412,2.882-4.085c0.415-3.241,2.547-5.373,4.426-7.642
	c1.112-1.344,2.334-2.558,3.144-4.144c0.604-1.186,1.561-2.082,2.647-2.926c2.143-1.663,3.78-3.83,5.015-6.247
	c0.373-0.732,0.439-1.792,1.165-2.146c2.868-1.403,4.341-4.216,6.58-6.242c2.052-1.858,3.874-3.886,5.122-6.388
	c0.215-0.431,0.468-0.958,0.853-1.169c2.474-1.357,4.186-3.483,5.756-5.71c1.712-2.426,3.953-4.444,6.309-5.965
	c2.288-1.479,4.481-3.689,7.659-3.547c1.265,0.056,1.847-0.647,0.673-1.613c-1.218-1.002-0.431-1.677,0.277-2.166
	c2.92-2.013,5.513-4.503,8.794-5.994c1.663-0.755,2.836-2.608,5.024-2.209c0.17,0.031,0.522-0.227,0.582-0.416
	c0.944-2.993,3.393-3.649,6.071-4.352c1.52-0.399,2.848-1.797,3.586-3.28c1.04-2.09,2.864-1.208,4.386-1.457
	c0.467-0.076,0.645,0.411,0.684,0.865c0.055,0.66,0.02,1.472,0.966,1.448c0.936-0.023,1.811-0.736,1.73-1.515
	c-0.343-3.325,3.598-3.814,4.169-6.548c0.128-0.613,1.274-1.188,2.131-0.971c0.895,0.228,1.229,1.052,1.172,1.976
	c-0.038,0.613-0.073,1.25,0.781,1.258c0.722,0.006,1.816,0.372,2.052-0.426c0.562-1.906,1.946-3.006,3.302-4.231
	c0.288-0.26,0.094-1.054,0.125-1.66c1.765,1.241,4.429,0.759,6.237-1.27c0.586-0.657,0.705-1.477,1.799-0.64
	c0.512,0.392,0.665-0.125,0.521-0.614c-0.047-0.158-0.103-0.314-0.153-0.471c3.224,0.948,1.82-2.266,2.912-3.23
	c1.129-0.997,2.354-0.495,3.549-0.14c1.829,0.543,3.367,0.754,2.574-2.028c-0.292-1.024,0.456-1.382,1.189-1.553
	c1.844-0.43,3.855-1.196,5.18-2.063c1.905-1.247,3.854-1.672,5.845-2.316c1.152-0.372,2.525-1.14,1.819,1.237
	c-0.231,0.777,0.28,1.279,0.87,1.627c0.89,0.524,1.12-0.304,1.507-0.808c0.768-1,1.487-1.973,1.282-3.382
	c-0.215-1.476,0.832-2.244,2.032-2.362c1.097-0.107,2.12,0.008,3.086-0.765c0.383-0.307,1.151-0.087,1.419,0.61
	c0.187,0.485-0.288,1.612,0.936,1.098c0.584-0.245,1.286-0.769,0.963-1.54c-0.808-1.926,0.419-2.161,1.785-2.277
	c1.788-0.152,3.418-1.842,5.421-0.35c0.629,0.469,1.272-0.477,1.692-1.123c0.746-1.148,1.514-2.317,3.177-1.486
	c0.488,0.245,0.621,0.039,0.937-0.339c1.914-2.295,4.533-2.979,7.322-2.551c1.49,0.229,2.681,0.293,3.99-0.589
	c2.079-1.4,3.105,0.216,4.005,1.783c0.835-0.48,0.815-1.324,1.17-1.951c0.548-0.969-0.57-2.932,1.809-2.833
	c1.178,0.049,2.384-0.271,3.556-0.318c2.57-0.104,5.053,0.374,7.548,0.324c1.747-0.035,3.105-1.917,3.418-3.502
	c0.251-1.274,0.611-1.717,1.676-1.917c1.106-0.208,1.978,0.069,2.406,1.227c0.292,0.79,0.637,1.813,1.691,1.263
	c0.875-0.457,0.06-1.165-0.241-1.685c-0.553-0.956,0.108-1.2,0.779-1.385c3.274-0.906,6.223-2.796,9.649-3.221
	c0.809-0.1,2.034-1.082,2.095,0.887c0.021,0.684,0.768,0.415,1.226,0.368c1.019-0.104,1.982,0.016,2.912,0.484
	c0.626,0.315,1.275,1.015,2.001,0.225c0.372-0.406,0.251-0.939,0.05-1.416c-0.358-0.849-0.975-1.402-1.925-1.27
	c-0.632,0.088-1.233,0.387-2.18,0.702c0.636-1.397,1.885-1.838,2.662-1.584c2.314,0.759,4.668-0.113,6.551-0.607
	c2.658-0.697,5.278-0.244,7.832-0.87c0.555-0.136,1.443-0.361,1.684-0.096c2.261,2.492,2.979,0.696,4.062-1.17
	c1.008-1.736,2.766-2.468,4.872-2.52c1.649-0.041,3.29-0.47,4.933-0.737c0.888-0.145,1.88-0.59,1.429,1.133
	c-0.114,0.44,0.42,1.785,1.399,0.745c1.833-1.946,4.73-1.278,6.685-2.908c0.585-0.487,1.333-0.007,1.784,0.478
	c1.134,1.218-1.046,1.442-0.802,2.591c1.762,0.042,3.033-0.964,3.856-2.208c1.048-1.583,1.871-2.292,3.362-0.57
	c0.511,0.59,1.247-0.011,1.572,0.001c2.874,0.106,4.91-3.976,8.106-1.771c0.074,1.196-2.391,1.046-1.266,2.251
	c0.922,0.987,2.062,0.429,2.642-0.995c0.481-1.186,1.009,0.083,1.529,0.132c0.808,0.075,1.788,0.456,2.37-0.194
	c0.791-0.883-0.716-1.079-0.807-1.976c1.185,0,2.9-1.986,3.007,1.173c0.032,0.969,1.01,0.662,1.569,0.876
	c0.788,0.301,1.479-0.2,1.552-0.837c0.18-1.577,1.084-1.301,2.12-1.122c1.284,0.222,2.418-0.354,3.612-0.731
	c1.083-0.342,2.44-0.973,2.373,1.433c-0.06,2.118,1.923,1.269,2.37,0.574c1.755-2.725,4.313-2.215,6.812-2.104
	c0.764,0.034,3.046-1.857,1.76,1.254c-0.034,0.082,1.538,0.891,2.405,1.258c0.596,0.252,1.292,0.035,1.472-0.571
	c0.314-1.061,0.495-2.064,1.845-2.337c1.495-0.303,2.989-0.531,4.428,0.037c1.178,0.465,2.241,0.998,3.568,0.401
	c0.787-0.354,1.316,0.191,1.248,1.02c-0.124,1.517,0.626,2.312,2.021,2.159c1.7-0.187,4.029,1.227,4.866-1.547
	c0.428-1.421,1.495-1.584,2.557-1.323c3.176,0.784,6.451,0.486,9.631,1.036c1.531,0.265,3.21,0.213,4.39,1.754
	c0.607,0.793,1.548-0.593,2.438-0.341C1045.84,173.067,1045.84,180.234,1045.84,187.401z M551.29,499.156
	c1.371-1.436,2.258-1.248,2.764,0.593c0.427,1.553,1.917,1.505,3.037,1.422c1.253-0.094,1.673-1.467,1.672-2.45
	c-0.001-1.143-0.975-1.891-2.194-1.923c-0.915-0.023-1.488-0.578-2.191-1.008c-1.057-0.646-2.423-0.949-3.448-0.368
	c-1.274,0.722,0.542,1.214,0.471,1.93C551.354,497.824,550.841,498.206,551.29,499.156z"/>
<path fill-rule="evenodd" clip-rule="evenodd" fill="none" d="M547.907,367.161c-0.449-0.95,0.064-1.332,0.111-1.805
	c0.071-0.716-1.745-1.208-0.471-1.93c1.025-0.581,2.391-0.278,3.448,0.368c0.703,0.43,1.276,0.984,2.191,1.008
	c1.22,0.032,2.193,0.78,2.194,1.923c0,0.983-0.419,2.356-1.672,2.45c-1.12,0.083-2.609,0.131-3.037-1.422
	C550.165,365.913,549.278,365.725,547.907,367.161z"/>
</svg>
