<?xml version="1.0" encoding="utf-8"?>
<!-- Generator: Adobe Illustrator 16.0.0, SVG Export Plug-In . SVG Version: 6.00 Build 0)  -->
<!DOCTYPE svg PUBLIC "-//W3C//DTD SVG 1.1//EN" "http://www.w3.org/Graphics/SVG/1.1/DTD/svg11.dtd">
<svg version="1.1" id="Layer_1" xmlns="http://www.w3.org/2000/svg" xmlns:xlink="http://www.w3.org/1999/xlink" x="0px" y="0px"
	 width="595.28px" height="841.89px" viewBox="0 0 595.28 841.89" enable-background="new 0 0 595.28 841.89" xml:space="preserve">
<path fill-rule="evenodd" clip-rule="evenodd" fill="none" d="M969.184,354.944c0,46.502,0,93.005,0,139.507
	c-0.938,0.093-0.568,1.368-1.393,1.568c-1.703-1.988-4.346-2.549-5.398-0.966c-0.909,1.367-1.235,1.155-2.019-0.034
	c-1.14-1.733-3.076-1.657-4.171,0.14c-0.636,1.043-1.418,1.452-2.48,0.966c-2.106-0.965-3.754-3.567-6.596-1.749
	c-2.247-1.925-4.154,0.24-6.25,0.335c0.141,1.115,1.554,0.324,1.606,1.416c-1.063,0.52-2.513,0.618-2.912-0.326
	c-1.301-3.078-3.535-1.548-4.943-0.813c-1.446,0.755-2.075,0.759-3.099-0.378c-1.031-1.146-4.236-1.005-4.384,0.152
	c-0.216,1.684-0.715,0.793-1.346,0.428c-1.493-0.863-2.918-1.979-4.837-1.421c-1.528,0.445-3.005,0.733-4.593-0.025
	c-0.92-0.44-2.027-0.201-2.665,0.778c-0.992,1.525-2.412,1.562-3.99,1.306c0.147-0.722,1.527-0.228,1.228-1.187
	c-0.193-0.618-0.955-0.573-1.526-0.64c-0.844-0.097-1.782-0.14-2.374,0.497c-2.15,2.312-4.389,1.291-6.593,0.238
	c-1.017-0.485-1.988-0.981-3.074-0.441c-4.033,2.006-8.546,1.414-12.652,1.375c-3.369-0.031-6.247,1.256-9.408,1.389
	c-0.391,0.017-0.451,0.273-0.52,0.668c-0.143,0.814-4.363,1.521-4.401,0.851c-0.165-2.867-2.196-1.393-3.448-1.644
	c-1.934-0.388-3.801-0.062-5.626,0.651c-0.484,0.189-1.145,0.644-1.511-0.146c-0.674-1.449-1.486-0.562-1.801,0.051
	c-0.778,1.514-1.604,2.623-3.561,2.485c-1.581-0.111-3.032-0.103-4.44-1.192c-1.146-0.887-2.72-1.257-4.128-0.066
	c-0.3,0.254-0.893,0.618-1.061,0.505c-2.701-1.838-5.661-0.445-8.453-0.551c-2.312-0.088-5.39-1.037-6.78,2.301
	c-0.243,0.583-0.864,0.265-1.288-0.035c-0.814-0.576-1.617-1.167-2.435-1.739c-0.865-0.605-1.448-0.422-2.014,0.518
	c-1.637,2.718-1.73,2.704-4.478,0.753c-1.087-0.771-2.226-1.818-3.605-1.127c-0.902,0.453-1.562,0.581-2.504,0.254
	c-0.867-0.3-1.839-0.18-2.614,0.441c-0.87,0.697-1.745,0.496-2.783,0.42c-1.93-0.142-4.198-0.531-5.665,1.009
	c-1.062,1.114-1.646,0.807-2.385,0.043c-1.137-1.174-2.434-1.358-4.03-1.404c-1.291-0.037-1.812,1.521-3.17,0.975
	c-2.798-1.128-5.776-0.632-8.642-0.524c-2.868,0.108-5.941-0.218-8.421,2.068c-0.709,0.653-1.854,0.548-2.614-0.84
	c-0.62-1.133-1.902-2.289-3.479-0.829c-0.584,0.539-1.288,0.479-1.831,0.02c-1.616-1.369-3.325-0.859-4.951-0.211
	c-2.13,0.849-4.089,0.572-6.296,0.08c-3.374-0.753-6.954-1.173-10.149,0.852c-0.872,0.552-1.399,0.5-1.809-0.306
	c-0.739-1.457-1.98-1.325-3.237-1.132c-1.08,0.166-2.171,0.356-3.218-0.005c-3.487-1.201-7.12,0.478-10.658-0.6
	c-0.908-0.276-2.122-0.182-3.197-0.192c-0.757-0.008-1.641-0.013-1.706,1.009c-0.057,0.917-0.074,1.872-1.29,1.491
	c-0.834-0.262-2.671,0.43-2.128-1.691c0.154-0.604-0.346-0.638-0.761-0.688c-5.372-0.644-10.745-1.03-16.141-0.242
	c-1.609,0.234-3.176,0.253-4.85,0.112c-2.206-0.185-4.597-0.74-6.769-0.15c-2.116,0.575-4.052,0.453-6.066-0.086
	c-2.095-0.562-4.03-0.552-5.729,1.139c-0.854,0.852-4.244,0.422-4.047-0.171c0.777-2.328-1.409-1.594-1.704-1.411
	c-1.815,1.123-3.12-0.01-4.567-0.713c-1.294-0.628-2.717-0.918-4.122-0.867c-1.334,0.048-2.624,0.234-3.939-0.235
	c-1.385-0.494-2.76-1.146-3.794,0.854c-0.328,0.634-1.745,0.7-2.759,0.346c-0.017-0.96,1.535-0.746,1.151-1.722
	c-0.1-0.253-0.706-0.454-1.067-0.437c-3.005,0.147-6.134-0.77-8.938,1.187c-0.751,0.524-1.855,1.074-2.549-0.29
	c-0.827-1.627-1.952-2.111-3.646-1.148c-0.692,0.395-1.473-0.012-2.147-0.346c-1.12-0.557-2.319-0.512-3.428-0.208
	c-2.921,0.799-5.759,1.05-8.701-0.036c-1.523-0.562-3.358-0.352-4.417,0.902c-1.072,1.271-1.73,0.951-2.904,0.316
	c-1.445-0.779-3.605-1.482-4.616-0.379c-1.185,1.292-1.554,0.8-2.4,0.063c-0.471-0.409-1.177-0.142-1.659-0.336
	c-4.076-1.646-8.319,0.004-12.457-0.719c-2.309-0.403-4.572,0.778-7.078,0.386c-7.885-1.239-15.877,0.257-23.806-0.529
	c-0.203-0.02-0.495,0.061-0.415,0.489c0.466,0.053,0.966,0.059,1.438,0.175c0.734,0.181,1.249,0.719,0.978,1.445
	c-0.249,0.669-1.145,0.61-1.526,0.291c-2.093-1.756-4.728-1.252-7.067-1.908c-2.041-0.572-3.655-0.195-5.091,1.058
	c-1.673,1.461-2.95,1.12-4.225-0.45c-0.711-0.875-1.645-1.555-2.801-1.38c-3.357,0.505-6.623-0.799-9.922-0.494
	c-2.671,0.247-5.274-0.988-7.82-0.335c-1.304,0.334-2.689,0.515-3.574,0c-2.792-1.627-5.704-0.345-8.373-0.253
	c-2.776,0.097-5.527,0.23-8.313-0.021c-1.707-0.153-3.498-0.304-4.647,1.487c-0.55,0.857-1.408,0.563-2.25,0.572
	c-3.033,0.032-5.64-2.112-8.74-1.573c-0.956,0.426,1.449,1.683-0.243,1.646c-0.892-0.02-2.714,1.339-3.09-1.005
	c-0.048-0.296-1.045-0.678-1.414,0.136c-0.934,2.056-1.679,0.885-2.351-0.147c-0.518-0.797-0.991-1.698-2.099-1.362
	c-1.474,0.446-3.202,0.166-4.371,1.547c-0.533,0.63-1.475,0.886-2.049,0.415c-2.714-2.224-5.928-1.658-9.033-1.974
	c-1.955-0.199-3.402-0.023-4.536,1.688c-0.808,1.219-2.338,1.481-2.766,0.16c-0.62-1.914-1.995-1.888-3.284-1.973
	c-2.738-0.18-5.495-0.199-8.24-0.117c-5.209,0.156-10.413,0.004-15.618-0.01c-2.15-0.005-4.646-0.506-6.507,1.484
	c-0.49,0.523-1.703,0.645-2.014-0.099c-1.066-2.552-2.689-1.616-4.481-1.104c-1.163,0.332-2.572,0.452-3.702,0.11
	c-1.736-0.525-3.015-0.356-3.966,1.329c-1.173-2.412-2.904-2.772-4.815-1.086c-1.215,1.073-2.74,1.445-3.729,0.32
	c-1.385-1.577-1.167-1.762-2.938-0.255c-0.386,0.328-0.909,1.117-1.255,0.12c-0.607-1.747-2.428-1.29-3.179-1.179
	c-2.591,0.387-5.019,0.048-7.37-0.8c-1.587-0.572-2.92-0.656-4.12,0.58c-1.271,1.31-2.325,1.315-3.498-0.181
	c-0.753-0.961-1.751-2.336-2.944-2.043c-2.292,0.564-4.592-0.633-6.823,0.346c-0.575,0.252-1.516,0.47-1.917,0.184
	c-2.471-1.764-2.246,0.122-2.176,1.663c-1.891-0.225-1.638-2.748-3.416-2.812c-4.734-0.168-9.471-0.423-14.202-0.36
	c-1.576,0.021-3.122,0.345-4.662-0.216c-1.39-0.506-2.819-0.689-2.553-2.945c0.262-2.209-3.175,0.434-3.192-1.995
	c-0.002-0.16-0.129-0.321-0.122-0.479c0.117-2.656-1.068-4.127-3.725-4.757c-1.342-0.318-2.549-2.1-2.367-3.035
	c0.308-1.595-0.211-2.685-0.706-3.994c-1.816-4.803-4.934-9.083-5.755-14.28c-0.119-0.753-0.862-1.014-1.118-1.596
	c-0.5-1.136-1.935-1.753-1.883-3.132c0.08-2.147-0.475-3.94-2.129-5.426c-0.558-0.5-1.079-1.322-0.498-2.243
	c1.119-1.779,1.382-3.934,0.648-5.649c-1.269-2.964-1.237-5.89-1.215-8.974c0.019-2.467,1.25-4.863,0.998-7.055
	c-0.601-5.233,2.849-9.105,3.753-13.782c0.665-3.441,2.89-6.34,3.98-9.729c0.694-2.156,1.764-4.619,3.764-6.465
	c1.068-0.984,2.882-2.313,2.743-3.889c-0.202-2.296,0.986-3.644,2.292-4.958c1.14-1.147,1.953-2.334,2.599-3.844
	c0.908-2.122,2.266-4.196,4.407-5.241c1.287-0.628,2.121-1.396,2.879-2.544c1.667-2.527,2.383-5.885,6.062-6.753
	c0.569-0.135,2.1-1.233,1.765-2.197c-0.641-1.844,0.802-2.277,1.63-3.11c0.386-0.388,1.054-0.569,1.411,0.261
	c0.64,1.492,2.205,1.715,3.04,0.096c0.943-1.827,2.729-2.082,4.116-2.973c1.799-1.157,3.241-0.23,3.657,1.962
	c0.129,0.675,0.565,1.003,1.194,1.088c0.781,0.106,1.541,0.045,1.891-0.816c0.367-0.905,0.473-2.136,1.921-1.719
	c1.105,0.318,1.556,1.006,1.18,2.284c-0.275,0.935,0.694,1.234,1.403,1.416c0.956,0.245,1.169-0.499,1.155-1.189
	c-0.035-1.689,1.936-2.951,0.85-4.947c-0.402-0.739,0.705-1.375,1.467-1.073c1.879,0.746,2.429-0.238,2.64-1.781
	c0.121-0.88,0.819-1.451,1.102-2.189c0.576-1.502,2.228-3.054,0.32-4.713c-2.379-2.069-3.015-4.896-3.515-7.793
	c-0.106-0.618,0.105-1.224-0.711-1.677c-2.664-1.48-3.693-3.792-3.217-6.833c0.196-1.254,0.494-2.56-1.365-3.177
	c-0.638-0.212-1.126-1.284-1.83-1.885c-1.1-0.939-0.545-1.559,0.704-1.731c-0.049-0.146-0.053-0.362-0.153-0.425
	c-1.765-1.117-1.236-3.154-1.908-4.704c-0.245-0.566-0.198-1.528-1.096-1.414c-0.788,0.1-0.44,0.935-0.53,1.467
	c-0.072,0.419-0.158,0.928-0.638,0.953c-0.644,0.032-0.743-0.597-0.85-1.059c-0.148-0.644-0.033-1.392-0.315-1.952
	c-0.589-1.17-0.92-1.9,0.731-2.623c1.131-0.496,1.144-2.021-0.055-2.632c-2.149-1.098-2.427-2.43-1.057-4.252
	c0.888-1.182,0.594-2.34,0.03-3.492c-0.165-0.339-0.817-0.691-0.756-0.852c1.101-2.913-0.944-5.49-0.712-8.506
	c0.466-6.062-0.389-12.235,1.779-18.134c0.862-2.343,0.711-5.16,2.328-7.061c2.531-2.974,2.543-7.562,6.369-9.628
	c0.193-0.104,0.358-0.391,0.402-0.618c0.324-1.68,1.537-2.947,2.375-4.285c1.216-1.942,3.014-3.811,5.009-4.879
	c1.516-0.812,3.1-1.551,4.407-2.633c4.888-4.044,9.209-8.754,15.049-11.647c2.117-1.048,4.038-2.808,4.398-5.664
	c0.158-1.25,1.221-2.143,2.819-1.677c0.869,0.253,1.795,0.313,2.511,0.43c0.741-0.738-0.465-1.738,0.588-2.31
	c0.771,0.206,0.781,0.836,0.83,1.398c0.076,0.894,0.474,1.198,1.32,0.838c0.666-0.284,1.738-0.204,1.839-1.054
	c0.139-1.171-0.888-0.493-1.414-0.611c-1.235-0.277-1.267-1.079-0.558-1.805c0.916-0.936,1.924-0.879,2.711,0.303
	c0.353,0.532,0.594,1.407,1.436,1.055c0.888-0.371,0.248-1.095,0.186-1.716c-0.187-1.877,1.722-1.504,2.599-1.962
	c0.915-0.479,1.247,0.717,0.964,1.635c-0.177,0.573-0.216,1.028,0.533,1.004c1.519-0.049,3.375,1.391,4.401-1.727
	c0.211,2.967,1.973,2.708,3.351,2.716c1.887,0.011,2.447-1.354,2.642-3.021c0.075-0.648-0.531-2.025,0.933-1.73
	c1.033,0.208,1.553,1.231,1.344,2.373c-0.154,0.845-0.715,1.482-1.24,2.137c-0.336,0.419-1.652,0.276-0.915,1.296
	c0.455,0.63,1.038,1.361,2.06,1.113c2.06-0.5,4.106-1.064,6.186-1.46c1.305-0.249,1.764-0.771,1.231-2.04
	c-0.187-0.445-0.491-1.034,0.044-1.357c0.61-0.368,1.137,0.13,1.505,0.564c1.542,1.824,1.747,4.218,2.487,6.362
	c0.354,1.023-0.089,2.172,1.682,1.908c1.575-0.235,2.117-0.868,1.808-2.508c-0.206-1.096-0.544-2.428,0.597-3.43
	c0.861,0.541,0.463,1.335,0.729,1.893c0.299,0.623,0.215,1.757,1.165,1.64c0.875-0.107,1.246-1.04,1.282-1.926
	c0.019-0.491-0.159-0.987-0.165-1.481c-0.033-3.144-0.855-6.218-0.743-9.385c0.074-2.122,1.227-3.46,3.073-3.603
	c1.346-0.104,1.283-0.657,1.617-1.544c1.94-5.158-0.127-11.2,3.54-15.969c0.178-0.232,0.146-0.641,0.172-0.971
	c0.461-5.588,3.522-9.758,7.432-13.412c1.816-1.698,3.748-3.294,5.756-4.76c2.115-1.543,3.363-4.008,5.931-5.118
	c1.24-0.535,3.161-1.41,1.445-3.541c-0.39-0.483,0.262-1.068,0.71-1.441c0.767-0.64,1.553-1.258,2.351-1.858
	c0.877-0.66,1.641-1.195,2.224,0.426c0.413,1.149,1.389,0.689,2.047,0.14c0.562-0.469,1.68-0.732,1.121-1.886
	c-0.259-0.535-1.502-0.702-0.893-1.484c0.666-0.854,1.498,0.028,2.258,0.241c1.68,0.472,4.256-1.132,3.598-2.231
	c-0.982-1.639,0.553-1.928,0.99-1.998c1.215-0.194,1.768-1.222,2.714-1.648c0.901-0.406,2.086-3.186,2.852,0.177
	c0.106,0.469,0.863,0.428,1.346,0.227c1.545-0.645,2.78-1.591,2.654-3.468c-0.04-0.606-0.265-1.256,0.377-1.539
	c1.997-0.88,4.008-2.177,6.28-1.02c1.555,0.792,1.752-0.244,1.424-1.118c-0.753-2.006,0.475-2.542,1.885-3.042
	c1.639-0.581,3.332-1.02,4.936-1.681c2.324-0.958,4.566-2.24,6.916-0.04c0.523,0.49,1.334,0.401,1.881-0.006
	c0.81-0.603,0.093-1.157-0.238-1.687c-0.212-0.338-0.582-0.611-0.345-1.289c1.446,0.964,2.259-0.337,3.117-1.053
	c1.29-1.077,2.283,0.206,3.469,0.327c-0.099-0.657-0.169-1.118-0.241-1.602c0.858-0.208,0.836,1.147,1.663,0.791
	c0.284-1.783,3.417-2.708,4.943-1.475c1.703,1.376,3.309,0.967,4.79-0.518c1.223-1.227,2.458-3.127,4.179-3.172
	c5.517-0.145,10.667-2.195,16.097-2.698c1.664-0.154,3.183-0.212,4.338,1.169c1.003,1.2,2.2,0.3,2.272-0.317
	c0.252-2.132,1.677-2.367,3.184-2.238c1.634,0.14,3.062-1.036,4.502-0.762c1.707,0.325,3.287,1.326,4.919,2.042
	c0.429,0.188,0.886,0.705,1.311,0.157c1.083-1.394,1.894-0.97,2.723,0.256c0.713,1.055,1.472,0.516,1.53-0.314
	c0.189-2.677,1.739-2.617,3.668-2.101c0.909,0.244,1.826-0.123,2.716-0.1c4.264,0.112,8.789-0.379,11.571,4.009
	c0.381,0.601,0.91,0.753,1.487,0.681c4.221-0.532,6.923,2.585,10.136,4.343c1.942,1.063,3.643,2.575,5.791,3.351
	c1.235,0.446,2.711,0.696,3.473,1.836c1.521,2.274,3.445,3.716,6.103,4.581c2.985,0.971,4.453,4.068,6.901,5.928
	c1.36,1.033,2.482,2.561,4.122,3.396c0.883,0.45,1.794,0.779,2.399,1.697c2.555,3.875,6.764,5.934,10.106,8.95
	c1.933,1.742,4.206,3.15,5.923,5.158c1.456,1.704,4.182,2.183,4.642,4.832c5.684,1.635,7.816,7.022,11.406,10.856
	c1.931,2.062,4.563,3.469,5.814,6.177c0.077,0.167,0.433,0.279,0.663,0.289c3.39,0.131,4.206,2.631,5.428,5.212
	c1.189,2.516,3.159,4.877,5.955,5.844c1.925,0.667,2.79,1.375,2.357,3.536c-0.33,1.651,0.683,3.107,2.351,3.048
	c1.859-0.066,2.173,0.879,2.675,2.23c0.819,2.207,1.898,4.3,3.016,6.393c1.566,2.934,5.033,4.283,5.768,7.781
	c0.258,1.226,1.952,1.532,2.621,2.854c0.417,0.823,0.054,4.255,2.955,2.113c0.06-0.044,0.389,0.105,0.414,0.207
	c0.501,2.068,3.004,3.248,2.597,5.676c-0.196,1.17-0.028,2.044,1.163,2.404c-0.417,0.83-1.464,0.362-1.643,1.216
	c1.905,1.219,1.976,1.242,1.339,3.204c-0.317,0.979,0.106,1.045,0.851,1.304c2.097,0.731,4.921,0.303,5.646,3.379
	c0.102,0.432,0.604,0.652,1.016,0.379c1.374-0.915,2.183,0.049,2.976,0.888c0.929,0.982,1.768,1.351,3.267,0.931
	c1.957-0.549,4.155-0.893,4.999,2.063c0.307,1.072,1.725,2.259,2.719,1.667c1.754-1.046,2.782-0.047,4.021,0.649
	c1.444,0.812,2.504,0.844,2.813-1.146c0.057-0.368,0.278-0.812,0.836-0.66c0.534,0.676-0.75,1.819,0.447,2.175
	c0.99,0.295,1.574-0.639,2.256-1.263c2.146-1.969,2.593-5.731,6.354-6.029c0.303-0.024,0.61-0.546,0.837-0.89
	c0.775-1.172,1.975-1.644,3.166-2.281c2.511-1.341,4.903-2.958,6.608-5.322c0.843-1.167,1.578-1.806,2.606-0.272
	c0.389,0.58,0.823,1.089,1.562,1.106c1.948,0.046,3.752-0.676,5.586-1.176c1.345-0.366,1.089-1.708,1.339-2.718
	c0.126-0.508,0.365-0.967,0.953-1.006c0.489-0.033,0.811,0.307,0.807,0.76c-0.02,2.569,1.292,1.787,2.749,1.232
	c1.342-0.511,2.856-1.893,4.138-0.956c1.337,0.978,1.516,0.628,2.02-0.555c0.951-2.236,2.321-2.402,4.144-0.644
	c0.654,0.631,1.331,1.261,2.083,1.763c0.486,0.324,1.276,0.492,1.188-0.504c-0.078-0.874-0.792-1.88,0.873-1.892
	c1.467-0.01,1.491,0.895,1.39,2.026c-0.063,0.712,0.645,0.886,1.21,1.046c0.545,0.154,1.043,0.019,1.233-0.534
	c0.64-1.855,1.795-1.09,3.025-0.757c1.708,0.462,2.036,2.335,3.321,3.047c2.083,1.153,4.622,1.576,6.812,1.929
	c2.232,0.36,4.131,0.835,5.811,2.163c2.474,1.956,5.949,1.639,8.291,3.681c1.828,1.594,3.923,2.484,6.152,3.173
	c1.138,0.352,2.074,1.01,3.094,1.563c2.864,1.553,5.268,3.735,7.94,5.536c3.472,2.341,6.771,4.916,10.191,7.315
	c2.866,2.01,5.884,3.766,8.069,6.598c0.271,0.351,0.852,0.51,1.32,0.652c0.678,0.205,1.186,0.549,1.513,1.193
	c1.101,2.171,2.955,3.543,4.997,4.739c1.502,0.878,2.911,1.803,3.909,3.378c1.788,2.822,3.359,5.925,6.9,7.104
	c0.635,0.211,1.187,0.914,1.125,1.549c-0.31,3.211,1.894,4.032,4.283,4.82c1.864,0.615,2.937,1.898,2.613,3.98
	c-0.341,2.194,0.372,3.728,2.529,4.528c0.434,0.161,1.059,0.556,1.102,0.903c0.495,4.011,4.428,4.335,6.854,6.015
	c2.178,1.508,5.258,1.687,7.466,3.582c0.919,0.789,2.133,0.925,3.319,0.489c0.613-0.226,1.193-0.722,1.624,0.284
	c0.943,2.203,3.599,1.429,5.165,3.003c1.493,1.502,4.347,0.719,6.358,2.062c1.025,0.685,2.492,0.719,1.77-1.398
	c-0.196-0.576-0.466-1.264,0.368-1.397c0.877-0.14,2.013,0.37,1.759,1.247c-0.604,2.088,0.855,1.936,1.99,2.208
	c0.916,0.22,1.723,0.583,2.365,1.298c1.02,1.133,2.176,1.851,3.784,2.15c1.483,0.276,2.677,1.186,1.984,3.257
	c-0.503,1.505,0.696,2.98,1.92,2.969c2.362-0.023,2.795,2.033,3.001,3.08c0.373,1.894,1.498,3.001,2.466,4.419
	c1.448,2.124,3.878,3.375,5.059,5.521c0.901,1.639,1.984,3.035,3.19,4.361c0.753,0.828,1.455,1.556,1.507,2.745
	C967.623,356.246,968.511,355.249,969.184,354.944z"/>
<g>
	<path fill-rule="evenodd" clip-rule="evenodd" fill="#BBBBBB" d="M444.758,197.036c-0.427,0.194-0.99,0.826-1.037-0.285
		c-0.033-0.754-0.479-1.215-0.956-1.741c-0.765-0.841-1.451-1.726-2.022-2.765c-0.749-1.36-2.289-2.154-3.208-3.5
		c-0.613-0.899-1.326-1.602-1.563-2.802c-0.13-0.664-0.404-1.968-1.902-1.953c-0.775,0.007-1.536-0.928-1.217-1.882
		c0.438-1.313-0.318-1.89-1.259-2.065c-1.02-0.189-1.753-0.645-2.399-1.363c-0.407-0.453-0.919-0.684-1.499-0.823
		c-0.72-0.173-1.645-0.076-1.263-1.4c0.161-0.556-0.559-0.879-1.115-0.791c-0.528,0.084-0.357,0.521-0.233,0.886
		c0.459,1.342-0.472,1.32-1.121,0.886c-1.276-0.852-3.085-0.355-4.032-1.308c-0.993-0.998-2.677-0.507-3.274-1.904
		c-0.273-0.638-0.641-0.323-1.03-0.18c-0.752,0.277-1.521,0.19-2.104-0.31c-1.399-1.202-3.353-1.315-4.733-2.271
		c-1.538-1.065-4.031-1.271-4.346-3.813c-0.027-0.221-0.423-0.471-0.698-0.573c-1.367-0.508-1.819-1.48-1.604-2.872
		c0.205-1.319-0.475-2.133-1.657-2.523c-1.515-0.5-2.912-1.02-2.716-3.056c0.039-0.403-0.311-0.849-0.713-0.982
		c-2.245-0.748-3.241-2.715-4.375-4.504c-0.633-0.999-1.526-1.585-2.479-2.142c-1.295-0.758-2.471-1.628-3.169-3.005
		c-0.207-0.408-0.529-0.626-0.959-0.756c-0.297-0.09-0.665-0.191-0.837-0.414c-1.386-1.796-3.299-2.909-5.116-4.184
		c-2.169-1.521-4.261-3.153-6.462-4.638c-1.694-1.142-3.219-2.525-5.034-3.51c-0.646-0.351-1.24-0.768-1.962-0.991
		c-1.414-0.437-2.742-1.001-3.901-2.012c-1.484-1.294-3.688-1.094-5.256-2.334c-1.065-0.842-2.27-1.143-3.685-1.371
		c-1.389-0.224-2.999-0.492-4.319-1.223c-0.815-0.451-1.023-1.639-2.106-1.932c-0.779-0.211-1.513-0.696-1.918,0.479
		c-0.12,0.351-0.437,0.437-0.782,0.338c-0.358-0.101-0.807-0.211-0.767-0.663c0.064-0.717,0.049-1.291-0.881-1.285
		c-1.056,0.007-0.604,0.646-0.554,1.2c0.056,0.631-0.445,0.525-0.753,0.319c-0.477-0.318-0.906-0.717-1.321-1.118
		c-1.155-1.115-2.023-1.009-2.627,0.408c-0.319,0.75-0.433,0.972-1.28,0.352c-0.812-0.594-1.772,0.283-2.624,0.606
		c-0.924,0.352-1.755,0.848-1.742-0.781c0.002-0.288-0.201-0.503-0.512-0.482c-0.373,0.025-0.524,0.316-0.604,0.638
		c-0.158,0.641,0.004,1.491-0.849,1.723c-1.163,0.317-2.307,0.775-3.542,0.746c-0.468-0.011-0.743-0.334-0.99-0.702
		c-0.651-0.972-1.118-0.567-1.652,0.173c-1.081,1.499-2.598,2.523-4.19,3.374c-0.755,0.404-1.516,0.703-2.007,1.446
		c-0.144,0.217-0.339,0.549-0.531,0.564c-2.385,0.189-2.668,2.575-4.028,3.823c-0.433,0.396-0.803,0.988-1.431,0.801
		c-0.759-0.226,0.056-0.951-0.283-1.379c-0.354-0.097-0.494,0.185-0.53,0.418c-0.196,1.262-0.868,1.241-1.784,0.727
		c-0.785-0.441-1.437-1.075-2.549-0.412c-0.63,0.375-1.529-0.377-1.724-1.057c-0.535-1.875-1.929-1.656-3.17-1.309
		c-0.95,0.267-1.482,0.033-2.071-0.59c-0.503-0.532-1.015-1.143-1.886-0.563c-0.261,0.173-0.58,0.034-0.644-0.241
		c-0.46-1.951-2.251-1.679-3.58-2.143c-0.472-0.164-0.741-0.206-0.54-0.827c0.404-1.244,0.359-1.259-0.849-2.031
		c0.113-0.542,0.777-0.245,1.042-0.771c-0.755-0.229-0.862-0.783-0.738-1.524c0.258-1.54-1.329-2.288-1.646-3.599
		c-0.017-0.065-0.225-0.16-0.263-0.131c-1.84,1.358-1.609-0.818-1.874-1.34c-0.424-0.838-1.499-1.033-1.662-1.81
		c-0.466-2.218-2.664-3.073-3.657-4.934c-0.708-1.327-1.393-2.654-1.912-4.053c-0.318-0.856-0.517-1.456-1.696-1.414
		c-1.058,0.038-1.7-0.886-1.491-1.933c0.274-1.37-0.274-1.819-1.495-2.242c-1.772-0.613-3.021-2.11-3.776-3.706
		c-0.774-1.636-1.292-3.222-3.441-3.305c-0.146-0.006-0.371-0.078-0.42-0.183c-0.793-1.717-2.462-2.609-3.687-3.917
		c-2.276-2.431-3.628-5.846-7.232-6.883c-0.292-1.68-2.02-1.983-2.943-3.063c-1.089-1.273-2.53-2.166-3.755-3.271
		c-2.12-1.912-4.788-3.217-6.408-5.674c-0.384-0.582-0.961-0.791-1.521-1.076c-1.04-0.53-1.751-1.499-2.614-2.153
		c-1.552-1.179-2.483-3.143-4.376-3.759c-1.685-0.548-2.905-1.462-3.869-2.904c-0.483-0.723-1.418-0.881-2.202-1.164
		c-1.362-0.492-2.44-1.451-3.672-2.125c-2.037-1.115-3.75-3.091-6.426-2.754c-0.366,0.046-0.702-0.051-0.943-0.432
		c-1.764-2.782-4.633-2.471-7.336-2.542c-0.564-0.015-1.146,0.218-1.722,0.063c-1.223-0.327-2.206-0.365-2.326,1.332
		c-0.037,0.526-0.518,0.868-0.97,0.2c-0.525-0.778-1.04-1.047-1.726-0.163c-0.27,0.347-0.559,0.02-0.831-0.1
		c-1.035-0.454-2.037-1.088-3.119-1.295c-0.913-0.173-1.819,0.572-2.854,0.483c-0.956-0.082-1.859,0.067-2.019,1.419
		c-0.046,0.391-0.805,0.962-1.441,0.201c-0.732-0.876-1.695-0.839-2.75-0.742c-3.442,0.319-6.708,1.619-10.206,1.711
		c-1.091,0.028-1.874,1.233-2.649,2.011c-0.939,0.942-1.957,1.201-3.037,0.329c-0.968-0.782-2.954-0.195-3.134,0.935
		c-0.524,0.226-0.51-0.633-1.054-0.501c0.046,0.307,0.09,0.599,0.153,1.016c-0.752-0.077-1.381-0.89-2.199-0.208
		c-0.544,0.454-1.06,1.279-1.977,0.668c-0.15,0.43,0.084,0.603,0.219,0.817c0.209,0.336,0.664,0.687,0.151,1.069
		c-0.347,0.258-0.861,0.314-1.192,0.003c-1.49-1.395-2.912-0.582-4.385,0.025c-1.017,0.419-2.09,0.698-3.129,1.066
		c-0.894,0.317-1.672,0.657-1.195,1.928c0.208,0.554,0.083,1.21-0.903,0.709c-1.441-0.733-2.716,0.088-3.982,0.646
		c-0.407,0.179-0.265,0.592-0.239,0.976c0.08,1.19-0.703,1.79-1.683,2.199c-0.306,0.128-0.786,0.154-0.854-0.144
		c-0.485-2.132-1.236-0.37-1.808-0.112c-0.6,0.271-0.95,0.922-1.721,1.045c-0.277,0.044-1.25,0.227-0.627,1.267
		c0.417,0.697-1.216,1.713-2.281,1.415c-0.482-0.135-1.009-0.695-1.432-0.153c-0.386,0.496,0.402,0.602,0.566,0.941
		c0.354,0.731-0.354,0.898-0.711,1.196c-0.417,0.348-1.036,0.64-1.297-0.089c-0.37-1.028-0.854-0.688-1.41-0.27
		c-0.506,0.381-1.004,0.773-1.49,1.178c-0.284,0.237-0.697,0.607-0.45,0.914c1.088,1.351-0.13,1.906-0.917,2.245
		c-1.628,0.703-2.419,2.266-3.76,3.245c-1.273,0.93-2.498,1.942-3.649,3.019c-2.479,2.316-4.42,4.961-4.712,8.504
		c-0.017,0.209,0.003,0.468-0.109,0.616c-2.325,3.024-1.015,6.854-2.245,10.125c-0.212,0.562-0.172,0.913-1.025,0.979
		c-1.171,0.09-1.901,0.939-1.949,2.284c-0.071,2.008,0.45,3.957,0.471,5.951c0.004,0.313,0.117,0.628,0.105,0.939
		c-0.023,0.562-0.258,1.154-0.813,1.222c-0.603,0.074-0.549-0.645-0.739-1.04c-0.168-0.354,0.084-0.857-0.462-1.2
		c-0.723,0.635-0.509,1.48-0.378,2.175c0.196,1.04-0.147,1.44-1.146,1.59c-1.123,0.167-0.842-0.561-1.066-1.21
		c-0.469-1.359-0.599-2.877-1.577-4.034c-0.233-0.275-0.567-0.591-0.954-0.357c-0.339,0.205-0.146,0.578-0.028,0.86
		c0.337,0.805,0.046,1.136-0.781,1.293c-1.318,0.251-2.616,0.609-3.922,0.926c-0.647,0.157-1.018-0.306-1.306-0.706
		c-0.468-0.646,0.367-0.556,0.58-0.821c0.333-0.416,0.688-0.82,0.786-1.355c0.133-0.724-0.197-1.373-0.852-1.504
		c-0.928-0.187-0.543,0.686-0.591,1.097c-0.123,1.058-0.479,1.922-1.675,1.916c-0.874-0.005-1.991,0.159-2.125-1.722
		c-0.65,1.976-1.828,1.063-2.791,1.095c-0.475,0.015-0.45-0.273-0.338-0.637c0.179-0.582-0.031-1.34-0.611-1.036
		c-0.556,0.291-1.766,0.054-1.647,1.244c0.04,0.394,0.445,0.853-0.118,1.088c-0.534,0.224-0.687-0.332-0.91-0.669
		c-0.499-0.75-1.138-0.785-1.719-0.192c-0.449,0.46-0.43,0.969,0.354,1.145c0.333,0.075,0.984-0.355,0.896,0.388
		c-0.064,0.539-0.744,0.488-1.166,0.668c-0.537,0.228-0.789,0.035-0.837-0.531c-0.031-0.356-0.037-0.756-0.526-0.887
		c-0.667,0.363,0.097,0.997-0.373,1.465c-0.454-0.074-1.041-0.112-1.592-0.272c-1.014-0.295-1.688,0.271-1.788,1.063
		c-0.229,1.811-1.446,2.926-2.789,3.591c-3.703,1.834-6.443,4.82-9.542,7.385c-0.829,0.686-1.833,1.155-2.794,1.669
		c-1.265,0.677-2.405,1.862-3.176,3.094c-0.531,0.848-1.3,1.651-1.506,2.716c-0.028,0.145-0.132,0.326-0.255,0.392
		c-2.426,1.31-2.434,4.219-4.038,6.104c-1.025,1.205-0.93,2.991-1.477,4.477c-1.375,3.74-0.833,7.654-1.128,11.498
		c-0.147,1.913,1.149,3.546,0.451,5.393c-0.039,0.102,0.375,0.326,0.479,0.541c0.357,0.73,0.543,1.464-0.019,2.214
		c-0.869,1.155-0.693,2,0.67,2.696c0.76,0.387,0.751,1.354,0.035,1.668c-1.047,0.458-0.837,0.921-0.464,1.663
		c0.179,0.355,0.106,0.829,0.2,1.238c0.067,0.293,0.13,0.692,0.539,0.671c0.304-0.016,0.358-0.338,0.404-0.604
		c0.057-0.337-0.164-0.867,0.336-0.93c0.569-0.072,0.54,0.537,0.695,0.896c0.426,0.982,0.091,2.274,1.21,2.982
		c0.064,0.04,0.066,0.177,0.097,0.27c-0.792,0.109-1.144,0.502-0.446,1.098c0.446,0.381,0.756,1.061,1.16,1.195
		c1.179,0.392,0.99,1.22,0.866,2.015c-0.302,1.927,0.351,3.394,2.04,4.332c0.518,0.288,0.383,0.671,0.451,1.063
		c0.317,1.837,0.72,3.63,2.229,4.941c1.209,1.052,0.162,2.036-0.203,2.988c-0.179,0.468-0.622,0.83-0.698,1.388
		c-0.134,0.978-0.482,1.602-1.674,1.129c-0.483-0.191-1.185,0.212-0.93,0.681c0.689,1.266-0.561,2.066-0.539,3.137
		c0.009,0.438-0.126,0.909-0.732,0.754c-0.45-0.115-1.064-0.305-0.89-0.898c0.238-0.81-0.047-1.246-0.748-1.448
		c-0.918-0.265-0.985,0.516-1.218,1.09c-0.222,0.546-0.704,0.584-1.199,0.518c-0.399-0.054-0.676-0.262-0.757-0.69
		c-0.264-1.39-1.178-1.978-2.319-1.244c-0.88,0.565-2.012,0.727-2.61,1.885c-0.529,1.027-1.522,0.885-1.928-0.061
		c-0.227-0.526-0.65-0.411-0.895-0.165c-0.525,0.528-1.439,0.803-1.034,1.972c0.212,0.611-0.758,1.308-1.119,1.393
		c-2.333,0.55-2.786,2.68-3.843,4.282c-0.48,0.728-1.009,1.215-1.825,1.613c-1.358,0.663-2.219,1.978-2.794,3.323
		c-0.409,0.958-0.925,1.709-1.648,2.437c-0.828,0.833-1.581,1.688-1.453,3.144c0.088,0.999-1.062,1.842-1.739,2.466
		c-1.268,1.17-1.946,2.732-2.386,4.099c-0.691,2.149-2.102,3.987-2.524,6.168c-0.573,2.965-2.76,5.42-2.379,8.739
		c0.16,1.39-0.621,2.909-0.633,4.473c-0.014,1.955-0.034,3.81,0.771,5.689c0.465,1.088,0.298,2.454-0.411,3.582
		c-0.369,0.584-0.038,1.105,0.315,1.422c1.049,0.942,1.401,2.079,1.35,3.44c-0.033,0.875,0.876,1.266,1.194,1.986
		c0.162,0.369,0.633,0.534,0.708,1.012c0.521,3.295,2.498,6.009,3.649,9.054c0.314,0.831,0.643,1.521,0.448,2.533
		c-0.115,0.593,0.65,1.723,1.501,1.924c1.684,0.399,2.436,1.332,2.361,3.016c-0.004,0.1,0.076,0.202,0.078,0.303
		c0.011,1.54,2.19-0.136,2.024,1.265c-0.169,1.43,0.738,1.547,1.619,1.867c0.977,0.355,1.957,0.15,2.956,0.137
		c3-0.04,6.003,0.122,9.005,0.229c1.127,0.04,0.967,1.64,2.166,1.782c-0.044-0.977-0.187-2.172,1.38-1.054
		c0.254,0.181,0.851,0.043,1.215-0.117c1.415-0.62,2.873,0.139,4.326-0.219c0.757-0.186,1.39,0.686,1.867,1.295
		c0.744,0.949,1.413,0.945,2.218,0.115c0.761-0.784,1.606-0.73,2.612-0.368c1.491,0.537,3.03,0.752,4.673,0.507
		c0.476-0.07,1.63-0.36,2.016,0.748c0.219,0.632,0.551,0.132,0.795-0.076c1.123-0.956,0.985-0.838,1.863,0.162
		c0.626,0.713,1.594,0.478,2.364-0.203c1.212-1.069,2.31-0.841,3.053,0.688c0.603-1.069,1.414-1.176,2.515-0.843
		c0.716,0.217,1.61,0.141,2.347-0.07c1.136-0.325,2.166-0.918,2.842,0.7c0.197,0.471,0.966,0.395,1.276,0.062
		c1.18-1.262,2.762-0.944,4.126-0.941c3.3,0.009,6.6,0.105,9.902,0.006c1.741-0.052,3.488-0.04,5.225,0.074
		c0.817,0.054,1.689,0.037,2.083,1.251c0.271,0.838,1.241,0.671,1.753-0.102c0.719-1.085,1.637-1.196,2.876-1.07
		c1.969,0.2,4.007-0.159,5.728,1.251c0.364,0.299,0.961,0.136,1.299-0.263c0.741-0.875,1.837-0.698,2.771-0.98
		c0.702-0.213,1.002,0.358,1.331,0.864c0.426,0.654,0.898,1.397,1.49,0.093c0.234-0.516,0.866-0.273,0.896-0.086
		c0.238,1.486,1.394,0.625,1.959,0.637c1.073,0.023-0.452-0.773,0.154-1.043c1.966-0.342,3.619,1.018,5.542,0.998
		c0.534-0.005,1.078,0.181,1.427-0.363c0.729-1.136,1.864-1.04,2.947-0.943c1.767,0.16,3.511,0.075,5.271,0.014
		c1.692-0.059,3.539-0.872,5.309,0.16c0.561,0.326,1.439,0.212,2.266,0c1.614-0.414,3.265,0.369,4.958,0.212
		c2.091-0.193,4.162,0.633,6.291,0.313c0.733-0.111,1.325,0.32,1.776,0.875c0.808,0.996,1.618,1.212,2.679,0.286
		c0.91-0.794,1.934-1.033,3.228-0.67c1.483,0.416,3.154,0.096,4.481,1.21c0.242,0.202,0.81,0.239,0.968-0.185
		c0.172-0.461-0.154-0.802-0.62-0.917c-0.299-0.074-0.617-0.078-0.912-0.111c-0.051-0.272,0.135-0.323,0.263-0.311
		c5.027,0.499,10.095-0.45,15.094,0.336c1.588,0.249,3.024-0.5,4.488-0.245c2.624,0.458,5.313-0.588,7.898,0.456
		c0.306,0.124,0.754-0.046,1.052,0.213c0.537,0.467,0.771,0.779,1.522-0.04c0.641-0.7,2.01-0.254,2.927,0.24
		c0.744,0.402,1.162,0.605,1.841-0.201c0.671-0.795,1.835-0.928,2.801-0.572c1.866,0.688,3.665,0.529,5.517,0.022
		c0.703-0.192,1.463-0.221,2.173,0.132c0.428,0.212,0.923,0.47,1.362,0.219c1.074-0.61,1.787-0.303,2.312,0.729
		c0.439,0.865,1.14,0.516,1.616,0.184c1.778-1.24,3.762-0.659,5.667-0.752c0.229-0.011,0.614,0.116,0.677,0.276
		c0.243,0.619-0.741,0.483-0.73,1.092c0.643,0.225,1.541,0.183,1.749-0.219c0.656-1.268,1.528-0.854,2.406-0.541
		c0.834,0.298,1.652,0.18,2.498,0.149c0.891-0.032,1.793,0.152,2.614,0.55c0.917,0.445,1.745,1.164,2.896,0.452
		c0.187-0.116,1.573-0.582,1.08,0.895c-0.125,0.375,2.024,0.648,2.566,0.108c1.077-1.072,2.304-1.078,3.632-0.722
		c1.277,0.342,2.504,0.419,3.846,0.054c1.377-0.374,2.893-0.021,4.292,0.096c1.062,0.089,2.055,0.077,3.075-0.071
		c3.421-0.5,6.828-0.254,10.234,0.153c0.263,0.032,0.58,0.054,0.482,0.436c-0.345,1.345,0.82,0.907,1.349,1.073
		c0.771,0.241,0.782-0.364,0.818-0.946c0.042-0.647,0.602-0.645,1.082-0.64c0.682,0.007,1.452-0.053,2.027,0.122
		c2.243,0.683,4.546-0.381,6.758,0.38c0.664,0.229,1.355,0.108,2.041,0.003c0.797-0.123,1.583-0.206,2.052,0.718
		c0.26,0.511,0.594,0.543,1.147,0.194c2.025-1.284,4.296-1.018,6.435-0.54c1.399,0.312,2.642,0.487,3.992-0.051
		c1.031-0.411,2.114-0.734,3.14,0.134c0.344,0.291,0.79,0.329,1.16-0.013c1-0.925,1.812-0.192,2.206,0.526
		c0.481,0.88,1.208,0.947,1.657,0.533c1.572-1.45,3.521-1.243,5.34-1.312c1.816-0.068,3.705-0.383,5.479,0.333
		c0.861,0.347,1.191-0.642,2.01-0.618c1.013,0.029,1.835,0.146,2.556,0.891c0.469,0.484,0.838,0.679,1.512-0.027
		c0.931-0.977,2.368-0.729,3.592-0.64c0.658,0.048,1.213,0.176,1.765-0.266c0.492-0.394,1.108-0.47,1.658-0.28
		c0.598,0.208,1.016,0.126,1.587-0.161c0.875-0.438,1.598,0.225,2.286,0.714c1.742,1.237,1.802,1.246,2.839-0.478
		c0.358-0.595,0.729-0.712,1.277-0.328c0.518,0.363,1.027,0.738,1.543,1.103c0.27,0.19,0.663,0.392,0.817,0.022
		c0.882-2.116,2.832-1.514,4.299-1.458c1.771,0.067,3.646-0.816,5.359,0.349c0.106,0.072,0.482-0.159,0.673-0.32
		c0.893-0.754,1.89-0.52,2.617,0.042c0.893,0.691,1.812,0.685,2.815,0.756c1.24,0.087,1.764-0.616,2.258-1.576
		c0.199-0.388,0.714-0.951,1.142-0.032c0.231,0.5,0.65,0.212,0.958,0.092c1.157-0.453,2.341-0.659,3.566-0.413
		c0.794,0.159,2.082-0.776,2.187,1.042c0.024,0.425,2.7-0.023,2.791-0.539c0.043-0.25,0.081-0.413,0.329-0.424
		c2.004-0.084,3.829-0.9,5.965-0.88c2.604,0.025,5.465,0.4,8.022-0.872c0.688-0.343,1.305-0.028,1.949,0.28
		c1.397,0.667,2.816,1.314,4.181-0.151c0.375-0.403,0.97-0.376,1.505-0.315c0.362,0.042,0.845,0.014,0.968,0.405
		c0.189,0.608-0.685,0.295-0.778,0.752c1,0.163,1.9,0.139,2.53-0.828c0.404-0.621,1.106-0.773,1.689-0.494
		c1.007,0.481,1.943,0.298,2.912,0.016c1.217-0.354,2.12,0.354,3.066,0.901c0.4,0.231,0.717,0.796,0.854-0.271
		c0.094-0.734,2.126-0.824,2.779-0.097c0.649,0.721,1.048,0.718,1.965,0.24c0.893-0.466,2.31-1.436,3.134,0.516
		c0.254,0.599,1.173,0.536,1.847,0.207c-0.033-0.692-0.93-0.19-1.019-0.897c1.329-0.06,2.538-1.433,3.963-0.212
		c1.802-1.153,2.847,0.497,4.182,1.109c0.674,0.308,1.17,0.049,1.573-0.612c0.694-1.139,1.922-1.188,2.645-0.089
		c0.496,0.754,0.703,0.889,1.279,0.022c0.668-1.004,2.344-0.648,3.423,0.612c0.523-0.127,0.288-0.936,0.884-0.995
		c0,4.438,0,8.877,0,13.316c-0.566-0.026-1.433-0.387-0.759,0.811c0.58,1.031-0.335,1.042-0.898,1.035
		c-1.069-0.015-2.146-0.449-3.162,0.305c-0.227,0.168-0.637,0.018-0.824-0.289c-0.162-0.264-0.072-0.532,0.179-0.683
		c0.897-0.541,0.262-0.677-0.219-0.824c-1.198-0.368-2.395-1.01-2.762,1.102c-0.181,1.042-2.067,1.244-3.682,0.583
		c-0.663-0.271-1.225-0.707-2.04-0.131c-0.593,0.417-0.595-0.275-0.585-0.672c0.023-0.904-0.504-1.231-1.298-1.222
		c-1.486,0.018-2.96-0.319-3.833,1.659c-0.392,0.888-1.946,0.649-2.962-0.01c-0.386-0.25-0.644-0.765-1.151,0.087
		c-0.501,0.842-4.228,0.656-4.983-0.068c-0.148-0.143-0.312-0.447-0.423-0.426c-1.172,0.215-2.359-0.722-3.556,0.127
		c-0.37,0.262-0.529,0.213-0.485,0.804c0.053,0.732-1.588,0.83-2.352,0.133c-1.2-1.093-1.205-1.096-1.885,0.422
		c-0.105,0.235-0.265,0.316-0.489,0.301c-0.354-0.024-0.539-0.267-0.718-0.548c-0.97-1.53-2.164-1.745-3.508-0.626
		c-0.729,0.605-1.29,0.95-2.482,0.955c-1.26,0.005-2.806,0.124-4.138,0.569c-0.785,0.263-1.348,0.425-1.882-0.423
		c-0.363-0.577-1.037-0.496-1.576-0.201c-2.393,1.312-2.566,1.312-4.463-0.251c0.08,1.518-0.359,1.887-2.084,1.524
		c-0.798-0.168-1.468-0.282-2.257,0.146c-0.879,0.476-1.719,0.331-2.222-0.742c-0.39-0.832-1.055-1.359-2.044-1.07
		c-0.809,0.235-2.052-0.001-1.79,1.55c0.066,0.389-0.316,0.635-0.707,0.737c-0.949,0.248-3.337-0.768-3.796-1.616
		c-0.505,1.464-0.505,1.464-1.85,0.491c-0.97-0.702-3.995-0.473-4.102,0.472c-0.134,1.2-0.388,1.505-1.497,1.407
		c-0.759-0.067-1.365-0.301-1.633-1.023c-0.514-1.386-1.717-1.201-2.184-0.441c-1.181,1.918-2.188,1.933-3.516-0.179
		c-0.184,0.978,0.143,1.838-0.83,1.971c-0.924,0.126-0.926-0.595-1.152-1.176c-0.297-0.758-1.672-0.667-2.226,0.12
		c-1.184,1.678-2.238,2.035-3.912,1.007c-1.001-0.614-1.61,0.565-2.266,0.293c-0.631-0.261-0.262-1.497-1.274-1.797
		c-1.393-0.413-3.385,0.426-3.946,1.805c-0.338,0.829-2.162,0.91-2.789,0.035c-0.597-0.834-1.034-1.326-1.578-0.015
		c-0.188,0.454-0.571,0.599-1.019,0.615c-1.727,0.06-3.447,0.095-5.014-0.828c-0.374-0.22-0.803-0.352-1.21-0.126
		c-1.031,0.573-1.683,0.537-2.094-0.798c-0.263-0.854-0.678-0.042-1.024,0.167c-0.784,0.47-1.704,2.032-2.228-0.229
		c-0.054-0.234-0.299-0.297-0.507-0.169c-0.337,0.207-0.315,0.503-0.156,0.825c0.151,0.306,0.559,0.63,0.1,0.959
		c-0.4,0.287-0.815,0.111-1.163-0.168c-1.092-0.876-2.716-0.7-3.644-2.053c-0.441-0.645-1.429-0.096-1.995,0.351
		c-0.913,0.723-1.747,0.684-2.789,0.266c-0.841-0.337-1.918-1.217-2.617,0.36c-0.187,0.421-0.634,0.194-0.969-0.012
		c-1.15-0.712-2.257-1.069-3.658-0.408c-0.744,0.351-1.761,0.044-2.563-0.457c-1.251-0.78-2.491-0.665-3.735,0.05
		c-1.697,0.973-2.31,0.86-4.031-0.332c-0.399-0.277-1.259-0.321-1.504,0.293c-0.671,1.682-1.918,1.238-3.156,1.119
		c-0.01-0.728,0.851-0.728,0.873-1.332c-0.187-0.398-0.57-0.344-0.793-0.168c-0.705,0.559-1.389,0.435-2.213,0.275
		c-1.948-0.378-3.654,0.827-5.529,1.073c-0.996,0.131-3.09-0.539-3.393-1.346c-0.612,0.4-1.221,0.797-1.828,1.197
		c-0.709,0.467-1.235,0.683-2.027-0.135c-0.87-0.897-2.196-0.467-3.111,0.062c-1.844,1.067-3.547,0.47-5.305-0.056
		c-0.142-0.042-0.245-0.222-0.388-0.259c-1.595-0.42-1.596-0.416-2.162-1.815c-0.4,0.608-0.216,1.43-0.863,1.829
		c-0.336,0.207-0.689,0.368-1.023,0.115c-0.366-0.277-0.073-0.565,0.113-0.807c0.349-0.454,0.721-0.948-0.154-1.174
		c-0.886-0.228-1.852-0.755-2.668,0.103c-0.274,0.288-0.005,0.573,0.393,0.613c0.362,0.037,0.758,0.008,0.946,0.54
		c-0.54,0.594-1.272,0.604-2.004,0.568c-0.517-0.024-0.812-0.083-0.675-0.852c0.167-0.932-0.457-1.545-1.471-1.657
		c-1.922-0.212-3.873-0.09-5.781-0.492c-0.45-0.095-0.783,0.199-1.038,0.582c-0.853,1.279-1.867,1.365-2.886,0.235
		c-0.227-0.251-0.446-0.49-0.789-0.416c-0.837,0.181-1.388-0.218-1.934-0.783c-0.347-0.36-0.855-0.416-1.324-0.16
		c-0.371,0.202-0.473,0.546-0.403,0.948c0.124,0.694,0.74,0.375,1.15,0.524c-1.051,0.597-1.333,0.573-1.504-0.375
		c-0.272-1.516-0.584-1.483-1.511-0.34c-0.276,0.341-1.552,1.908-1.989-0.313c-0.163-0.826-1.222-0.933-2.38-0.889
		c0.888,0.744,1.706,1.236,2.051,2.522c-1.508-0.549-3.209-0.659-3.959-1.561c-1.165-1.399-2.178-0.839-3.264-0.44
		c-0.745,0.273-1.413,0.312-2.153,0.166c-1.099-0.218-2.059-0.509-3.242,0.321c-0.832,0.583-2.198-0.375-3.391-0.394
		c-1.413-0.022-2.821-0.346-4.232-0.538c-0.208-0.028-0.525-0.151-0.611-0.06c-1.137,1.204-2.537,0.35-3.667,0.238
		c-1.943-0.192-2.907,1.189-4.344,1.841c-0.587-0.378-0.042-1.074-0.402-1.691c-1.104,1.039-2.693,0.03-3.852,0.996
		c-0.146,0.122-0.457,0.074-0.563,0.208c-0.276,0.346-0.357,1-1.01,0.7c-0.613-0.282-0.052-0.729-0.055-1.102
		c-0.01-1.035-0.861-1.16-1.446-0.93c-1.093,0.431-2.125,0.094-3.185,0.112c-1.238,0.021-2.639-0.513-3.517,1.003
		c-0.249,0.429-0.851,0.336-1.267-0.038c-0.779-0.701-1.673-0.783-2.667-0.593c-0.726,0.14-1.441,0.013-2.178-0.19
		c-1.158-0.319-2.551-1.228-3.047,0.975c-0.157,0.694-0.908,0.437-1.46,0.088c-2.124-1.341-4.563-1.573-6.965-1.921
		c-0.85-0.123-1.124,0.185-0.62,0.969c0.188,0.293,0.238,0.566-0.118,0.809c-0.646,0.439-3.588-0.39-3.789-1.15
		c-0.215-0.819-0.703-1.302-1.449-1.008c-0.921,0.363-2.486-1.044-2.792,0.986c-0.051,0.339-0.296,0.736-0.565,0.675
		c-1.364-0.306-2.824,0.576-4.096-0.261c-0.658-0.433-1.264-0.55-1.924-0.241c-1.373,0.642-2.906,0.336-4.307,0.789
		c-0.465,0.15-0.795,0.051-0.922-0.529c-0.126-0.577-0.554-0.566-0.977-0.289c-0.247,0.162-0.1,0.892-0.701,0.531
		c-0.403-0.242,0.125-0.688-0.098-1.017c-1.909,1.154-1.909,1.154-2.652-1.319c-0.404,1.609-1.116,2.647-2.921,2.387
		c0.205-0.72,1.676-1.312,0.29-2.118c-0.349-0.202-0.819-0.305-0.81,0.268c0.032,1.805-1.252,1.857-2.502,1.984
		c-0.261,0.026-0.538,0.046-0.79-0.011c-0.515-0.118-1.384,0.344-1.478-0.389c-0.086-0.671,0.69-0.521,1.219-0.548
		c0.452-0.023,0.753-0.448,0.748-0.888c-0.004-0.425-0.422-0.644-0.792-0.632c-0.867,0.028-1.876-0.449-2.494,0.632
		c-0.219,0.384-0.438,0.03-0.635-0.072c-0.503-0.258-1.002-0.496-1.277,0.264c-0.243,0.673-0.692,0.517-1.152,0.314
		c-0.386-0.17-0.756-0.377-1.144-0.545c-0.435-0.188-0.966-0.469-1.295,0.029c-0.386,0.585,0.253,0.791,0.595,1.08
		c0.158,0.134,0.309,0.276,0.763,0.684c-1.247,0.022-2.194,0.475-2.697-0.884c-0.131-0.352-0.663-0.626-0.928-0.427
		c-1.892,1.419-3.438-0.471-5.178-0.544c-1.069-0.045-2.167-0.313-3.276-0.267c-0.731,0.031-1.569,0.808-2.135-0.386
		c-0.123-0.259-0.596,0.012-0.834,0.209c-0.496,0.412-0.998,0.477-1.485-0.024c-0.334,0.731,0.774,1.14,0.142,1.708
		c-0.535,0.48-1.175,0.126-1.779,0.139c-1.697,0.034-2.372-1.688-3.951-1.981c-1.919-0.357-3.15-0.101-4.014,1.657
		c-0.351,0.714-0.651,0.743-1.079-0.089c-0.337-0.657-0.463-0.714-1.107-0.261c-2.197,1.547-4.625,0.666-6.978,0.476
		c-0.089-0.007-0.205-0.103-0.247-0.188c-0.896-1.821-1.86-1.704-3.077-0.24c-0.416,0.5-1.248,0.511-1.944,0.538
		c-0.76,0.028-1.323-0.092-0.873-1.062c0.352-0.759-0.105-1.169-0.734-1.236c-0.698-0.074-1.508-0.172-1.99,0.571
		c-0.076,0.117,0.029,0.42,0.14,0.57c0.155,0.21,0.368,0.105,0.544-0.042c0.355-0.298,0.75-0.469,1.113-0.063
		c0.211,0.237,0.016,0.497-0.163,0.698c-0.36,0.405-0.797,0.868-1.345,0.532c-0.611-0.375-1.265-0.844-1.619-1.439
		c-0.677-1.142-1.552-1.459-2.292-0.441c-0.895,1.229-1.706,1.34-2.883,0.45c-0.606-0.459-1.347-0.892-2.182-0.31
		c-0.147,0.102-0.565,0.11-0.582,0.064c-0.619-1.74-1.25-0.313-1.833,0.04c-1.151-1.798-2.026-1.846-3.291-0.219
		c-0.206,0.263-0.417,0.568-0.755,0.397c-0.409-0.207-0.178-0.521,0.008-0.787c0.398-0.57,0.042-0.788-0.448-0.825
		c-0.882-0.067-1.724-0.166-2.528,0.537c-0.73,0.639-1.701,1.293-2.261-0.345c-0.208-0.609-0.631-0.434-0.898,0.051
		c-0.174,0.318-0.319,0.653-0.567,1.167c-1.352-2.121-2.989-0.851-4.497-0.509c-0.874,0.198-1.576,0.716-1.284-0.836
		c0.198-1.055-0.679-0.804-1.104-0.544c-4.638,2.834-9.479,1.638-14.222,0.578c-2.047-0.457-3.984-1.489-6.078-1.944
		c-0.493-0.107-1.009-0.211-1.257-0.822c-0.623-1.536-1.948-1.735-3.373-1.59c-0.368,0.037-0.762,0.223-1.06-0.031
		c-2.5-2.125-5.75-2.814-8.567-4.348c-2.175-1.184-4.192-2.629-6.375-3.795c-0.917-0.489-1.529-1.494-2.757-1.547
		c-0.462-0.02-0.455-0.537-0.521-0.991c-0.163-1.113-0.896-1.994-1.517-2.896c-0.367-0.534-0.904-0.407-1.427-0.172
		c-0.307,0.138-0.63,0.109-0.866-0.169c-0.295-0.349-0.208-0.727,0.07-1c0.782-0.767,0.733-1.378-0.136-2.078
		c-0.378-0.305-0.536-0.894-0.771-1.366c-0.624-1.256-1.135-2.631-3.175-2.408c0.706-0.792,1.263-0.34,1.773-0.32
		c0.252,0.01,0.556,0.15,0.691-0.16c0.126-0.287-0.075-0.545-0.31-0.654c-1.322-0.615-1.369-2.575-3.166-2.833
		c-0.548-0.079-0.088-1.022,0.448-1.328c0.598-0.34,1.244-0.609,1.679-1.162c0.608-0.769,0.31-1.545-0.194-2.176
		c-0.495-0.621-0.92,0.056-1.356,0.257c-0.396,0.184-0.74,0.886-1.188,0.43c-0.404-0.41,0.235-0.82,0.405-1.232
		c0.114-0.278,0.416-0.494,0.271-0.857c-0.302-0.191-0.479,0.079-0.692,0.192c-0.386,0.206-0.729,0.195-0.927-0.233
		c-0.209-0.452-0.053-0.738,0.391-1.029c1.604-1.052,1.807-3.147,0.458-4.461c-0.166-0.162-0.471-0.236-0.715-0.244
		c-0.252-0.01-0.507,0.128-0.767,0.169c-0.779,0.125-1.966,0.107-2.036-0.521c-0.124-1.119,1.017-0.853,1.782-0.862
		c0.361-0.004,0.721-0.08,1.401-0.161c-1.083-0.694-0.896-1.479-0.723-2.324c0.201-0.984,0.133-0.998-1.79-3.109
		c1.795-0.958,1.622-3.539-0.46-6.726c0.528-0.416,0.785,0.624,1.22,0.261c0.405-0.338,0.173-0.896,0.256-1.35
		c0.084-0.467,0.229-0.944,0.199-1.407c-0.062-0.929-0.164-1.902-1.559-1.505c-0.801,0.228-0.973-0.239-0.801-0.866
		c0.359-1.31,1.108-2.46,1.119-3.934c0.009-1.178,0.86-0.636,1.79,0.07c-0.923-1.576-0.805-2.621,0.426-3.506
		c0.59-0.424,0.451-1.293,0.481-1.945c0.13-2.743,2.179-4.668,2.929-7.146c0.738-2.438,2.283-4.461,3.688-6.543
		c0.479-0.71,0.899-1.428,0.878-2.33c-0.006-0.257,0.001-0.636,0.158-0.755c1.421-1.083,1.407-3.215,3.157-4.122
		c0.792-0.409,1.223-1.439,1.486-2.339c0.278-0.951,0.784-1.704,1.427-2.419c0.832-0.924,1.825-1.677,2.32-2.928
		c0.675-1.707,2.687-2.104,3.743-3.631c2.043-2.954,5.146-4.972,7.526-7.658c0.969-1.094,2.151-1.886,3.398-2.561
		c1.192-0.646,1.527-1.211,0.87-2.602c-0.995-2.101-1.621-4.376-2.383-6.585c-0.215-0.624,0.074-1.102,0.524-1.547
		c0.762-0.753,0.379-1.583-0.393-1.692c-1.603-0.226-1.06-1.58-1.403-2.376c-0.352-0.815-0.354-1.882,0.442-2.66
		c0.261-0.256,0.559-0.487,0.76-0.784c0.083-0.122,0.012-0.42-0.087-0.578c-0.135-0.217-0.386-0.169-0.527,0.013
		c-1.224,1.572-1.611,0.12-2.287-0.52c0.446-0.485,0.885-0.091,1.275-0.198c0.329-0.089,0.748-0.468,0.615-0.586
		c-1.195-1.057,0.082-1.402,0.454-2.062c0.104-0.185,1.061-1.489-0.666-1.205c-0.526,0.087-0.473-0.944-0.11-1.436
		c0.695-0.942,0.822-1.689-0.433-2.258c-0.494-0.224-0.479-0.771-0.524-1.249c-0.148-1.553,0.278-3.028,0.638-4.503
		c0.431-1.771,0.641-3.522-0.032-5.272c-0.231-0.603-0.391-1.126-0.016-1.789c0.76-1.34-0.175-3.129,1.102-4.393
		c0.231-0.229-0.077-0.573-0.308-0.808c-0.219-0.223-0.237-0.627,0.065-0.615c1.306,0.052,1.189-1.046,1.395-1.745
		c1.269-4.317,4.201-7.601,6.766-11.118c0.893-1.225,1.969-2.286,2.662-3.704c0.415-0.852,1.992-1.038,2.296-2.016
		c0.442-1.423,1.576-2.098,2.491-3.018c1.503-1.513,3.497-2.653,4.706-4.269c1.191-1.592,3.599-1.86,4.019-4.077
		c0.033-0.174,0.264-0.429,0.422-0.444c1.711-0.167,2.459-1.627,3.597-2.578c0.757-0.634,1.646-0.892,2.533,0.003
		c0.432,0.436,1.037,0.823,1.696,0.298c0.585-0.467,0.377-1.006,0.12-1.568c-0.341-0.744-0.127-1.279,0.609-1.707
		c0.914-0.53,1.546-0.114,2.047,0.545c0.41,0.539,0.606,1.285,1.492,1.167c0.766-0.102,1.728,0.038,0.981-1.343
		c-0.605-1.118-0.141-2.042,1.129-2.452c0.301-0.097,0.674-0.13,0.884-0.33c1.191-1.13,2.253-1.941,2.942,0.446
		c0.135,0.468,0.733,0.285,1.134,0.14c0.417-0.151,0.792-0.359,0.631-0.917c-0.345-1.208,0.067-1.305,1.214-1.104
		c1.149,0.201,1.506-1.187,2.339-1.749c0.651,0.163,0.294,0.996,1.064,1.334c1.945,0.854,2.121-0.934,2.656-1.705
		c0.911-1.314,1.54-2.337,2.979-0.663c0.051,0.059,0.24,0.097,0.259,0.07c1.254-1.767,1.167,0.606,1.944,0.6
		c-0.302-2.688,1.631-4.418,2.787-6.498c0.229-0.412,0.648-0.955,0.533-1.28c-0.572-1.625,0.721-2.121,1.514-3.053
		c1.178-1.385,1.944-3.083,2.619-4.785c0.151-0.38,0.056-0.935,0.419-1.158c2.02-1.239,2.7-3.653,4.507-5.066
		c0.125-0.097,0.293-0.18,0.354-0.311c0.578-1.233,1.421-2.146,2.614-2.89c1.761-1.098,2.939-2.823,4.161-4.486
		c0.922-1.254,2.491-1.673,3.742-2.507c1.254-0.835,2.942-1.588,3.666-2.548c1.336-1.773,2.463-1.991,4.292-1.312
		c0.359,0.133,0.981-0.305,1.427-0.571c0.761-0.454,1.251-0.96-0.007-1.459c-0.309-0.123-0.824-0.244-0.656-0.724
		c0.077-0.22,0.48-0.377,0.765-0.463c0.657-0.199,1.235-0.438,1.796-0.909c0.747-0.628,1.332,0.69,2.225,0.393
		c0.079-1.464,0.507-2.334,2.319-1.504c1.059,0.485,2.432-0.623,2.49-1.954c0.034-0.771,0.23-0.853,0.879-0.799
		c1.432,0.118,2.465-0.334,3.146-1.783c0.565-1.202,2.117-1.369,3.351-0.888c0.959,0.374,1.925,0.04,2.601-0.771
		c1.09-1.309,2.145-2.611,4.547-0.834c-1.273-2.134-0.145-2.483,0.99-2.617c1.168-0.138,2.35-0.876,3.549,0.324
		c0.58,0.581,1.411-0.04,1.188-0.921c-0.244-0.96,0.241-1.152,0.916-1.235c1.921-0.238,3.788-0.66,5.57-1.439
		c0.215-0.094,0.702-0.078,0.746,0.024c0.789,1.826,1.394,0.17,1.939-0.149c1.155-0.676,2.266-1.277,3.686-1.106
		c1.246,0.15,2.355-0.065,3.6-0.662c1.541-0.739,3.418-0.941,5.21-0.978c0.668-0.013,0.958,0.554,1.294,1.039
		c0.716,1.034,1.484,1.015,2.327,0.102c1.925-2.084,2.284-2.156,4.774-1.022c0.324,0.147,0.594,0.202,0.876-0.025
		c1.795-1.442,3.855-1.192,5.902-0.884c1.004,0.151,1.995,0.208,2.983,0.013c1.404-0.277,2.718-0.115,3.981,0.576
		c0.932,0.511,2.036,0.098,3.024,0.575c2.228,1.077,4.847-0.825,7.071,0.89c0.552,0.426,1.354,0.561,1.855,1.144
		c0.575,0.668,1.445,0.957,2.151,0.73c1.162-0.373,1.908,0.112,2.722,0.727c1.105,0.835,2.229,1.322,3.754,1.292
		c1.461-0.029,2.942,0.67,4.104,1.753c0.263,0.246,0.644,0.67,0.862,0.612c1.669-0.45,2.524,0.583,3.374,1.696
		c0.088,0.116,0.263,0.219,0.406,0.233c1.7,0.163,2.931,1.747,4.743,1.557c0.411-0.043,0.551,0.213,0.616,0.556
		c0.099,0.521,0.139,1.077,0.78,0.289c0.343-0.422,0.917-0.196,1.094,0.145c1.101,2.119,3.455,2.693,5.027,4.191
		c1.742,1.659,3.793,2.87,5.811,4.056c0.662,0.389,1.786,0.667,2.735,0.816c0.94,0.147,1.381,0.628,1.442,1.562
		c0.084,1.306,0.846,2.1,2.015,2.593c0.376,0.158,0.666,0.235,1.004-0.068c0.894-0.799,2.114-0.493,2.428,0.694
		c0.164,0.62,0.24,0.857,0.988,0.812c1.147-0.069,1.846,0.949,1.643,2.125c-0.345,2.004,0.909,3.191,2.911,2.754
		c1.271-0.277,2.585,0.935,2.299,2.15c-0.048,0.205-0.203,0.418-0.042,0.582c0.971,0.997,1.513,2.373,2.66,3.244
		c0.454-0.459,0.064-0.644-0.082-0.879c-0.28-0.451-1.219-0.85-0.682-1.35c0.491-0.457,1.419-0.217,2.048,0.262
		c1.253,0.957,2.069,2.26,2.574,3.714c0.262,0.756,0.528,1.083,1.391,1.113c1.509,0.054,2.493,1.057,2.61,2.47
		c0.184,2.229,1.493,3.645,3,5.011c0.385,0.349,0.773,0.455,1.3,0.326c1.06-0.259,2.114,0.592,1.694,1.526
		c-0.596,1.327,0.352,1.249,0.969,1.332c1.369,0.185,2.666,0.475,3.758,1.377c0.078,0.064,0.265,0.074,0.276,0.132
		c0.365,1.976,2.831,2.094,3.434,4.019c0.375,1.2,1.95,1.687,2.841,2.705c1.07,1.222,2.103,2.339,2.135,4.075
		c0.01,0.491,0.557,0.423,0.877,0.495c1.105,0.249,1.392,1.266,2.052,1.929c1.363,1.371,0.438,3.755,2.431,4.74
		c0.585,0.289-0.265,1.2,0.378,1.862c0.389-1.361,1.183-1.384,2.265-0.861c0.5,0.241,1.222-0.254,1.658-0.164
		c1.808,0.372,2.695-1.172,4.049-1.657c1.409-0.505,2.975-0.498,4.356-1.242c0.95-0.512,0.677,0.442,0.799,1.001
		c1.55-1.303,3.316-0.879,5.008-0.856c0.575,0.008,1.205,0.267,1.701-0.071c1.441-0.983,2.948-0.882,4.361-0.161
		c1.774,0.906,3.427-0.225,5.168-0.1c1.532,0.11,2.751,0.696,3.9,1.476c0.671,0.456,1.156,0.552,1.861,0.25
		c1.417-0.605,2.668-0.585,3.456,1.039c0.201,0.415,0.474,0.931,0.938,0.054c0.398-0.753,1.011-0.122,1.261,0.182
		c1.305,1.585,3.079,1.667,4.893,1.687c1.077,0.012,1.988,0.314,2.937,0.933c1.169,0.763,2.746,0.505,4.045,1.182
		c1.351,0.704,2.859,1.105,4.037,2.139c0.433,0.379,0.96,0.417,1.491,0.411c0.787-0.008,1.439,0.255,1.961,0.857
		c0.573,0.661,1.16,1.255,2.164,0.715c0.392-0.211,0.693,0.055,0.888,0.425c0.827,1.573,2.06,2.077,3.817,1.665
		c1.421-0.333,2.913,0.944,3.025,2.545c0.809-0.752,1.351-0.787,1.84,0.332c0.646,1.479,1.972,2.126,3.533,1.59
		c1.878-0.646,2.664,0.774,3.807,1.591c0.269,0.193,0.183,0.327-0.03,0.452c-0.492,0.29-0.536,0.633-0.102,0.994
		c0.379,0.314,0.78,0.467,1.31,0.254c2.092-0.844,2.447-0.595,2.198,1.601c0.561,0,1.681-0.684,1.158,0.881
		c-0.185,0.553,1.868,1.294,2.509,0.823c0.576-0.423,0.981-0.664,1.641-0.118c0.607,0.503,0.423,0.72,0.081,1.335
		c-0.388,0.696,0.309,1.349,0.933,1.8c0.573,0.416,1.142,0.838,1.774,0.062c0.658-0.807,1.226-0.507,1.829,0.131
		c0.826,0.873-0.418,0.901-0.627,1.289c0.604,0.65,1.048,0.156,1.529,0.053c0.884-0.188,1.481,0.174,1.02,1.084
		c-0.583,1.152,0.183,1.635,0.806,2.264c0.799,0.808,1.303-0.133,2.001-0.364c0.456,0.417-0.077,2.15,1.483,1.23
		c0.175-0.103,0.252,0.357,0.242,0.628c-0.066,1.833,1.299,3.036,2.965,2.517c2.136-0.666,2.54,1.08,3.428,2.254
		c-0.517,0.371-1.355-0.315-1.566,0.477c-0.204,0.763,0.531,1.094,1.033,1.424c1.262,0.83,2.96,1.34,3.644,2.608
		c0.82,1.521,2.025,2.79,2.684,4.354c0.434,1.031,1.102,1.941,1.884,2.471c2.362,1.602,4.859,3.023,7.388,4.357
		c1.852,0.977,3.834,1.706,5.762,2.539c0.285,0.124,0.586,0.229,0.89,0.303c1.376,0.333,2.927,0.209,3.91,1.557
		c0.103,0.141,0.396,0.242,0.577,0.211c2.167-0.366,4.154,0.446,6.194,0.914C444.758,178.436,444.758,187.736,444.758,197.036z"/>
</g>
</svg>
