<?xml version="1.0" encoding="utf-8"?>
<!-- Generator: Adobe Illustrator 16.0.0, SVG Export Plug-In . SVG Version: 6.00 Build 0)  -->
<!DOCTYPE svg PUBLIC "-//W3C//DTD SVG 1.1//EN" "http://www.w3.org/Graphics/SVG/1.1/DTD/svg11.dtd">
<svg version="1.1" id="Layer_1" xmlns="http://www.w3.org/2000/svg" xmlns:xlink="http://www.w3.org/1999/xlink" x="0px" y="0px"
	 width="595.28px" height="841.89px" viewBox="0 0 595.28 841.89" enable-background="new 0 0 595.28 841.89" xml:space="preserve">
<path fill-rule="evenodd" clip-rule="evenodd" fill="none" d="M969.184,354.944c0,46.502,0,93.005,0,139.507
	c-0.938,0.093-0.568,1.368-1.393,1.568c-1.703-1.988-4.346-2.549-5.398-0.966c-0.909,1.367-1.235,1.155-2.019-0.034
	c-1.14-1.733-3.076-1.657-4.171,0.14c-0.636,1.043-1.418,1.452-2.48,0.966c-2.106-0.965-3.754-3.567-6.596-1.749
	c-2.247-1.925-4.154,0.24-6.25,0.335c0.141,1.115,1.554,0.324,1.606,1.416c-1.063,0.52-2.513,0.618-2.912-0.326
	c-1.301-3.078-3.535-1.548-4.943-0.813c-1.446,0.755-2.075,0.759-3.099-0.378c-1.031-1.146-4.236-1.005-4.384,0.152
	c-0.216,1.684-0.715,0.793-1.346,0.428c-1.493-0.863-2.918-1.979-4.837-1.421c-1.528,0.445-3.005,0.733-4.593-0.025
	c-0.92-0.44-2.027-0.201-2.665,0.778c-0.992,1.525-2.412,1.562-3.99,1.306c0.147-0.722,1.527-0.228,1.228-1.187
	c-0.193-0.618-0.955-0.573-1.526-0.64c-0.844-0.097-1.782-0.14-2.374,0.497c-2.15,2.312-4.389,1.291-6.593,0.238
	c-1.017-0.485-1.988-0.981-3.074-0.441c-4.033,2.006-8.546,1.414-12.652,1.375c-3.369-0.031-6.247,1.256-9.408,1.389
	c-0.391,0.017-0.451,0.273-0.52,0.668c-0.143,0.814-4.363,1.521-4.401,0.851c-0.165-2.867-2.196-1.393-3.448-1.644
	c-1.934-0.388-3.801-0.062-5.626,0.651c-0.484,0.189-1.145,0.644-1.511-0.146c-0.674-1.449-1.486-0.562-1.801,0.051
	c-0.778,1.514-1.604,2.623-3.561,2.485c-1.581-0.111-3.032-0.103-4.44-1.192c-1.146-0.887-2.72-1.257-4.128-0.066
	c-0.3,0.254-0.893,0.618-1.061,0.505c-2.701-1.838-5.661-0.445-8.453-0.551c-2.312-0.088-5.39-1.037-6.78,2.301
	c-0.243,0.583-0.864,0.265-1.288-0.035c-0.814-0.576-1.617-1.167-2.435-1.739c-0.865-0.605-1.448-0.422-2.014,0.518
	c-1.637,2.718-1.73,2.704-4.478,0.753c-1.087-0.771-2.226-1.818-3.605-1.127c-0.902,0.453-1.562,0.581-2.504,0.254
	c-0.867-0.3-1.839-0.18-2.614,0.441c-0.87,0.697-1.745,0.496-2.783,0.42c-1.93-0.142-4.198-0.531-5.665,1.009
	c-1.062,1.114-1.646,0.807-2.385,0.043c-1.137-1.174-2.434-1.358-4.03-1.404c-1.291-0.037-1.812,1.521-3.17,0.975
	c-2.798-1.128-5.776-0.632-8.642-0.524c-2.868,0.108-5.941-0.218-8.421,2.068c-0.709,0.653-1.854,0.548-2.614-0.84
	c-0.62-1.133-1.902-2.289-3.479-0.829c-0.584,0.539-1.288,0.479-1.831,0.02c-1.616-1.369-3.325-0.859-4.951-0.211
	c-2.13,0.849-4.089,0.572-6.296,0.08c-3.374-0.753-6.954-1.173-10.149,0.852c-0.872,0.552-1.399,0.5-1.809-0.306
	c-0.739-1.457-1.98-1.325-3.237-1.132c-1.08,0.166-2.171,0.356-3.218-0.005c-3.487-1.201-7.12,0.478-10.658-0.6
	c-0.908-0.276-2.122-0.182-3.197-0.192c-0.757-0.008-1.641-0.013-1.706,1.009c-0.057,0.917-0.074,1.872-1.29,1.491
	c-0.834-0.262-2.671,0.43-2.128-1.691c0.154-0.604-0.346-0.638-0.761-0.688c-5.372-0.644-10.745-1.03-16.141-0.242
	c-1.609,0.234-3.176,0.253-4.85,0.112c-2.206-0.185-4.597-0.74-6.769-0.15c-2.116,0.575-4.052,0.453-6.066-0.086
	c-2.095-0.562-4.03-0.552-5.729,1.139c-0.854,0.852-4.244,0.422-4.047-0.171c0.777-2.328-1.409-1.594-1.704-1.411
	c-1.815,1.123-3.12-0.01-4.567-0.713c-1.294-0.628-2.717-0.918-4.122-0.867c-1.334,0.048-2.624,0.234-3.939-0.235
	c-1.385-0.494-2.76-1.146-3.794,0.854c-0.328,0.634-1.745,0.7-2.759,0.346c-0.017-0.96,1.535-0.746,1.151-1.722
	c-0.1-0.253-0.706-0.454-1.067-0.437c-3.005,0.147-6.134-0.77-8.938,1.187c-0.751,0.524-1.855,1.074-2.549-0.29
	c-0.827-1.627-1.952-2.111-3.646-1.148c-0.692,0.395-1.473-0.012-2.147-0.346c-1.12-0.557-2.319-0.512-3.428-0.208
	c-2.921,0.799-5.759,1.05-8.701-0.036c-1.523-0.562-3.358-0.352-4.417,0.902c-1.072,1.271-1.73,0.951-2.904,0.316
	c-1.445-0.779-3.605-1.482-4.616-0.379c-1.185,1.292-1.554,0.8-2.4,0.063c-0.471-0.409-1.177-0.142-1.659-0.336
	c-4.076-1.646-8.319,0.004-12.457-0.719c-2.309-0.403-4.572,0.778-7.078,0.386c-7.885-1.239-15.877,0.257-23.806-0.529
	c-0.203-0.02-0.495,0.061-0.415,0.489c0.466,0.053,0.966,0.059,1.438,0.175c0.734,0.181,1.249,0.719,0.978,1.445
	c-0.249,0.669-1.145,0.61-1.526,0.291c-2.093-1.756-4.728-1.252-7.067-1.908c-2.041-0.572-3.655-0.195-5.091,1.058
	c-1.673,1.461-2.95,1.12-4.225-0.45c-0.711-0.875-1.645-1.555-2.801-1.38c-3.357,0.505-6.623-0.799-9.922-0.494
	c-2.671,0.247-5.274-0.988-7.82-0.335c-1.304,0.334-2.689,0.515-3.574,0c-2.792-1.627-5.704-0.345-8.373-0.253
	c-2.776,0.097-5.527,0.23-8.313-0.021c-1.707-0.153-3.498-0.304-4.647,1.487c-0.55,0.857-1.408,0.563-2.25,0.572
	c-3.033,0.032-5.64-2.112-8.74-1.573c-0.956,0.426,1.449,1.683-0.243,1.646c-0.892-0.02-2.714,1.339-3.09-1.005
	c-0.048-0.296-1.045-0.678-1.414,0.136c-0.934,2.056-1.679,0.885-2.351-0.147c-0.518-0.797-0.991-1.698-2.099-1.362
	c-1.474,0.446-3.202,0.166-4.371,1.547c-0.533,0.63-1.475,0.886-2.049,0.415c-2.714-2.224-5.928-1.658-9.033-1.974
	c-1.955-0.199-3.402-0.023-4.536,1.688c-0.808,1.219-2.338,1.481-2.766,0.16c-0.62-1.914-1.995-1.888-3.284-1.973
	c-2.738-0.18-5.495-0.199-8.24-0.117c-5.209,0.156-10.413,0.004-15.618-0.01c-2.15-0.005-4.646-0.506-6.507,1.484
	c-0.49,0.523-1.703,0.645-2.014-0.099c-1.066-2.552-2.689-1.616-4.481-1.104c-1.163,0.332-2.572,0.452-3.702,0.11
	c-1.736-0.525-3.015-0.356-3.966,1.329c-1.173-2.412-2.904-2.772-4.815-1.086c-1.215,1.073-2.74,1.445-3.729,0.32
	c-1.385-1.577-1.167-1.762-2.938-0.255c-0.386,0.328-0.909,1.117-1.255,0.12c-0.607-1.747-2.428-1.29-3.179-1.179
	c-2.591,0.387-5.019,0.048-7.37-0.8c-1.587-0.572-2.92-0.656-4.12,0.58c-1.271,1.31-2.325,1.315-3.498-0.181
	c-0.753-0.961-1.751-2.336-2.944-2.043c-2.292,0.564-4.592-0.633-6.823,0.346c-0.575,0.252-1.516,0.47-1.917,0.184
	c-2.471-1.764-2.246,0.122-2.176,1.663c-1.891-0.225-1.638-2.748-3.416-2.812c-4.734-0.168-9.471-0.423-14.202-0.36
	c-1.576,0.021-3.122,0.345-4.662-0.216c-1.39-0.506-2.819-0.689-2.553-2.945c0.262-2.209-3.175,0.434-3.192-1.995
	c-0.002-0.16-0.129-0.321-0.122-0.479c0.117-2.656-1.068-4.127-3.725-4.757c-1.342-0.318-2.549-2.1-2.367-3.035
	c0.308-1.595-0.211-2.685-0.706-3.994c-1.816-4.803-4.934-9.083-5.755-14.28c-0.119-0.753-0.862-1.014-1.118-1.596
	c-0.5-1.136-1.935-1.753-1.883-3.132c0.08-2.147-0.475-3.94-2.129-5.426c-0.558-0.5-1.079-1.322-0.498-2.243
	c1.119-1.779,1.382-3.934,0.648-5.649c-1.269-2.964-1.237-5.89-1.215-8.974c0.019-2.467,1.25-4.863,0.998-7.055
	c-0.601-5.233,2.849-9.105,3.753-13.782c0.665-3.441,2.89-6.34,3.98-9.729c0.694-2.156,1.764-4.619,3.764-6.465
	c1.068-0.984,2.882-2.313,2.743-3.889c-0.202-2.296,0.986-3.644,2.292-4.958c1.14-1.147,1.953-2.334,2.599-3.844
	c0.908-2.122,2.266-4.196,4.407-5.241c1.287-0.628,2.121-1.396,2.879-2.544c1.667-2.527,2.383-5.885,6.062-6.753
	c0.569-0.135,2.1-1.233,1.765-2.197c-0.641-1.844,0.802-2.277,1.63-3.11c0.386-0.388,1.054-0.569,1.411,0.261
	c0.64,1.492,2.205,1.715,3.04,0.096c0.943-1.827,2.729-2.082,4.116-2.973c1.799-1.157,3.241-0.23,3.657,1.962
	c0.129,0.675,0.565,1.003,1.194,1.088c0.781,0.106,1.541,0.045,1.891-0.816c0.367-0.905,0.473-2.136,1.921-1.719
	c1.105,0.318,1.556,1.006,1.18,2.284c-0.275,0.935,0.694,1.234,1.403,1.416c0.956,0.245,1.169-0.499,1.155-1.189
	c-0.035-1.689,1.936-2.951,0.85-4.947c-0.402-0.739,0.705-1.375,1.467-1.073c1.879,0.746,2.429-0.238,2.64-1.781
	c0.121-0.88,0.819-1.451,1.102-2.189c0.576-1.502,2.228-3.054,0.32-4.713c-2.379-2.069-3.015-4.896-3.515-7.793
	c-0.106-0.618,0.105-1.224-0.711-1.677c-2.664-1.48-3.693-3.792-3.217-6.833c0.196-1.254,0.494-2.56-1.365-3.177
	c-0.638-0.212-1.126-1.284-1.83-1.885c-1.1-0.939-0.545-1.559,0.704-1.731c-0.049-0.146-0.053-0.362-0.153-0.425
	c-1.765-1.117-1.236-3.154-1.908-4.704c-0.245-0.566-0.198-1.528-1.096-1.414c-0.788,0.1-0.44,0.935-0.53,1.467
	c-0.072,0.419-0.158,0.928-0.638,0.953c-0.644,0.032-0.743-0.597-0.85-1.059c-0.148-0.644-0.033-1.392-0.315-1.952
	c-0.589-1.17-0.92-1.9,0.731-2.623c1.131-0.496,1.144-2.021-0.055-2.632c-2.149-1.098-2.427-2.43-1.057-4.252
	c0.888-1.182,0.594-2.34,0.03-3.492c-0.165-0.339-0.817-0.691-0.756-0.852c1.101-2.913-0.944-5.49-0.712-8.506
	c0.466-6.062-0.389-12.235,1.779-18.134c0.862-2.343,0.711-5.16,2.328-7.061c2.531-2.974,2.543-7.562,6.369-9.628
	c0.193-0.104,0.358-0.391,0.402-0.618c0.324-1.68,1.537-2.947,2.375-4.285c1.216-1.942,3.014-3.811,5.009-4.879
	c1.516-0.812,3.1-1.551,4.407-2.633c4.888-4.044,9.209-8.754,15.049-11.647c2.117-1.048,4.038-2.808,4.398-5.664
	c0.158-1.25,1.221-2.143,2.819-1.677c0.869,0.253,1.795,0.313,2.511,0.43c0.741-0.738-0.465-1.738,0.588-2.31
	c0.771,0.206,0.781,0.836,0.83,1.398c0.076,0.894,0.474,1.198,1.32,0.838c0.666-0.284,1.738-0.204,1.839-1.054
	c0.139-1.171-0.888-0.493-1.414-0.611c-1.235-0.277-1.267-1.079-0.558-1.805c0.916-0.936,1.924-0.879,2.711,0.303
	c0.353,0.532,0.594,1.407,1.436,1.055c0.888-0.371,0.248-1.095,0.186-1.716c-0.187-1.877,1.722-1.504,2.599-1.962
	c0.915-0.479,1.247,0.717,0.964,1.635c-0.177,0.573-0.216,1.028,0.533,1.004c1.519-0.049,3.375,1.391,4.401-1.727
	c0.211,2.967,1.973,2.708,3.351,2.716c1.887,0.011,2.447-1.354,2.642-3.021c0.075-0.648-0.531-2.025,0.933-1.73
	c1.033,0.208,1.553,1.231,1.344,2.373c-0.154,0.845-0.715,1.482-1.24,2.137c-0.336,0.419-1.652,0.276-0.915,1.296
	c0.455,0.63,1.038,1.361,2.06,1.113c2.06-0.5,4.106-1.064,6.186-1.46c1.305-0.249,1.764-0.771,1.231-2.04
	c-0.187-0.445-0.491-1.034,0.044-1.357c0.61-0.368,1.137,0.13,1.505,0.564c1.542,1.824,1.747,4.218,2.487,6.362
	c0.354,1.023-0.089,2.172,1.682,1.908c1.575-0.235,2.117-0.868,1.808-2.508c-0.206-1.096-0.544-2.428,0.597-3.43
	c0.861,0.541,0.463,1.335,0.729,1.893c0.299,0.623,0.215,1.757,1.165,1.64c0.875-0.107,1.246-1.04,1.282-1.926
	c0.019-0.491-0.159-0.987-0.165-1.481c-0.033-3.144-0.855-6.218-0.743-9.385c0.074-2.122,1.227-3.46,3.073-3.603
	c1.346-0.104,1.283-0.657,1.617-1.544c1.94-5.158-0.127-11.2,3.54-15.969c0.178-0.232,0.146-0.641,0.172-0.971
	c0.461-5.588,3.522-9.758,7.432-13.412c1.816-1.698,3.748-3.294,5.756-4.76c2.115-1.543,3.363-4.008,5.931-5.118
	c1.24-0.535,3.161-1.41,1.445-3.541c-0.39-0.483,0.262-1.068,0.71-1.441c0.767-0.64,1.553-1.258,2.351-1.858
	c0.877-0.66,1.641-1.195,2.224,0.426c0.413,1.149,1.389,0.689,2.047,0.14c0.562-0.469,1.68-0.732,1.121-1.886
	c-0.259-0.535-1.502-0.702-0.893-1.484c0.666-0.854,1.498,0.028,2.258,0.241c1.68,0.472,4.256-1.132,3.598-2.231
	c-0.982-1.639,0.553-1.928,0.99-1.998c1.215-0.194,1.768-1.222,2.714-1.648c0.901-0.406,2.086-3.186,2.852,0.177
	c0.106,0.469,0.863,0.428,1.346,0.227c1.545-0.645,2.78-1.591,2.654-3.468c-0.04-0.606-0.265-1.256,0.377-1.539
	c1.997-0.88,4.008-2.177,6.28-1.02c1.555,0.792,1.752-0.244,1.424-1.118c-0.753-2.006,0.475-2.542,1.885-3.042
	c1.639-0.581,3.332-1.02,4.936-1.681c2.324-0.958,4.566-2.24,6.916-0.04c0.523,0.49,1.334,0.401,1.881-0.006
	c0.81-0.603,0.093-1.157-0.238-1.687c-0.212-0.338-0.582-0.611-0.345-1.289c1.446,0.964,2.259-0.337,3.117-1.053
	c1.29-1.077,2.283,0.206,3.469,0.327c-0.099-0.657-0.169-1.118-0.241-1.602c0.858-0.208,0.836,1.147,1.663,0.791
	c0.284-1.783,3.417-2.708,4.943-1.475c1.703,1.376,3.309,0.967,4.79-0.518c1.223-1.227,2.458-3.127,4.179-3.172
	c5.517-0.145,10.667-2.195,16.097-2.698c1.664-0.154,3.183-0.212,4.338,1.169c1.003,1.2,2.2,0.3,2.272-0.317
	c0.252-2.132,1.677-2.367,3.184-2.238c1.634,0.14,3.062-1.036,4.502-0.762c1.707,0.325,3.287,1.326,4.919,2.042
	c0.429,0.188,0.886,0.705,1.311,0.157c1.083-1.394,1.894-0.97,2.723,0.256c0.713,1.055,1.472,0.516,1.53-0.314
	c0.189-2.677,1.739-2.617,3.668-2.101c0.909,0.244,1.826-0.123,2.716-0.1c4.264,0.112,8.789-0.379,11.571,4.009
	c0.381,0.601,0.91,0.753,1.487,0.681c4.221-0.532,6.923,2.585,10.136,4.343c1.942,1.063,3.643,2.575,5.791,3.351
	c1.235,0.446,2.711,0.696,3.473,1.836c1.521,2.274,3.445,3.716,6.103,4.581c2.985,0.971,4.453,4.068,6.901,5.928
	c1.36,1.033,2.482,2.561,4.122,3.396c0.883,0.45,1.794,0.779,2.399,1.697c2.555,3.875,6.764,5.934,10.106,8.95
	c1.933,1.742,4.206,3.15,5.923,5.158c1.456,1.704,4.182,2.183,4.642,4.832c5.684,1.635,7.816,7.022,11.406,10.856
	c1.931,2.062,4.563,3.469,5.814,6.177c0.077,0.167,0.433,0.279,0.663,0.289c3.39,0.131,4.206,2.631,5.428,5.212
	c1.189,2.516,3.159,4.877,5.955,5.844c1.925,0.667,2.79,1.375,2.357,3.536c-0.33,1.651,0.683,3.107,2.351,3.048
	c1.859-0.066,2.173,0.879,2.675,2.23c0.819,2.207,1.898,4.3,3.016,6.393c1.566,2.934,5.033,4.283,5.768,7.781
	c0.258,1.226,1.952,1.532,2.621,2.854c0.417,0.823,0.054,4.255,2.955,2.113c0.06-0.044,0.389,0.105,0.414,0.207
	c0.501,2.068,3.004,3.248,2.597,5.676c-0.196,1.17-0.028,2.044,1.163,2.404c-0.417,0.83-1.464,0.362-1.643,1.216
	c1.905,1.219,1.976,1.242,1.339,3.204c-0.317,0.979,0.106,1.045,0.851,1.304c2.097,0.731,4.921,0.303,5.646,3.379
	c0.102,0.432,0.604,0.652,1.016,0.379c1.374-0.915,2.183,0.049,2.976,0.888c0.929,0.982,1.768,1.351,3.267,0.931
	c1.957-0.549,4.155-0.893,4.999,2.063c0.307,1.072,1.725,2.259,2.719,1.667c1.754-1.046,2.782-0.047,4.021,0.649
	c1.444,0.812,2.504,0.844,2.813-1.146c0.057-0.368,0.278-0.812,0.836-0.66c0.534,0.676-0.75,1.819,0.447,2.175
	c0.99,0.295,1.574-0.639,2.256-1.263c2.146-1.969,2.593-5.731,6.354-6.029c0.303-0.024,0.61-0.546,0.837-0.89
	c0.775-1.172,1.975-1.644,3.166-2.281c2.511-1.341,4.903-2.958,6.608-5.322c0.843-1.167,1.578-1.806,2.606-0.272
	c0.389,0.58,0.823,1.089,1.562,1.106c1.948,0.046,3.752-0.676,5.586-1.176c1.345-0.366,1.089-1.708,1.339-2.718
	c0.126-0.508,0.365-0.967,0.953-1.006c0.489-0.033,0.811,0.307,0.807,0.76c-0.02,2.569,1.292,1.787,2.749,1.232
	c1.342-0.511,2.856-1.893,4.138-0.956c1.337,0.978,1.516,0.628,2.02-0.555c0.951-2.236,2.321-2.402,4.144-0.644
	c0.654,0.631,1.331,1.261,2.083,1.763c0.486,0.324,1.276,0.492,1.188-0.504c-0.078-0.874-0.792-1.88,0.873-1.892
	c1.467-0.01,1.491,0.895,1.39,2.026c-0.063,0.712,0.645,0.886,1.21,1.046c0.545,0.154,1.043,0.019,1.233-0.534
	c0.64-1.855,1.795-1.09,3.025-0.757c1.708,0.462,2.036,2.335,3.321,3.047c2.083,1.153,4.622,1.576,6.812,1.929
	c2.232,0.36,4.131,0.835,5.811,2.163c2.474,1.956,5.949,1.639,8.291,3.681c1.828,1.594,3.923,2.484,6.152,3.173
	c1.138,0.352,2.074,1.01,3.094,1.563c2.864,1.553,5.268,3.735,7.94,5.536c3.472,2.341,6.771,4.916,10.191,7.315
	c2.866,2.01,5.884,3.766,8.069,6.598c0.271,0.351,0.852,0.51,1.32,0.652c0.678,0.205,1.186,0.549,1.513,1.193
	c1.101,2.171,2.955,3.543,4.997,4.739c1.502,0.878,2.911,1.803,3.909,3.378c1.788,2.822,3.359,5.925,6.9,7.104
	c0.635,0.211,1.187,0.914,1.125,1.549c-0.31,3.211,1.894,4.032,4.283,4.82c1.864,0.615,2.937,1.898,2.613,3.98
	c-0.341,2.194,0.372,3.728,2.529,4.528c0.434,0.161,1.059,0.556,1.102,0.903c0.495,4.011,4.428,4.335,6.854,6.015
	c2.178,1.508,5.258,1.687,7.466,3.582c0.919,0.789,2.133,0.925,3.319,0.489c0.613-0.226,1.193-0.722,1.624,0.284
	c0.943,2.203,3.599,1.429,5.165,3.003c1.493,1.502,4.347,0.719,6.358,2.062c1.025,0.685,2.492,0.719,1.77-1.398
	c-0.196-0.576-0.466-1.264,0.368-1.397c0.877-0.14,2.013,0.37,1.759,1.247c-0.604,2.088,0.855,1.936,1.99,2.208
	c0.916,0.22,1.723,0.583,2.365,1.298c1.02,1.133,2.176,1.851,3.784,2.15c1.483,0.276,2.677,1.186,1.984,3.257
	c-0.503,1.505,0.696,2.98,1.92,2.969c2.362-0.023,2.795,2.033,3.001,3.08c0.373,1.894,1.498,3.001,2.466,4.419
	c1.448,2.124,3.878,3.375,5.059,5.521c0.901,1.639,1.984,3.035,3.19,4.361c0.753,0.828,1.455,1.556,1.507,2.745
	C967.623,356.246,968.511,355.249,969.184,354.944z"/>
<g>
	<path fill-rule="evenodd" clip-rule="evenodd" fill="#B8B8B8" d="M128.056,307.473c0.622-0.274,1.463-0.653,1.89-0.158
		c1.359,1.578,3.433,1.051,5.075,1.906c1.507,0.785,3.301,0.627,5.229-0.152c3.218-1.303,6.804-1.277,10.299-0.868
		c0.621,0.073,0.965,0.538,1.354,1.003c1.458,1.741,4.376,1.831,6.03,0.209c1.695-1.664,3.653-1.823,5.737-0.986
		c0.538,0.216,1.06,0.679,1.619,0.504c3.711-1.159,7.644,0.683,11.326-0.86c0.329-0.137,0.784,0.029,1.3,0.062
		c-0.167,1.48-1.682,1.365-2.391,2.383c1.55,0.54,2.632,0.832,3.882-0.735c1.076-1.349,2.957-1.637,4.761-1.371
		c2.373,0.349,4.75,0.921,7.075-0.266c0.277-0.142,0.695-0.209,0.977-0.109c4.018,1.426,8.242,0.12,12.308,0.944
		c0.877,0.178,1.496,0.655,2.178,1.127c0.46,0.317,0.919,0.596,1.565,0.129c2.485-1.796,5.257-1.323,8.022-0.918
		c1.979,0.291,3.295,2.079,5.364,2.226c1.257,0.089,2.112-0.051,2.98-1.162c0.961-1.23,2.355-1.455,3.068,0.387
		c0.557,1.439,1.237,1.252,2.253,0.55c2.837-1.96,5.77-2.881,8.899-0.585c0.739,0.542,1.21-0.125,1.793-0.369
		c2.503-1.05,4.282-0.487,5.037,1.793c1.941-3.201,5.017-2.207,7.692-2.098c2.922,0.12,5.819-0.029,8.728-0.066
		c0.91-0.012,2.096-0.146,2.445,0.84c0.887,2.501,2.076,1.288,3.313,0.448c2.971-2.018,6.723-1.74,9.413,0.764
		c1.05,0.978,1.947,1.236,2.885-0.078c1.012-1.419,2.451-1.837,3.969-1.177c2.132,0.928,4.441,0.447,6.359,0.14
		c4.708-0.758,9.45,0.222,14.101-0.79c1.59-0.346,3.078-0.343,4.076,1.465c0.777,1.405,1.855,0.527,2.736-0.112
		c2.901-2.108,6.735-1.871,9.262,0.542c1.072,1.024,2.206,1.685,3.17-0.165c0.528-1.012,1.479-1.446,2.5-1.327
		c5.439,0.636,10.898,0.146,16.301-0.102c4.722-0.217,9.521,0.483,14.191-0.737c0.887-0.231,1.628,0.08,2.334,0.592
		c0.727,0.527,1.512,0.81,2.252,0.06c1.152-1.169,2.102-0.535,2.582,0.519c0.813,1.787,1.942,1.819,3.419,1.046
		c5.411-2.835,11.058-2.609,16.935-1.831c3.57,0.473,7.303-0.128,10.944-0.441c0.829-0.071,1.575-0.265,2.379,0.065
		c2.891,1.188,5.533,0.375,8.131-0.99c1.781-0.938,3.071-0.331,3.239,1.411c0.021,0.212,0.16,0.554,0.298,0.583
		c0.296,0.063,0.859,0.05,0.911-0.085c1.246-3.291,4.438-1.995,6.604-2.437c3.952-0.807,7.979-2.274,12.162-1.114
		c0.708,0.196,1.292-0.05,1.712-0.703c0.278-0.433,0.748-0.865,1.245-0.591c2.885,1.598,5.588-0.266,8.367-0.436
		c3.369-0.207,6.706-0.917,10.072-1.243c1.285-0.125,2.293,0.849,3.296,1.601c1.954,1.465,2.875,1.274,3.923-0.995
		c0.988-2.144,2.713-0.773,3.951-0.754c4.371,0.068,8.733,0.616,13.107-0.054c0.731-0.111,1.705-1.127,2.191,0.006
		c0.432,1.006-1.244,0.856-1.498,1.929c1.751-0.477,4.1,0.515,4.318-2.536c0.016-0.22,0.737-0.639,0.996-0.555
		c3.18,1.037,6.125-1.391,9.445-0.397c2.389,0.716,4.746-1.201,7.157-1.798c1.19-0.294,0.192-1.362,0.082-2.104
		c-0.594-3.956-3.602-6.341-6.069-8.977c-1.542-1.646-2.231-3.819-4.084-5.318c-1.225-0.991-2.247-2.247-3.82-2.544
		c-3.152-0.596-5.714-2.671-8.879-3.289c-2.127-0.416-2.174-3.149-3.81-4.288c-0.263-0.184-0.087-0.655,0.193-0.87
		c1.572-1.206,2.212-2.196-0.419-2.843c-0.531-0.131-0.398-1.043-0.043-1.299c2.464-1.779,2.09-4.728,2.465-7.075
		c0.355-2.224,2.492-3.402,2.377-5.646c-0.031-0.59,0.198-0.991-0.584-1.351c-2.367-1.088-3.492-3.165-2.781-5.542
		c0.5-1.67,0.35-3.085-0.487-4.51c-1.421-2.419-1.74-5.388-3.831-7.49c-0.561-0.563-0.941-1.42-0.773-2.303
		c0.195-1.035,0.226-1.683-1.205-1.785c-0.84-0.061-0.678-1.166-0.668-1.916c0.018-1.403,0.045-2.814-2.076-2.467
		c-0.665,0.109-1.118-0.387-1.33-0.938c-0.316-0.818,0.477-0.622,0.857-0.835c0.768-0.429,0.404-1.007,0.057-1.472
		c-1.198-1.599-2.325-3.315-4.592-3.529c-1.445-0.136-2.355-1.091-2.645-2.321c-0.695-2.968-2.832-4.288-5.392-5.277
		c-1.224-0.473-2.116-1.406-2.577-2.583c-0.408-1.042-1.117-1.674-2.05-2.046c-3.853-1.537-6.942-4.096-10.009-6.832
		c-1.873-1.67-4.26-2.769-7.122-2.237c-1.846,0.343-3.944,0.39-4.438-2.622c-0.66,0.933-0.942,2.82-2.33,0.995
		c-0.47-0.618-1.015-0.381-1.447,0.166c-1.27,1.605-2.598,1.016-3.546-0.196c-2.267-2.895-6.524-1.567-8.056,1.36
		c-0.42,0.801-1.046,3.21-2.535,0.53c-0.306-0.549-1.215-0.521-1.847-0.146c-1.403,0.83-3.006,0.957-4.535,1.334
		c-2.96,0.729-4.296-0.371-3.978-3.775c-1.15,1.759-2.402,0.945-3.677,0.981c-3.989,0.112-6.977-3.602-11.095-2.613
		c-0.394,0.094-1.129-0.169-1.324-0.494c-1.107-1.86-3.076-2.446-4.758-3.489c-1.922-1.192-2.193-3.473-2.549-5.353
		c-0.485-2.573-1.734-5.073-1.071-7.877c0.204-0.865,0.155-1.739,0.751-2.514c0.453-0.59,0.447-1.363-0.259-1.741
		c-1.085-0.582-0.952,0.383-1.103,0.999c-0.143,0.593-0.576,0.954-1.036,0.378c-0.529-0.665-0.764-1.495-0.144-2.297
		c1.471-1.897,0.816-4.051-1.604-4.76c-0.796-0.233-1.451-0.304-1.539-1.24c-0.078-0.839,0.301-1.494,1.033-1.841
		c1.365-0.646,1.834-1.713,1.385-3.072c-0.442-1.336-1.131-2.452-2.566-0.772c-0.312,0.364-0.554,0.955-1.153,0.737
		c-0.733-0.267-0.573-0.963-0.447-1.507c0.22-0.951,0.188-1.243-1.032-1.558c-1.412-0.363-0.895-1.86-0.436-2.978
		c0.996-2.42-0.279-3.865-2.96-3.677c-2.09,0.146-2.287-2.038-2.763-3.245c-0.525-1.334-0.559-2.879-1.506-4.126
		c-0.213-0.28-0.209-0.787-0.172-1.177c0.059-0.615,0.947-1.327,0.228-1.798c-1.048-0.686-0.916,1.14-1.896,1.151
		c-0.323-1.372-0.777-2.543-2.195-3.316c-1.135-0.619-1.375-1.954-0.867-3.328c0.729-1.974-0.32-2.965-2.119-3.45
		c-2.061-0.556-5.438-4.522-5.732-6.643c-0.3-2.15-2.191-3.005-3.667-4.057c-2.308-1.644-4.455-3.401-5.978-5.802
		c-0.959-1.51-1.903-2.833-3.871-3.215c-0.9-0.175-1.961-0.861-2.438-1.631c-1.505-2.425-4.312-3.334-6.015-5.488
		c-0.293-0.372-0.752-0.724-1.199-0.848c-3.333-0.926-6.582-2.339-10.086-2.399c-4.486-0.079-8.943-0.755-13.329-0.41
		c-0.546-0.791,0.035-1.035,0.341-1.376c0.323-0.36,0.842-0.715,0.325-1.229c-0.338-0.336-0.77-0.079-1.153,0.093
		c-1.698,0.762-3.423,1.785-4.308-1.055c-0.171-0.549-1-0.537-1.577-0.307c-0.887,0.354-1.312,1.178-1.246,2.001
		c0.208,2.546-1.013,2.772-2.984,2.049c-0.287-0.104-0.695-0.215-0.924-0.093c-2.974,1.586-6.106,0.963-9.22,0.76
		c-0.686-0.045-1.265-0.124-1.843-0.564c-2.495-1.896-4.856-0.871-5.329,2.288c-0.064,0.431-0.178,0.785-0.525,1.078
		c-0.788,0.665-5.717,0.963-6.548,0.374c-3.102-2.201-5.248-1.797-7.645,1.459c-0.411,0.559-1.083,0.628-1.579,0.547
		c-4.731-0.775-8.17,2.314-12.042,4.026c-2.318,1.025-4.751,1.844-6.636,3.832c-1.101,1.16-2.414,1.966-2.489,3.766
		c-0.024,0.576-0.385,1.077-1.191,1.449c-0.147-2.764-1.562-2.195-3.12-1.289c-2.768,1.61-6.041,2.723-6.224,6.762
		c-0.021,0.467-0.602,1-1.048,1.337c-0.775,0.585-1.749,1.571-2.625,0.966c-1.119-0.773,0.95-1.313,0.46-2.53
		c-0.909,0.82-2.209,1.43-2.482,2.345c-0.854,2.868-3.71,3.295-5.441,5.028c-1.061,1.062-3.774,1.096-2.465,3.969
		c0.352,0.771-1.34,2.268-2.373,2.627c-2.954,1.027-4.252,3.508-5.759,5.812c-0.842,1.286-1.803,2.37-3.049,3.242
		c-1.523,1.066-2.812,2.398-3.701,4.015c-2.433,4.424-6.635,7.113-10.136,10.484c-0.716,0.69-1.547,1.211-1.965,2.188
		c-1.081,2.525-2.575,3.031-4.96,1.825c-1.196-0.605-2.348-0.877-2.282,1.124c0.033,1.016-0.592,1.517-1.37,1.885
		c-0.637,0.302-1.35,1.038-2.018,0.3c-0.544-0.602,0.057-1.22,0.425-1.771c0.327-0.49,1.318-1.013,0.43-1.584
		c-0.722-0.464-1.149,0.411-1.388,1.025c-0.402,1.034-1.083,1.653-2.206,1.751c-1.053,0.09-1.242,0.667-0.871,1.554
		c0.347,0.826,0.552,1.646-0.482,2.126c-0.988,0.458-2.042,0.96-3-0.021c-0.583-0.598-1.096-1.54-1.961-0.573
		c-0.553,0.618-1.505,1.184-0.344,2.461c0.839,0.923-0.826,1.476-1.33,1.275c-1.979-0.783-3.62,0.583-4.939,1.219
		c-1.85,0.893-3.802,1.885-5.566,3.105c-1.759,1.218-2.031,3.324-3.351,4.768c-0.368,0.403-0.299,1.297-0.907,1.411
		c-3.949,0.741-4.894,3.872-6.198,7.039c-0.923,2.243-1.693,4.421-2.357,6.759c-0.859,3.024-1.069,5.948-1.253,8.99
		c-0.099,1.632-0.719,3.238-1.165,4.839c-0.179,0.642-0.571,1.21,0.166,1.779c0.472,0.363,2.209-0.695,1.387,1.021
		c-0.566,1.182-0.166,3.481-2.692,2.988c-1.268-0.246-2.028,0.051-1.478,1.555c0.718,1.963-0.483,2.104-1.917,2.026
		c0-20.501,0-41.002,0-61.503c0.555-0.361,1.34-0.596,1.624-1.107c0.986-1.783,1.959-3.137,4.123-1.41
		c0.329,0.263,0.828,0.061,1.112-0.302c0.418-0.533,0.171-0.914-0.348-1.188c-0.89-0.47-0.592-1.058-0.159-1.642
		c0.435-0.588,0.931-0.783,1.723-0.56c1.508,0.426,3.674,1.887,3.256-1.645c-0.034-0.282,0.18-0.824,0.366-0.867
		c2.33-0.537,3.018-2.752,4.439-4.213c0.975-1.002,1.875-1.544,3.399-0.348c1.816,1.427,5.756-1.038,5.765-3.421
		c0.003-0.862,0.104-2.268,1.082-1.312c2.59,2.528,4.035,0.196,5.312-1.145c1.757-1.845,3.198-4.065,4.434-6.312
		c1.251-2.275,2.869-4.119,4.675-5.956c2.422-2.465,4.184-5.607,6.716-7.928c2.08-1.906,3.633-4.442,6.352-5.695
		c0.652-0.301,1.066-1.243,1.457-1.963c0.71-1.312,2.235-1.749,3.044-2.625c1.819-1.97,4.465-2.096,6.349-3.749
		c2.93-2.571,5.972-4.963,9.271-7.147c2.841-1.882,6.823-2.592,8.545-6.475c0.846-1.907,3.322-2.855,5.881-2.183
		c2.045,0.538,3.925-0.719,4.459-2.778c0.124-0.479,0.02-1.105,0.561-1.297c3.448-1.219,6.489-3.48,10.204-3.989
		c0.372-0.051,0.835,0.119,1.17,0.326c1.731,1.072,2.996,1.118,3.276-1.337c0.049-0.428,0.3-1.017,0.695-0.874
		c1.848,0.668,2.814-0.896,4.157-1.494c0.87-0.388,1.782-0.73,2.259,0.525c0.157,0.411,0.234,0.854,0.799,0.689
		c0.563-0.165,0.802-0.592,0.593-1.158c-0.562-1.525,0.528-1.73,1.544-1.855c1.955-0.241,3.871-1.151,5.9-0.397
		c0.216,0.08,0.612,0.104,0.722-0.023c2.027-2.334,5.079-0.771,7.419-1.958c0.634-0.321,1.539-0.504,2.196-0.317
		c3.952,1.119,7.592-1.039,11.328-1.01c4.189,0.034,8.422-1.034,12.608,0.162c0.745,0.214,1.361,0.501,1.982,0.946
		c0.885,0.636,1.842,0.715,2.708-0.133c1.696-1.659,3.505-1.727,5.022,0.039c0.754,0.878,1.867,0.911,2.446,0.708
		c1.344-0.47,2.551,0.176,3.781,0.01c3.203-0.434,5.684,0.998,8.052,2.854c0.448,0.352,1.036,0.827,1.519,0.784
		c2.701-0.241,4.848,2.008,7.651,1.522c1.21-0.209,2.126,1.199,3.249,1.695c0.74,0.326,1.51,2.486,2.631,0.037
		c0.254-0.556,2.404,0.315,2.994,1.501c0.844,1.701,2.359,2.191,3.916,2.207c1.752,0.018,3.041,0.687,4.215,1.811
		c1.233,1.183,3.166,1.357,4.258,2.194c2.418,1.853,5.856,1.86,7.68,4.528c0.463,0.676,0.9,1.21,1.821,0.779
		c0.185-0.086,0.644-0.01,0.644-0.004c0.043,3.238,2.189,1.396,3.346,1.443c0.967,3.144,3.073,5.482,5.477,7.221
		c1.846,1.336,1.623-1.245,2.238-2.182c3.218,1.601,0.488,2.374-0.691,3.382c1.318,0.809,2.218-0.259,3.205-0.23
		c-0.68,2.769,1.768,5.117,5.406,5.578c1.819,0.23,3.289,1.612,4.258,3.067c0.858,1.291-1.288,1.628-1.537,2.745
		c0.604,0.638,0.979,0.085,1.418-0.257c0.831-0.647,1.736-1.404,1.41,0.622c-0.06,0.369,0.141,0.694,0.499,0.759
		c3.294,0.59,4.128,3.679,6.056,5.699c1.91,2.002,1.824,4.844,3.666,6.751c0.619,0.641-0.087,1.412-0.224,2.148
		c0.888,0.561,0.935-0.778,2.057-0.618c-1.276,1.764-1.388,3.465-0.124,5.259c0.619,0.881,1.154,1.667,2.018,2.386
		c0.871,0.727,2.984,0.809,2.174,2.936c-0.129,0.34,0.486,0.202,0.787,0.189c0.772-0.034,1.56,0.556,1.569,1.018
		c0.076,3.7,3.731,5.157,4.964,8.245c1.768,4.431,4.445,8.448,4.982,13.408c0.176,1.617,0.895,3.625,3.249,4.073
		c1.529,0.292,2.998,0.957,4.453,1.555c1.114,0.457,1.964,1.717,3.234-0.153c0.569-0.837,2.018,0.444,2.673,1.157
		c1.043,1.134,2.121,1.364,3.559,1.177c4.369-0.572,7.99,1.361,11.465,3.65c0.842,0.554,1.794,1.515,2.658,1.107
		c2.052-0.965,3.085,0.247,4.272,1.448c0.909,0.919,2.146,1.53,3.323,1.606c1.984,0.128,3.988-0.178,5.051,2.07
		c0.029,0.062,0.156,0.135,0.211,0.117c4.129-1.317,5.481,4.117,9.202,3.783c1.417,2.562,5.173,1.812,6.469,4.558
		c0.06,0.126,0.312,0.291,0.401,0.255c3.079-1.251,3.971,1.238,5.018,3.211c1.27-0.502,0.268-1.529,0.924-2.095
		c0.16,0.143,0.415,0.255,0.465,0.428c0.535,1.86,1.17,3.651,2.755,4.932c0.804,0.65,1.278,1.551,2.692,0.576
		c1.17-0.807,1.23,0.68,1.477,1.511c0.833,2.799,3.042,4.234,5.771,6.01c-0.34-2.149-1.814-2.992-2.458-4.916
		c2.138,0.592,3.975,1.874,4.028,3.211c0.16,4.003,2.924,6.072,5.396,8.266c1.914,1.697,2.57,4.002,3.899,5.96
		c0.454,0.669,0.735,1.27,1.763,1.499c1.675,0.374,3.037,1.299,2.576,3.519c-0.275,1.325,1.045,2.002,1.665,2.942
		c1.366,2.074,2.277,4.579,5.163,5.263c1.062,0.252,1.171,1.209,0.686,2.241c-0.49,1.044-0.428,2.062,1.017,2.202
		c1.995,0.194,2.087,1.819,1.715,2.929c-0.546,1.632-0.038,2.938,0.438,4.319c0.732,2.129,0.565,4.207,0.106,6.37
		c-0.67,3.146-0.175,6.405-0.859,9.599c-0.27,1.264-1.238,2.5-0.541,4.057c0.367,0.822-1.067-0.016-1.297,1.104
		c3.178,1.602,5.332,5.418,9.85,4.936c0.584-0.062,1.18,0.112,1.476,0.728c0.226,0.469,0.005,0.896-1.104,2.286
		c0.531,0.629,1.213,0.355,1.842,0.284c1.838-0.207,2.991,1.317,2.168,3.008c-0.197,0.405-0.758,1.138-0.27,1.042
		c2.422-0.474,2.973,2.854,5.29,2.401c0.685-0.134,0.856,0.562,1.231,1.003c0.881,1.036,1.749,2.031,3.135,2.64
		c2.693,1.181,3.037,4.225,3.686,6.499c1.078,3.781,2.623,7.767,0.73,11.851c-1.209,2.608-2.504,5.072-4.461,7.291
		c-2.691,3.052-5.916,4.975-9.708,6.11c-1.112,0.334-1.348,0.925-0.735,1.817c1.521,2.214,0.576,2.737-1.672,3.433
		c-1.973,0.61-3.865,1.441-5.957,1.578c-1.195,0.077-2.502,0.149-1.213-1.642c0.255-0.354,0.521-0.749,0.078-1.077
		c-0.592-0.438-1.391-0.415-1.896-0.037c-1.603,1.198-2.955,1.165-4.745,0.112c-1.498-0.88-2.219,0.438-2.256,1.916
		c-0.014,0.532,0.463,1.261-0.486,1.355c-1.795,0.179-3.557-0.309-5.427-0.046c-1.227,0.172-0.312-1.62-0.505-2.482
		c-0.704-0.14-1.092,0.454-1.182,0.759c-0.891,3.05-3.482,2.191-5.559,2.496c-0.59,0.086-1.367,0.086-1.562-0.498
		c-0.726-2.179-2.265-1.419-3.669-1.122c-1.188,0.251-2.273,0.341-3.235-0.656c-0.724-0.749-1.919-0.854-2.538-0.281
		c-1.465,1.354-3.773,0.378-5.234,2.387c-0.546,0.75-3.691,0.558-5.596-0.198c-0.753-0.299-1.77-1.251-1.777,0.645
		c-0.002,0.639-0.527,0.799-1.066,0.784c-0.702-0.02-1.318-0.219-1.562-0.987c-0.201-0.638,0.039-1.941-1.023-1.527
		c-0.92,0.359-2.096,0.057-2.834,1.209c-1.736,2.711-3.219,3.05-5.996,1.573c-1.21-0.643-2.166-0.876-2.793,0.695
		c-0.27,0.675-0.835,1.164-1.576,0.802c-0.73-0.356-0.272-1.017-0.122-1.542c0.442-1.542-0.242-1.964-1.675-1.812
		c-1.152,0.121-2.312,0.006-3.462,0.355c-1.135,0.346-1.983,0.773-2.021,2.141c-0.037,1.354-1.133,2.377-2.08,1.631
		c-2.092-1.649-4.13,0.084-5.488,0.492c-2.061,0.619-4.156,1.156-6.188,1.129c-2.317-0.032-4.914,0.058-6.781-1.897
		c-0.946-0.99-1.875-0.995-2.799-0.046c-0.893,0.919-1.938,1.567-3.142,1.975c-0.901,0.305-1.812,1.366-2.733,0.543
		c-0.823-0.734,0.59-1.623,0.213-2.724c-1.163,0.201-1.279,1.375-1.789,2.068c-1.494,2.028-2.582,2.001-3.67-0.214
		c-1.416-2.886-2.652-3.06-5.004-0.719c-0.981,0.977-1.945,1.376-3.285,0.404c-1.264-0.917-2.839-1.215-4.242-0.32
		c-1.484,0.948-3.113-0.729-4.587,0.511c-0.956,0.804-2.099,0.999-3.356,0.136c-1.174-0.805-1.731,0.195-2.221,1.162
		c-0.396,0.786-1.069,0.725-1.66,0.204c-0.478-0.421-0.788-0.965-0.021-1.409c0.752-0.435,1.945-0.629,1.223-1.884
		c-0.42-0.73-3.654-0.452-3.812,0.368c-0.246,1.297-0.477,0.676-1.304,0.534c-1.412-0.24-2.224,1.106-2.959,2.264
		c-0.728-0.637,0.492-1.959-0.722-2.297c-1.102-0.308-1.154,0.952-1.733,1.384c-0.894,0.666-2.085,2.365-3.022-0.236
		c-0.447-1.241-1.771-1.778-3.179-1.639c-0.112,0.6,0.261,0.711,0.487,0.934c0.688,0.674,1.892,1.47,1.205,2.369
		c-0.609,0.799-1.542-0.382-2.348-0.642c-2.159-0.697-4.209-1.611-6.647-1.636c-4.284-0.045-8.63-1.885-12.735,0.817
		c-2.008-1.693-3.736-1.711-5.064,0.823c-0.02,0.036-0.385-0.013-0.445-0.11c-2.133-3.467-5.732-1.715-8.42-1.778
		c-2.529-0.06-5.41-0.135-8.004,0.79c-0.232,0.083-0.516,0.168-0.656,0.346c-1.957,2.48-2.604,1.564-2.961-1
		c-0.119-0.86-1.14-0.588-1.622-0.095c-3.193,3.264-7.287,3.062-11.42,3.054c-0.353-1.394,1.306-2.077,1.177-3.539
		c-1.188,0.02-1.414,0.927-1.711,1.726c-0.623,1.677-1.772,2.207-3.54,1.95c-1.792-0.26-3.622-0.24-5.433-0.369
		c-0.818-0.059-1.663-0.021-2.281-0.774c-0.827-1.009-1.444-1.154-2.153,0.276c-0.428,0.861-5.492,0.57-6.274-0.179
		c-2.897-2.771-6.359-2.602-9.371,0.432c-0.199,0.2-0.608,0.381-0.846,0.313c-0.49-0.139-0.359-0.675-0.423-1.062
		c-0.472-2.858-0.469-2.859-2.888-1.017c-2.672,2.036-6.101,3.07-8.904,2.074c-2.292-0.813-3.953-0.096-5.85,0.089
		c-3.645,0.355-7.224-1.005-10.896-0.175c-1.546,0.351-2.059-1.324-2.493-2.36c-0.679-1.621-1.516-1.296-2.466-0.523
		c-0.77,0.626-1.586,1.046-2.473,1.493c-3.216,1.62-4.963-0.573-6.897-2.3c-1.488-1.327-2.452-1.139-3.162,0.716
		c-0.245,0.64-0.138,1.738-1.196,1.594c-0.815-0.112-0.96-1.052-1.217-1.747c-0.204-0.554,0.236-1.524-0.815-1.525
		c-0.872-0.001-0.862,0.876-1.11,1.464c-0.292,0.695-0.537,1.474-1.522,1.359c-0.989-0.113-1.09-0.809-1.073-1.646
		c0.027-1.275-0.85-1.723-1.942-1.83c-1.227-0.121-2.396,0-2.83,1.427c-0.346,1.137-0.667,1.682-2.072,0.967
		c-0.803-0.408-2.101-0.282-3.047,0.341c-0.711,0.469-1.32,0.9-1.618-0.377c-0.041-0.177-0.172-0.145-1.105,0.503
		c-0.833,0.577-1.534,0.939-1.421-0.649c0.085-1.206-0.273-2.383-1.717-2.097c-1.052,0.208-2.993,0.414-1.396,2.486
		c0.396,0.514-0.478,0.778-0.927,0.729c-3.257-0.359-6.756,0.766-9.7-1.565c-0.561-0.445-0.915,0.075-1.248,0.404
		c-1.173,1.157-2.632,1.413-4.165,1.24c-1.042-0.117-3.593,0.836-1.568-1.931c0.533-0.728-0.229-1.247-0.815-1.541
		c-1.25-0.627-2.489-0.855-3.519,0.539c0.713,0.799,2.043-0.183,2.394,0.997c0.168,0.567-0.409,0.849-0.775,1.173
		c-0.968,0.857-2.103,0.93-3.289,0.655c-0.453-0.104-0.737-0.426-0.592-0.919c0.863-2.934-1.422-3.078-3.016-2.808
		c-2.378,0.402-5.072-0.689-7.165,1.313c-0.172,0.165-0.722,0.185-0.917,0.037c-1.679-1.273-2.847-1.328-3.249,1.127
		c-0.043,0.266-0.848,0.701-0.945,0.622c-2.151-1.746-3.997,0.756-6.121,0.391c-2.189-0.376-4.485-0.12-6.735-0.153
		c-1.102-0.017-1.897-0.445-2.262-1.583c-0.7-2.183-2.417-2.666-4.39-2.281c-1.405,0.274-2.553,0.08-3.776-0.664
		c-2.318-1.41-5.166-1.275-7.621-1.455c-3.209-0.232-6.025-0.793-8.677-2.492C128.056,318.807,128.056,313.14,128.056,307.473z"/>
</g>
</svg>
