<?xml version="1.0" encoding="utf-8"?>
<!-- Generator: Adobe Illustrator 16.0.0, SVG Export Plug-In . SVG Version: 6.00 Build 0)  -->
<!DOCTYPE svg PUBLIC "-//W3C//DTD SVG 1.1//EN" "http://www.w3.org/Graphics/SVG/1.1/DTD/svg11.dtd">
<svg version="1.1" id="Layer_1" xmlns="http://www.w3.org/2000/svg" xmlns:xlink="http://www.w3.org/1999/xlink" x="0px" y="0px"
	 width="1434.144px" height="799.108px" viewBox="0 0 1434.144 799.108" enable-background="new 0 0 1434.144 799.108"
	 xml:space="preserve">
<path fill-rule="evenodd" clip-rule="evenodd" fill="none" d="M547.907,367.161c-0.449-0.95,0.064-1.332,0.111-1.805
	c0.071-0.716-1.745-1.208-0.471-1.93c1.025-0.581,2.391-0.278,3.448,0.368c0.703,0.43,1.276,0.984,2.191,1.008
	c1.22,0.032,2.193,0.78,2.194,1.923c0,0.983-0.419,2.356-1.672,2.45c-1.12,0.083-2.609,0.131-3.037-1.422
	C550.165,365.913,549.278,365.725,547.907,367.161z"/>
<g>
	<path fill-rule="evenodd" clip-rule="evenodd" fill="none" d="M581.088,429c-0.449-0.95,0.064-1.332,0.111-1.805
		c0.072-0.716-1.744-1.208-0.471-1.93c1.025-0.581,2.391-0.278,3.447,0.368c0.703,0.43,1.276,0.984,2.191,1.008
		c1.22,0.032,2.193,0.78,2.194,1.923c0.001,0.983-0.419,2.356-1.673,2.45c-1.119,0.083-2.609,0.131-3.036-1.422
		C583.346,427.751,582.459,427.564,581.088,429z"/>
	<path fill-rule="evenodd" clip-rule="evenodd" fill="#FFD571" d="M188.037,889.776c0.337-0.758,0.524-1.638,1.032-2.254
		c6.496-7.888,10.094-17.486,15.428-26.062c4.209-6.765,7.854-13.865,12.512-20.375c2.988-4.174,4.643-9.263,8.016-13.154
		c2.939-3.394,4.519-7.558,7.182-11.058c1.219-1.604,2.35-3.248,2.982-5.17c0.955-2.896,2.41-5.425,4.638-7.585
		c2.923-2.834,3.112-7.235,5.845-10.323c4.09-4.62,6.385-10.431,9.531-15.682c2.882-4.811,6.578-9.03,10.004-13.445
		c2.668-3.438,4.162-7.545,6.499-11.206c6.956-10.898,13.183-22.243,19.415-33.577c2.23-4.055,4.647-8.033,7.558-11.665
		c3.153-3.933,4.51-8.892,7.537-12.92c3.093-4.115,5.804-8.632,7.968-13.186c3.273-6.889,7.783-13.058,10.796-20.042
		c0.263-0.609,0.3-1.413,0.728-1.842c6.178-6.192,8.731-14.584,13.246-21.785c6.883-10.977,12.977-22.409,18.984-33.896
		c4.38-8.375,8.805-16.735,14.832-24.217c2.374-2.947,3.93-6.751,6.274-9.976c2.583-3.553,5.259-7.05,7.183-11.153
		c1.299-2.773,3.557-5.098,4.174-8.34c0.421-2.206,2.48-3.487,3.676-5.285c3.193-4.806,6.068-9.896,8.666-14.93
		c2.938-5.696,6.469-11.084,9.119-16.938c1.77-3.905,3.947-7.597,6.242-11.246c3.613-5.746,6.799-11.762,10.17-17.66
		c5.508-9.635,11.463-19.047,16.395-28.969c4.2-8.453,9.033-16.563,13.301-24.978c3.797-7.482,7.609-15.074,11.998-22.294
		c4.213-6.931,8.116-14.03,11.812-21.25c1.591-3.105,3.152-6.26,6.213-8.312c0.659-0.442,1.273-1.162,1.575-1.892
		c2.81-6.788,8.364-12.018,10.802-18.98c0.971-2.771,2.861-4.832,4.57-7.047c5.098-6.604,7.674-14.724,12.619-21.335
		c3.172-4.241,4.758-9.492,8.917-13.081c2.015-1.739,3.265-4.291,4.093-6.795c0.909-2.748,2.145-5.227,3.934-7.449
		c5.109-6.347,7.605-14.3,12.502-20.708c4.43-5.799,6.091-13.186,11.328-18.479c2.094-2.117,2.842-5.24,4.234-7.865
		c2.409-4.539,6.188-8.218,7.932-13.12c0.055-0.156,0.121-0.322,0.229-0.442c3.704-4.14,5.035-9.724,8.248-14.047
		c4.998-6.722,7.782-14.605,12.29-21.549c1.179-1.815,2.064-3.765,3.981-5.02c1.309-0.858,1.961-2.322,2.153-3.825
		c0.266-2.08,1.14-3.944,2.404-5.421c5.308-6.199,7.026-14.687,13.118-20.354c2.362-6.68,7.934-11.367,10.829-17.828
		c2.676-5.973,6.71-11.326,9.974-17.051c2.041-3.582,4.019-7.175,5.232-11.223c1.035-3.454,2.592-6.885,5.454-9.403
		c1.042-0.916,1.729-2.051,2.083-3.349c1.464-5.364,4.683-9.79,7.25-14.589c1.977-3.696,4.996-7.059,5.717-11.428
		c0.172-1.036,0.749-1.802,1.349-2.618c1.589-2.164,2.78-4.431,2.831-7.294c0.029-1.592,0.561-3.412,1.466-4.711
		c3.514-5.052,5.454-10.872,8.302-16.239c0.39-0.734,1.11-1.423,0.839-2.261c-1.467-4.515,0.943-8.092,2.832-11.745
		c2.668-5.158,4.178-10.753,6.333-16.102c0.497-1.234,0.765-2.636,1.528-3.673c3.974-5.395,5.929-11.739,8.535-17.772
		c0.567-1.312,1.568-2.09,2.531-3.004c1.894-1.798,4.976-2.749,4.136-6.51c-0.204-0.918,1.251-1.797,2.624-0.742
		c2.224,1.71,2.945,3.145,2.836,6.784c2.487-1.908,3.348-4.408,4.521-6.964c2.951,1.938,1.383,4.15-0.483,6.782
		c3.706-0.652,6.315-0.79,7.238,2.665c0.21,0.784,1.355,1.269,2.115,0.93c2.355-1.052,4.134-0.176,5.877,1.31
		c0.383,0.327,1.052,0.216,1.294-0.274c0.192-0.39,0.22-0.966,0.095-1.392c-0.42-1.424-2.227-2.01-2.334-3.708
		c1.403-0.37,2.111,0.832,3.049,1.344c3.241,1.771,3.449,2.356,1.426,5.3c-2.026,2.947-3.146,6.259-4.182,9.574
		c-1.748,5.597-3.706,11.049-7.576,15.584c-1.312,1.539-0.593,3.687-1.492,5.176c-4.167,6.9-5.549,14.898-8.961,22.105
		c-2.017,4.26-2.533,9.274-4.786,13.365c-2.632,4.779-3.997,10.057-6.422,14.73c-4.128,7.95-7.895,16.042-11.463,24.229
		c-0.826,1.894-2.208,3.255-3.124,5.021c-3.002,5.789-5.301,12.062-8.798,17.419c-4.688,7.183-8.015,14.938-11.958,22.43
		c-0.537,1.019-1.246,1.97-2,2.847c-2.281,2.655-3.926,5.615-5.52,8.763c-1.992,3.934-4.166,7.858-6.524,11.657
		c-3.062,4.933-6.55,9.562-9.619,14.481c-3.477,5.573-6.113,11.62-9.697,17.085c-5.271,8.038-9.997,16.364-14.8,24.674
		c-2.369,4.098-4.209,8.572-7.392,12.307c-2.324,2.729-3.704,6.26-5.36,9.532c-2.605,5.146-5.808,10.032-9.154,14.745
		c-2.684,3.777-4.172,8.151-6.943,11.921c-3.902,5.312-5.975,11.846-10.496,16.839c-0.332,0.367-0.682,0.778-0.843,1.232
		c-3.382,9.556-11.229,16.361-15.577,25.319c-0.217,0.448-0.569,0.835-0.755,1.292c-3.959,9.717-10.669,17.808-15.847,26.804
		c-5.304,9.213-11.116,18.134-16.912,27.02c-3.914,6.001-6.12,12.933-10.789,18.45c-0.826,0.976-1.154,2.383-1.672,3.607
		c-1.367,3.235-2.92,6.326-5.361,8.949c-2.979,3.202-4.623,7.274-6.739,11.03c-2.666,4.73-4.776,9.771-8.041,14.17
		c-1.708,2.303-2.61,5.039-3.545,7.695c-1.556,4.419-3.655,8.396-6.453,12.24c-2.685,3.689-4.41,8.13-6.599,12.22
		c-3.11,5.814-6.549,11.416-10.194,16.874c-2.154,3.225-3.634,6.702-5.38,10.095c-2.41,4.683-5.229,9.186-7.887,13.722
		c-2.561,4.365-5.213,8.852-7.207,13.606c-1.676,3.991-4.009,7.571-6.491,11.154c-2.501,3.611-4.254,7.802-6.462,11.681
		c-2.336,4.103-4.025,8.587-7.158,12.211c-1.873,2.165-3.062,4.827-4.282,7.246c-3.382,6.703-8.208,12.456-11.687,19.13
		c-2.609,5.009-5.164,10.247-9.105,14.75c-4.088,4.671-6.871,10.554-9.814,16.123c-1.398,2.647-2.875,5.159-4.533,7.651
		c-2.559,3.843-4.428,8.191-6.68,12.163c-3.842,6.771-6.445,14.255-11.287,20.45c-2.174,2.781-2.781,6.305-4.746,9.229
		c-3.701,5.514-6.439,11.616-10.104,17.184c-5.168,7.857-10.356,15.717-15.104,23.829c-3.412,5.83-6.232,12.007-9.695,17.833
		c-4.799,8.078-8.835,16.703-14.396,24.205c-3.886,5.24-6.845,10.972-10.195,16.424c-3.268,5.318-6.646,10.688-9.439,16.332
		c-1.487,3.007-3.392,5.731-5.457,8.35c-4.838,6.134-8.689,12.841-12.418,19.706c-2.584,4.758-6.276,8.964-9.078,13.677
		c-6.206,10.436-12.938,20.544-18.68,31.274c-4.294,8.026-9.268,15.695-14.107,23.418c-2.042,3.259-4.116,6.46-5.372,10.118
		C213.372,889.776,200.704,889.776,188.037,889.776z"/>
	<path fill-rule="evenodd" clip-rule="evenodd" fill="#FFD571" d="M1431.1,889.776c-1.822-2.295-3.871-4.373-4.103-7.639
		c-0.146-2.04-1.088-3.729-3.907-3.373c-1.59,0.201-2.524-1.457-3.338-2.704s-1.545-2.566-2.153-3.925
		c-2.327-5.196-5.674-9.634-9.407-13.918c-2.336-2.68-3.137-6.579-6.393-8.695c-0.968-0.63-0.697-1.69-0.632-2.726
		c0.185-2.909-1.24-4.722-4.119-5.328c-0.965-0.203-1.972-0.209-2.707-1.069c-1.357-1.586-0.51-4.207-1.484-5.193
		c-1.156-1.171-3.538-0.896-4.816-2.92c-2.503-3.96-3.235-8.534-4.954-12.753c-0.428-1.05-0.427-2.28-1.168-3.244
		c-1.459-1.896-2.891-2.278-4.305,0.46c-1.252-1.551-1.874-3.106-2.059-4.681c-0.366-3.122-0.179-6.444-4.469-7.01
		c-4.341-6.005-10.649-10.363-14.23-17.005c-0.235-0.437-0.8-1.045-0.673-1.275c2.127-3.853-1.122-4.652-3.317-6.186
		c-1.063-0.743-1.772-1.974-2.726-2.897c-1.908-1.847-1.92-3.408,0.715-4.448c-0.82-1.954-2.972-0.824-3.855-2.255
		c-0.507-0.82-2.065-1.58-1.949-2.102c0.851-3.849-2.469-4.39-4.439-5.996c-1.174-0.958-2.3-1.947-2.535-3.571
		c-0.024-0.164-0.019-0.371-0.115-0.481c-2.81-3.214-4.07-6.852-4.456-11.203c-0.27-3.045-2.44-3.26-5.46-0.974
		c-0.657-1.72-1.345-3.364-1.915-5.05c-0.544-1.611-1.187-3.453-2.515-4.229c-3.447-2.013-5.272-5.453-7.962-8.107
		c-2.348-2.316-5.121-4.265-5.324-8.074c-0.042-0.784-1.143-1.569-1.856-2.248c-3.202-3.047-7.023-5.609-7.914-10.415
		c-0.109-0.586-0.688-0.529-1.074-0.764c-3.665-2.233-4.065-3.228-3.167-7.991c-2.432,1.125-3.753-0.095-4.957-1.937
		c-1.088-1.664-2.538-3.086-3.729-4.688c-0.892-1.2-2.178-2.459-2.321-3.795c-0.424-3.942-1.637-6.985-5.865-8.115
		c-0.827-0.222-0.859-1.339-0.998-2.162c-0.224-1.326-0.398-2.816-1.46-3.646c-3.065-2.399-5.904-4.873-8.001-8.298
		c-0.768-1.253-2.245-2.062-2.803-3.801c-0.48-1.498-1.643-2.965-2.879-3.99c-2.066-1.713-4.452-2.948-2.811-6.354
		c0.4-0.83-0.765-1.749-1.666-2.246c-1.02-0.562-2.502-0.795-3.022-1.641c-0.905-1.469-5.721-0.556-2.819-4.481
		c0.393-0.531-1.032-1.093-1.716-1.489c-1.728-1.004-3.344-1.854-3.649-4.297c-0.255-2.038-2.143-3.284-3.746-4.499
		c-2.372-1.797-5.103-3.248-6.01-6.424c-0.087-0.303-0.304-0.71-0.556-0.801c-5.268-1.898-5.224-7.833-8.548-11.193
		c-0.504-0.508-0.691-1.045-0.665-1.771c0.097-2.626-1.989-3.803-3.783-4.783c-1.846-1.009-4.341-1.053-3.955-4.128
		c0.029-0.234-0.286-0.618-0.539-0.765c-9.924-5.762-15.269-15.47-21.185-24.662c-1.795-2.79-3.07-5.935-6.173-7.672
		c-1.469-0.822-1.498-2.435-2.027-3.825c-0.917-2.412-1.614-5.104-5.303-4.893c-1.819,0.105-3.121-1.484-2.882-3.375
		c0.241-1.906-0.371-2.878-2.119-3.272c-2.144-0.483-3.303-2.069-4.476-3.732c-1.438-2.038-2.871-4.108-4.559-5.932
		c-1.614-1.743,0.677-4.646-1.845-5.842c-1.823-0.864-3.55-1.711-4.956-3.227c-1.307-1.408-2.907-2.55-0.384-4.3
		c0.799-0.553,0.674-1.618-0.082-2.146c-2.57-1.792-5.457-3.229-6.523-6.515c-5.687-0.951-6.737-6.984-10.729-9.804
		c-0.97-0.686-1.854-1.733-1.795-2.89c0.148-2.95-0.242-5.039-3.909-5.44c-1.419-0.154-1.306-2.015-0.649-3.388
		c0.852-1.777,0.303-2.609-1.722-3.113c-4.458-1.11-5.02-2.702-5.503-7.621c-0.259-2.627-2.58-4.965-5.21-5.811
		c-5.486-1.765-7.589-6.69-10.833-10.594c-1.387-1.67,1.625-4.202-1.084-5.331c-1.895-0.789-3.473-1.831-4.934-3.254
		c-1.532-1.49-3.058-2.624-0.791-4.818c1.221-1.18,0.439-2.453-0.893-3.265c-1.132-0.69-2.196-1.633-3.428-1.98
		c-1.304-0.368-1.594-0.909-1.31-2.09c0.16-0.669-0.031-1.812-0.582-1.649c-4.879,1.449-3.993-4.301-6.9-5.535
		c-1.117-0.474-2.719-2.304-2.621-4.502c0.063-1.425-1.368-2.379-2.45-2.968c-2.048-1.114-3.062-2.941-4.283-4.729
		c-1.249-1.826-2.59-3.216-0.734-5.68c1.377-1.828-0.493-3.348-2.158-3.512c-6.243-0.619-7.603-5.559-9.337-10.146
		c-0.375-0.993-0.723-1.693-1.634-2.285c-3.783-2.458-6.531-6.159-7.645-10.206c-1.645-5.982-5.431-10.161-9.374-14.406
		c-0.967-1.043-1.935-2.16-1.55-3.481c1.281-4.401-2.216-6.114-4.763-7.688c-2.763-1.707-4.309-3.756-5.544-6.631
		c-0.767-1.783-0.949-4.316-3.483-5.074c-0.375-0.111-0.775-0.732-0.848-1.172c-0.902-5.489-5.343-8.726-8.29-12.887
		c-0.998-1.409-2.134-2.49-1.748-4.359c0.415-2.007-0.632-3.115-2.37-3.827c-5.728-2.344-7.684-8.068-11.063-12.497
		c-1.213-1.591-0.1-3.575-0.191-5.375c-0.049-0.97,0.074-2.343-1.238-2.284c-1.424,0.064-1.068,1.347-0.831,2.316
		c0.104,0.422-0.003,0.664-0.7,0.807c-2.453-3.208-3.827-7.057-5.078-10.935c-0.592-1.833-1.4-3.404-3.114-4.329
		c-2.609-1.409-4.321-3.627-5.647-6.169c-0.948-1.818-2.177-3.338-3.877-4.481c-0.996-0.669-1.986-1.465-1.865-2.762
		c0.226-2.409-1.439-3.608-2.92-4.911c-1.738-1.531-3.895-2.746-3.502-5.604c0.04-0.289-0.141-0.873-0.242-0.878
		c-5.575-0.314-2.16-2.966-1.465-5.124c0.523-1.622-1.688-3.695-4.016-3.21c-2.471,0.515-3.348-0.635-4.238-2.335
		c-1.484-2.832-4.275-4.652-5.724-7.54c-1.115-2.227-2.69-4.24-2.27-6.965c0.318-2.062-1.16-3.028-2.644-3.809
		c-2.18-1.147-3.718-2.772-4.438-5.132c-0.408-1.335-1.193-2.379-2.356-3.123c-1.926-1.231-3.024-2.506-2.643-5.25
		c0.282-2.024-1.267-4.069-3.806-4.59c-0.799-0.163-1.96-0.296-2.272-0.837c-4.11-7.125-11.883-11.506-14.675-19.606
		c-0.314-0.914-1.271-1.8-0.509-2.758c2.549-3.2-0.212-2.951-2.083-3.363c-2.496-0.548-3.848-2.199-3.776-4.997
		c0.03-1.181-0.613-1.483-1.369-1.707c-3.003-0.889-4.771-2.928-5.604-5.851c-0.433-1.517-1.493-2.548-2.496-3.671
		c-0.767-0.858-1.748-1.84-1.896-2.874c-0.437-3.049-2.46-4.885-4.365-6.961c-1.256-1.37-3.076-2.59-2.404-5.115
		c0.427-1.6-1.191-2.245-2.337-2.833c-2.025-1.039-3.666-2.425-4.165-4.688c-0.386-1.75-2.789-2.032-2.847-3.211
		c-0.189-3.907-4.012-4.85-5.587-7.595c-1.733-3.019-3.993-5.735-6.035-8.576c-0.778-1.083-1.662-2.111-1.554-3.577
		c0.062-0.835,0.184-1.773-0.867-2.057c-3.945-1.066-4.068-4.876-5.507-7.692c-1.786-3.499-2.656-7.529-6.902-9.296
		c-2.12-0.882-2.412-3.493-3.758-5.176c-2.372-2.966-5.07-5.734-5.939-9.681c-0.329-1.497-1.912-2.247-2.854-3.381
		c-1.716-2.07-4.496-3.715-3.372-7.201c0.272-0.847-0.479-1.544-1.05-2.146c-2.671-2.811-2.409-7.486-6.129-9.646
		c-0.192-0.111-0.267-0.645-0.203-0.94c0.822-3.854-1.388-5.77-4.503-7.113c-1.774-0.765-2.554-1.787-1.781-3.891
		c0.932-2.539,0.652-4.995-2.048-6.474c-1.093-0.599-1.066-1.376-1.036-2.469c0.076-2.735-1.168-4.786-3.773-5.863
		c-2.102-0.868-2.739-2.38-2.942-4.663c-0.331-3.719-1.01-4.106-4.661-4.695c-2.113-0.341-3.462-2.157-2.507-4.241
		c0.865-1.891,0.48-2.94-1.154-3.543c-2.006-0.741-3.028-1.907-2.861-4.083c0.066-0.878-0.297-1.696-1.082-2.117
		c-2.193-1.178-1.568-2.52-0.39-4.024c0.817-1.044,1.031-2.146-0.39-2.917c-1.999-1.084-2.205-2.525-1.439-4.607
		c0.673-1.828,0.176-3.667-2.333-2.886c-2.477,0.771-3.714-0.907-5.287-1.99c-1.106-0.762-1.332-1.871-0.639-3.071
		c0.498-0.863,1.131-1.659,1.541-2.56c0.511-1.123,0.563-2.368-0.452-3.228c-1.221-1.033-2.1-0.1-2.953,0.763
		c-0.322,0.325-0.792,0.503-1.172,0.734c-1.105-0.901-0.416-1.919-0.419-2.85c-0.008-2.964-1.289-4.976-4.081-6.22
		c-5.099-2.271-7.451-6.348-6.908-11.888c0.169-1.721-0.693-2.304-1.842-3.106c-2.301-1.605-4.93-2.828-6.514-5.333
		c-0.506-0.8-1.66-1.473-0.812-2.528c0.73-0.907,1.849-0.548,2.768-0.134c0.588,0.264,1.065,0.761,1.628,1.096
		c0.745,0.444-1.092,2.395,1.016,1.877c1.562-0.384,1.954-1.832,1.612-3.22c-0.62-2.522-1.971-4.747-4.28-7.685
		c5.496,2.203,10.499,1.565,14.716,4.301c1.264,0.82,3.291,1.452,3.236-1.689c-0.025-1.465,1.464-1.862,2.617-0.989
		c1.712,1.294,3.677,2.198,5.142,3.906c1.83,2.133,3.997,3.81,6.911,4.611c2.984,0.821,2.932,1.211,1.157,4.038
		c-1.362,2.17-1.187,2.69,1.394,2.941c3.214,0.312,4.396,3.18,6.106,5.099c0.646,0.726,3.586,1.433,1.881,3.893
		c-0.343,0.495,1.225,0.825,1.917,1.191c3.415,1.81,3.427,1.788,1.623,5.538c1.136,0.873,2.367-1.372,3.525,0.129
		c0.864,1.12,1.501,2.144,0.89,3.623c-0.757,1.828-0.358,2.848,1.922,2.733c1.564-0.079,1.825,1.3,1.852,2.467
		c0.057,2.551,1.419,4.346,3.087,6.061c1.662,1.709,3.062,3.487,2.026,6.199c-0.72,1.883,0.526,3.119,1.968,4.147
		c2.763,1.972,5.462,3.955,3.898,8.072c-0.326,0.86,0.634,1.444,1.019,2.157c1.396,2.579,2.895,5.134,4.214,7.724
		c1.144,2.245,2.115,4.393,2.792,6.813c0.378,1.353,2.13,1.458,3.228,2.18c1.689,1.111,3.58,1.982,2.284,4.677
		c-0.367,0.763-0.164,2.091,0.268,2.899c2.361,4.417,3.241,9.773,7.915,12.757c1.187,0.757,1.763,1.79,1.958,3.268
		c0.396,3.008,1.756,5.111,5.156,5.832c3.026,0.642,3.062,1.149,2.371,5.251c-0.173,1.025,0.253,1.56,0.976,2.051
		c1.755,1.192,2.556,3.018,3.263,4.907c1.11,2.967,2.577,5.621,5.061,7.783c1.251,1.088,2.547,2.384,2.896,4.403
		c0.335,1.938,1.598,3.592,3.147,4.982c1.458,1.309,2.822,2.632,2.553,5.057c-0.159,1.434,0.994,3.131,2.239,3.706
		c2.75,1.268,5.006,2.709,5.518,5.94c0.021,0.138,0.212,0.359,0.321,0.358c4.922-0.062,4.256,4.505,5.49,7.155
		c0.868,1.865,1.547,3.571,3.345,4.541c2.282,1.231,3.07,2.763,1.896,5.284c-0.884,1.899-0.022,2.821,2.078,2.617
		c3.429-0.334,4.221,2.819,5.876,4.696c0.784,0.889-0.532,1.708-1.181,2.427c-1.442,1.602-1.163,2.851,1.014,3.044
		c1.67,0.147,2.87,0.799,3.784,2.056c1.958,2.693,2.979,6.17,6.748,7.299c0.824,0.247,0.813,1.733,0.871,2.738
		c0.097,1.713,0.229,3.353,2.332,3.914c1.152,0.307,0.719,1.232,0.672,2.061c-0.064,1.152-0.012,2.331,0.166,3.471
		c0.24,1.541,0.836,3.007,2.601,3.262c2.221,0.321,1.257-2.226,2.337-2.966c0.221,0.138,0.462,0.205,0.479,0.31
		c1.041,6.046,3.269,11.394,8.64,14.945c0.392,0.258,0.532,1.036,0.913,1.147c4.8,1.404,6.127,6.278,9.345,9.241
		c1.983,1.826,2.53,3.847,0.759,6.756c2.381-0.144,4.163,0.296,5.479,1.897c1.259,1.531,1.787,3.167,1.311,5.097
		c-0.439,1.782,1.234,2.612,1.743,3.949c2.296,6.039,7.078,9.862,12.068,13.404c2.093,1.485,2.879,2.718,1.919,5.331
		c-0.848,2.309,0.338,3.829,2.491,5.636c2.965,2.488,7.565,4.253,7.037,9.814c-0.243,2.564,1.134,2.808,4.762,1.044
		c-0.987,4.362,1.204,7.053,4.444,9.197c3.098,2.05,4.956,4.783,5.059,8.644c0.053,2.017,1.752,3.151,3.04,4.412
		c5.256,5.142,8.98,11.359,12.645,17.641c1.044,1.79,1.606,4.196,4.303,4.41c0.799,0.063,1.234,0.432,1.207,1.221
		c-0.079,2.267,1.801,2.465,3.243,3.212c2.119,1.099,4.117,2.262,2.826,5.33c-0.615,1.462,0.723,2.62,1.615,3.416
		c3.318,2.958,4.593,7.156,6.829,10.756c1.241,2,2.415,3.929,4.396,5.331c2.171,1.537,4.327,3.167,4.837,6.089
		c0.079,0.451,0.426,0.93,0.782,1.245c4.129,3.647,5.422,5.73,6.529,10.219c0.937,3.8,3.981,6.431,5.614,9.875
		c2.229,4.703,5.721,8.397,10.025,11.302c0.994,0.671,0.993,1.5,0.982,2.568c-0.034,3.271,0.972,5.833,4.725,6.494
		c2.182,0.385,2.718,2.055,2.791,4.115c0.139,3.904,0.772,7.631,4.935,9.506c1,0.45,1.43,1.351,1.412,2.443
		c-0.019,1.179,0.137,2.314,0.614,3.412c1.15,2.646,1.895,2.825,4.763,0.984c0.212,1.835,0.433,3.617,0.62,5.402
		c0.091,0.864,0.409,2.129,1.138,1.972c3.657-0.788,3.235,1.911,3.852,3.982c0.417,1.405,1.097,2.946,2.137,3.913
		c3.436,3.201,4.648,8.009,8.246,11.051c0.794,0.672,1.117,1.638,1.335,2.63c0.252,1.153,0.872,2.132,1.382,3.178
		c1.324,2.719,5.699,2.235,6.005,6.064c0.243,3.031,2.688,4.89,4.546,6.99c2.701,3.054,6.817,4.827,7.653,9.595
		c0.261,1.485,2.583,2.428,4.099,3.479c2.233,1.551,4.516,2.759,4.179,6.533c-0.168,1.884,2.074,4.344,4.375,5.665
		c5.97,3.429,9.896,8.632,12.596,14.844c0.421,0.97,1.219,1.529,1.884,2.258c0.89,0.974,2.675,1.816,1.123,3.632
		c-0.148,0.174-0.097,0.785,0.079,0.93c4.202,3.454,3.994,10.532,10.15,12.367c0.9,0.269,1.354,0.965,1.582,1.785
		c0.976,3.524,3.571,5.948,5.806,8.614c0.527,0.628,1.102,1.415,1.814,1.658c4.809,1.641,7.324,5.353,9.142,9.757
		c0.189,0.459,0.355,1.052,0.724,1.293c6.057,3.973,6.896,11.491,11.309,16.567c1.545,1.778,1.932,4.17,3.447,6.037
		c1.534,1.89,2.625,3.381,5.346,4.38c3.245,1.192,5.591,4.862,8.277,7.509c0.371,0.366,0.026,0.923-0.271,1.335
		c-2.093,2.898-0.206,4.166,2.146,5.26c1.054,0.49,2.053,1.128,3.144,1.507c1.906,0.661,3.724,1.117,1.631,3.653
		c-0.982,1.191,0.085,2.217,1.059,2.889c4.137,2.853,7.35,6.574,10.175,10.664c0.51,0.739,1.231,1.011,1.983,1.386
		c1.78,0.889,4.537,1.275,2.832,4.431c2.279,0.529,1.521,3.737,4.237,4.35c2.638,0.595,5.471,2.049,4.556,5.923
		c-0.219,0.932,0.639,1.433,1.295,1.963c2.457,1.984,4.497,4.306,6.507,6.776c1.718,2.11,3.278,4.042,3.914,6.688
		c0.676,2.809,3.026,4.044,5.367,4.761c5.33,1.63,7.063,6.804,10.599,10.179c0.275,0.264,0.41,1.116,0.205,1.376
		c-2.413,3.067,0.068,3.812,2.133,5.074c1.67,1.021,3.053,2.523,4.507,3.874c0.333,0.309,0.738,1.055,0.598,1.284
		c-1.908,3.093,1.262,3.934,2.224,5.869c1.905,3.829,5.869,5.03,8.35,7.96c0.418,0.494,1.102,0.874,1.291,1.434
		c2.848,8.388,3.685,9.749,9.596,13.925c1.57,1.108,2.187,2.26,1.897,4.173c-0.306,2.028,0.371,3.855,2.758,3.831
		c1.69-0.018,1.781,1.008,2.245,2.06c1.973,4.481,4.925,7.825,9.163,10.684c5.06,3.411,9.17,8.267,9.832,14.92
		c0.193,1.939,0.813,2.49,2.848,2.264c2.645-0.293,4.261,1.507,3.594,4.201c-0.338,1.367-0.872,2.305,0.832,2.411
		c3.368,0.21,4.454,2.599,5.239,5.188c0.699,2.309,1.518,4.313,3.863,5.503c1.842,0.934,2.134,2.881,2.164,4.763
		c0.034,2.157,0.748,3.885,2.664,5.037c0.86,0.518,1.752,1.148,1.956,2.177c0.7,3.522,2.535,6.057,5.893,7.511
		c0.985,0.428,1.194,1.633,1.264,2.598c0.208,2.854,3.503,2.44,4.401,4.223c0.809,1.604-0.672,3.966,1.414,5.402
		c0.813,0.56,1.474,1.422,2.354,1.789c2.199,0.917,3.685,2.068,3.306,4.817c-0.221,1.605,0.711,2.524,2.477,2.104
		c1.07-0.255,2.119-0.066,2.73,0.778c2.703,3.734,5.942,7.323,5.677,12.333c-0.111,2.088,0.274,3.004,2.358,2.317
		c2.883-0.949,3.549,1.416,4.318,3.035c1.849,3.886,3.777,5.962,6.458,9.404c2.652,3.405,6.122,6.606,6.563,11.297
		c0.146,1.551,1.229,1.212,1.932,1.733c2.55,1.896,5.139,3.79,4.104,7.687c-0.554,2.085,1.398,3.273,2.194,4.838
		c1.713,3.368,3.65,6.364,7.401,8.346c3.07,1.621,5.459,4.845,6.534,8.497c0.645,2.191,1.853,3.693,3.751,5.038
		c2.498,1.769,5.344,3.685,4.066,7.629c-0.088,0.271,0.007,0.755,0.204,0.939c3.468,3.24,4.525,8.149,7.84,11.438
		c2.346,2.327,3.771,5.49,6.891,7.144c1.488,0.789,0.747,2.347,0.277,3.605C1453.101,889.776,1442.101,889.776,1431.1,889.776z"/>
	<path fill-rule="evenodd" clip-rule="evenodd" fill="#FFD571" d="M759.066,889.776c-0.899-2.759,0.089-5.622-0.596-8.359
		c1.206-1.123,3.225,0.168,4.029-1.58c0.813-1.765,0.896-3.708,0.126-5.354c-1.448-3.089-2.313-5.711-0.687-9.348
		c0.86-1.925,0.264-5.171,0.083-7.816c-0.129-1.887-1.48-2.772-2.745-3.913c-2.199-1.985-1.985-2.812,0.832-4.229
		c2.067-1.04,1.619-2.759,1.125-4.264c-0.401-1.223-1.475-2.207-2.095-3.379c-1.161-2.196-2.319-4.246-0.428-6.887
		c1.295-1.809,1.452-4.048-1.345-5.373c-1.233-0.584-1.47-1.952-0.084-2.766c1.232-0.724,3.22-0.563,3.394-2.455
		c0.216-2.339-0.456-4.605-1.462-6.721c-0.271-0.571-0.891-0.977-1.353-1.456c-1.024-1.064-1-2.098,0.245-2.911
		c1.943-1.27,2.076-3.004,1.019-4.741c-0.605-0.995-0.923-1.614-0.114-2.61c1.434-1.764,0.949-3.465-0.582-4.862
		c-1.354-1.236-1.833-2.704-1.715-4.475c1.315-0.79,1.776,2.157,2.777,0.869c1.081-1.391,0.977-3.854-0.531-4.452
		c-4.975-1.973-3.884-6.021-3.804-9.686c0.073-3.345,0.487-3.439,3.938-1.294c0.837-2.074,0.378-4.197,0.787-6.058
		c-0.996-0.817-1.354-0.152-1.771,0.325c-1.461,1.672-2.733,0.797-2.666-0.77c0.25-5.742-1.298-11.642,1.259-17.207
		c0.805-1.753,0.505-3.394,0.183-5.281c-1.041-6.103-2.735-12.225-1.376-18.475c1.951-0.289,1.096,2.043,2.843,2.091
		c0.42-2.066,0.854-4.201,1.323-6.516c-4.077,1.442-3.904,1.415-4.364-2.226c-0.604-4.791,1.232-9.436,0.587-14.216
		c-0.138-1.015,1.215-0.896,1.842-1.356c0.725-0.532,1.189-1.251,1.032-2.131c-0.287-1.604-1.619-0.575-2.43-0.883
		c-0.266-0.102-0.438-0.447-0.721-0.755c-0.015-1.594,1.732-2.258,2.223-3.683c0.602-1.751,1.464-3.524,0.271-5.251
		c-1.189-1.722-1.504-3.304-1.313-5.501c0.156-1.809-1.27-3.641,1.532-4.559c0.562-0.184,0.565-1.188,0.364-1.836
		c-0.192-0.623-0.466-1.265-0.861-1.774c-3.132-4.032-4.314-8.521-3.385-13.57c0.209-1.136,0.595-2.446,0.244-3.446
		c-2.39-6.806-0.199-13.858-1.271-20.721c-0.256-1.634-0.266-3.306-0.399-4.959c-0.058-0.717,0.128-1.58,0.778-1.653
		c4.471-0.498,3.09-3.948,3.264-6.492c0.134-1.963,0.016-4.001-1.463-5.559c-1.66-0.256-1.302,1.871-2.52,2.027
		c-0.654-0.096-0.828-0.565-0.871-1.076c-0.12-1.44,0.504-2.424,1.606-3.414c2.892-2.6,2.885-3.371,0.578-6.001
		c-2.37-2.703-2.472-3.379,0.626-5.234c1.881-1.127,2.225-2.506,1.771-4.127c-1.049-3.735-1.427-7.418-0.806-11.294
		c0.336-2.096-0.304-2.229-3.08-0.715c-0.387-1.637,0.524-2.85,1.127-4.154c1.024-2.22,2.674-4.376,0.335-6.837
		c-0.805-0.847,0.027-1.868,0.268-2.81c0.794-3.12,0.391-6.297,0.348-9.453c-0.014-1.004-0.146-2.274-1.196-2.549
		c-2.179-0.571-2.675-2.062-3.077-3.994c-0.558-2.685-0.749-5.511,0.219-7.873c1.109-2.707,2.099,0.772,3.648,0.639
		c0.105-1.533,0.215-3.125,0.315-4.585c-0.881-1.242-1.489-0.33-2.138,0.014c-1.526,0.81-2.515-0.073-2.396-1.363
		c0.675-7.31-1.688-15.095,3.321-21.754c1.23-1.636,1.76-3.457,0.92-5.461c-0.409,0.055-0.581,0.036-0.711,0.101
		c-1.171,0.584,0.051,3.162-2.048,2.753c-1.637-0.318-1.83-2.056-1.35-3.27c0.424-1.071-0.747-3.944,2.437-2.794
		c1.328,0.48,1.771-0.513,1.94-1.59c0.188-1.197-0.241-2.301-0.644-3.399c-0.77-2.102-0.859-4.095,0.047-6.289
		c1.022-2.477,0.605-5.246,0.758-7.89c0.104-1.808-0.925-2.98-2.257-4.188c-2.201-1.997-2.012-2.83,0.335-4.431
		c2.305-1.571,2.91-3.076,1.354-5.271c-2.361-3.33-1.955-6.45-0.254-9.785c1.118-2.192,1.296-4.212-0.449-6.458
		c-1.937-2.492-1.467-5.705-1.388-8.699c0.019-0.726,0.344-1.312,1.117-1.437c2.711-0.435,2.563-2.058,1.785-4.053
		c-1.07-2.74-1.134-5.781-3.199-8.261c-1.407-1.69-1.146-4.18-0.782-6.304c0.683-3.989,0.693-7.895,0.079-11.916
		c-0.49-3.211,0.655-6.512-0.094-9.83c-0.295-1.305,0.352-2.775,2.278-2.37c1.899,0.4,2.445-0.561,2.332-2.177
		c-0.324-4.621-0.725-9.223,0.075-13.859c0.233-1.354,0.758-3.578-2.398-2.668c-1.114,0.32-1.234-1.524-0.617-2.272
		c2.229-2.704,0.641-6.533,2.904-9.247c0.548-0.656,0.242-1.957-0.335-2.852c-0.456-0.707-0.908-1.337-0.534-2.281
		c0.879-2.219,2.573-4.607-1.199-5.993c-0.548-0.201-0.274-1.233-0.048-1.865c0.448-1.254,1-2.474,1.396-3.743
		c1.167-3.734,1.073-3.867-3.5-5.07c4.108-1.861,3.576-5.051,3.04-8.167c-0.513-2.988-0.734-5.936,0.033-8.919
		c0.245-0.955,0.382-2.01,0.252-2.977c-1.085-8.09-0.893-16.243-0.48-24.321c0.237-4.676-0.438-9.226-0.353-13.824
		c0.086-4.588-0.831-9.056-1.295-13.562c-0.176-1.707-0.695-2.929,0.615-4.403c0.975-1.095,0.651-2.685-0.274-3.711
		c-4.547-5.042-3.179-11.23-3.31-17.064c-0.076-3.386-0.524-7.04,2.216-9.873c-1.579-3.438-1.022-6.484,1.59-9.225
		c0.199-0.209,0.034-1.162-0.254-1.379c-2.626-1.971-2.563-3.846-0.17-6.018c0.897-0.814,0.58-2.176,0.393-3.348
		c-0.422-2.629-0.83-5.262-1.193-7.899c-0.198-1.444-0.794-2.923,0.371-4.293c0.437-0.514,0.71-1.454,0.245-1.866
		c-2.562-2.266-1.739-4.469-0.257-6.889c0.389-0.635,0.585-2.324-1.264-1.174c-0.671,0.417-1.298,0.42-1.694-0.289
		c-0.506-0.902-0.907-2.206-0.068-2.792c6.306-4.405,2.191-9.984,1.503-14.958c-0.308-2.223-2.144-3.948,0.755-5.803
		c1.352-0.865,0.415-2.247-0.432-3.449c-1.211-1.722-2.369-3.407-0.367-5.724c1.619-1.875-0.163-3.7-1.428-5.262
		c-0.73-0.903-2.165-0.974-2.626-2.192c0.107-0.316,0.125-0.699,0.324-0.902c0.886-0.902,2.972,0.256,3.194-1.686
		c0.256-2.214-2.595-0.977-3.154-2.443c4.661-3.284,4.934-7.135,0.717-10.973c-0.823-0.75-0.47-1.046,0.003-1.428
		c0.979-0.792,1.881-1.76,1.167-2.958c-1.456-2.444-2.292-4.639,0.307-6.917c0.545-0.478,0.334-1.604-0.319-2.283
		c-1.75-1.817-1.52-3.865-0.808-6.024c0.755-2.295,0.343-4.446-1.74-5.735c-2.002-1.239-1.747-2.947-2.267-4.856
		c-1.694-6.229-0.083-12.608-1.553-18.753c-0.321-1.344-0.116-2.359,1.325-2.72c1.714-0.429,2.509-1.494,2.567-3.208
		c0.08-2.313,0.58-4.684-0.765-6.822c-0.497-0.791-1.135-0.934-2.118-0.528c-2.583,1.066-1.713-0.92-1.588-2.036
		c0.048-0.418,0.544-0.802,0.872-1.169c3.334-3.733,3.541-6.349,0.624-11.122c-0.532-0.87-0.38-1.212,0.368-1.385
		c2.451-0.565,2.152-2.24,1.527-3.879c-0.928-2.438-0.864-4.709-0.154-7.27c1.115-4.02-0.096-8.017-2.406-11.249
		c-1.12-1.567-1.359-2.168-0.304-3.664c1.689-2.393,2.094-5.213,1.93-8.105c-0.066-1.183-0.305-2.342-1.21-3.189
		c-0.336-0.313-0.893-0.653-1.285-0.589c-0.882,0.142-0.742,0.89-0.635,1.567c0.092,0.579,0.642,1.285-0.654,1.771
		c-1.704-3.573-1.527-6.947,0.847-10.109c2.719-3.622,2.58-4.396-1.542-6.502c-2.654-1.357-3.269-5.604-1.251-8.653
		c2.136-3.227,2.135-3.226-0.528-5.782c-0.357-0.343-0.9-0.656-1.006-1.072c-1.256-4.939-3.184-9.833-1.77-15.056
		c0.65-2.398,1.658-4.698,2.425-7.068c1.024-3.171,0.566-3.712-3.188-3.88c-0.585-2.05,1.974-3.471,1.14-5.642
		c-0.36-0.94,0.67-1.312,1.439-1.678c5.099-2.421,5.094-2.431,6.257-7.519c2.489-0.118,1.856,2.973,3.616,3.554
		c0.632-0.012,0.826-0.463,1.004-0.926c0.503-1.31,1.26-2.764,2.815-2.005c1.663,0.812,0.595,2.312,0.068,3.477
		c-0.337,0.746-0.981,1.366-0.923,2.262c0.059,0.915,0.6,1.551,1.36,1.963c0.932,0.504,1.606,0.035,2.014-0.784
		c0.607-1.221,1.413-2.239,2.508-3.059c0.877-0.657,1.771-1.13,2.598-0.068c2.02,2.595,4.446,2.288,7.203,1.397
		c2.793-0.902,3.822-0.058,3.688,2.632c-0.102,2.087-1.64,4.083-0.304,6.284c0.259,0.427-0.292,0.751-0.769,1.041
		c-2.767,1.682-2.922,2.307-1.187,4.328c0.429,0.499,0.997,0.879,1.51,1.305c2.178,1.81,2.501,4.019,0.755,6.131
		c-1.675,2.026-1.117,3.441,0.314,5.239c2.102,2.638,1.935,5.43-0.126,7.954c-0.21,0.255-0.509,0.437-0.722,0.689
		c-1.286,1.526-2.044,3.454-0.662,4.975c1.499,1.65,2.193-1.521,4-1.214c0.393,2.01-0.173,4.143,0.681,6.235
		c0.779,1.911,0.952,4.333-1.826,5.434c-0.416,0.165-0.796,0.633-1.011,1.054c-0.573,1.122-0.598,2.322,0.312,3.251
		c1.411,1.44,2.339,0.077,3.312-0.986c1.937,6.067,1.817,12.16,2.408,18.152c0.275,2.791,0.011,2.955-4.588,4.223
		c3.09,1.897,1.692,5.74,4.45,7.939c1.332,1.062,0.432,3.293-1.387,4.016c-2.638,1.049-2.009,3.676-1.017,4.281
		c2.274,1.386,2.43,2.039,0.404,3.703c-1.108,0.912-0.81,2.344-0.211,3.699c1.238,2.804,1.754,5.71,0.639,8.731
		c-0.221,0.598-0.423,1.738-0.175,1.893c3.508,2.185,1.497,6.144,2.993,9.089c1.977,3.889,0.973,8.481,1.286,13.028
		c-1.657-0.055-2.994-2.979-4.562-0.543c-1.107,1.719-0.19,3.95,2.184,4.863c1.616,0.622,2.229,1.428,1.479,2.961
		c-0.863,1.764-0.267,3.259,0.688,4.682c1.188,1.77,1.2,3.766,1.327,5.761c0.088,1.389,0.076,2.635-1.538,3.282
		c-2.332,0.936-2.091,2.488-0.438,3.748c2.098,1.598,2.682,3.333,2.358,6.014c-0.35,2.895,2.02,5.578,1.351,8.729
		c-0.264,1.245,0.448,2.656-0.545,3.836c-0.312,0.37-0.759,0.951-0.312,1.271c2.806,2.011,2.089,4.148,0.392,6.407
		c-0.615,0.818-0.059,1.498,0.298,2.271c1.531,3.328,2.129,6.534-0.697,9.68c-1.779,1.981-1.693,4.235,0.313,6.244
		c0.964,0.965,1.589,2.148,1.667,3.545c0.306,5.489,1.768,10.843,1.847,16.363c0.031,2.159,0.521,4.336-0.961,6.249
		c-0.578,0.747-0.528,1.557-0.052,2.322c1.523,2.447,1.138,5.114,0.994,7.78c-0.204,3.791,0.132,7.563,0.322,11.346
		c0.567,11.267,1.342,22.556,0.888,33.861c-0.08,1.991-0.314,3.742-1.523,5.598c-1.579,2.426-1.065,5.553-0.127,8.158
		c0.75,2.081,1.675,3.817,0.702,6.119c-0.578,1.369,1.271,2.72,0.586,4.474c-0.807,1.082-2.085-0.201-3.12,0.321
		c-0.855,0.432-1.604,1.498-1.05,1.905c2.827,2.076,1.357,5.678,3.389,7.886c-1.201,1.146-3.367,0.161-3.576,2.375
		c-0.191,2.028,0.797,3.176,2.514,3.808c2.264,0.833,2.633,2.529,2.824,4.718c0.624,7.142-0.233,14.267,0.065,21.412
		c0.387,9.265,0.737,18.621,0.092,27.808c-0.46,6.544,2.077,12.601,1.188,19.027c-0.728,5.266-0.077,10.591,0.096,15.891
		c0.077,2.333-0.094,4.667-0.912,6.9c-0.71,1.936-0.917,3.82,0.059,5.8c1.219,2.469,0.701,4.532-1.901,5.835
		c-1.961,0.982-2.285,2.71-2.116,4.655c0.107,1.227,0.567,2.062,1.82,2.685c3.502,1.743,3.935,2.795,1.784,5.87
		c-1.518,2.17-1.603,3.544,0.261,5.503c1.432,1.506,0.962,3.809,0.982,5.788c0.025,2.646-0.634,5.259-0.084,7.953
		c0.367,1.8-0.43,3.245-2.417,3.78c-0.779,0.21-1.663,0.421-1.737,1.493c0.343,0.896,1.014,0.713,1.64,0.469
		c1.668-0.648,2.073,0.133,2.03,1.643c-0.099,3.482-0.791,6.967,0.017,10.452c0.071,0.309,0.073,0.874-0.087,0.96
		c-2.832,1.522-2.315,3.842-1.484,6.195c0.773,2.189,0.178,4.452,0.624,6.755c1.394,7.183,1.359,14.603,0.338,21.819
		c-0.374,2.643-3.857,4.814-0.771,7.951c0.302,0.308-0.915,0.709-1.462,1.032c-0.938,0.552-1.177,1.29,0.021,1.726
		c3.006,1.091,1.388,2.562,0.173,3.584c-2.066,1.737-2.154,3.046,0.1,4.675c1.405,1.015,2.24,2.739,1.878,4.41
		c-0.673,3.099-0.193,6.236-0.398,9.279c-1.317,0.213-1.175-0.681-1.431-1.211c-0.854-1.772-1.801-1.297-2.429,0.062
		c-0.936,2.024,0.011,6.129,2.299,6.897c2.218,0.744,1.351,1.803,1.293,2.898c-0.137,2.613-2.62,4.205-3.092,6.695
		c3.704,1.465,3.721,1.468,3.223,5.435c-0.229,1.835,0.022,3.655,0.027,5.479c0.008,2.906,1.103,5.978-0.994,8.675
		c-0.263,0.338-0.442,1.226-0.301,1.32c2.953,1.969,2.063,4.099,0.393,6.337c-0.437,0.584-0.22,1.211,0.15,1.835
		c2.138,3.604,2.621,7.395,1.315,11.424c-0.243,0.748-0.218,1.675-0.038,2.454c1.402,6.06,1.703,12.1,0.432,18.251
		c-0.353,1.706,0.186,3.623,0.447,5.423c0.413,2.84,0.153,5.556-0.437,8.394c-0.657,3.168-0.635,6.418-2.355,9.384
		c-0.77,1.326,0.682,2.779,0.674,4.739c2.19-1.217,0.806-3.478,2.142-4.445c1.429,2.119,1.429,2.119,1.145,9.565
		c-1.418-0.707-2.841-2.924-4.291-0.646c-1.183,1.857-0.301,3.676,2.438,5.068c0.804,0.408,1.746,0.958,1.352,1.768
		c-1.157,2.379,0.104,4.112,1.117,6.021c0.663,1.251,0.408,2.564-0.213,3.842c-0.432,0.887-0.672,1.865-1.023,2.792
		c-0.829,2.185,2.992,3.817,1.366,5.305c-2.294,2.1-0.421,4.029-0.788,5.961c-0.402,2.128,0.619,3.873,1.581,5.643
		c0.322,0.594,0.355,1.653-0.284,1.75c-3.405,0.52-1.786,2.1-0.765,3.435c0.86,1.124,1.398,2.239,1.008,3.669
		c-1.033,0.996-1.807-0.298-2.725-0.299c-1.222-0.003-2.012,0.344-1.462,1.729c1.206,3.041,2.078,6.145,2.129,9.448
		c0.008,0.468,0.146,1.08,0.461,1.371c1.107,1.022,2.478,1.909,1.954,3.705c-0.812,2.78,0.006,6.202-2.589,8.262
		c-2.792,2.217-2.199,4.737-1.637,7.542c2.129-0.426,0.858-3.036,2.692-3.367c2.801,2.895,2.943,4.614,0.634,7.521
		c-2.438,3.066-2.438,3.066-2.324,6.582c1.489-0.513,1.443-2.696,3.211-2.894c1.299,0.59,0.721,1.672,0.604,2.597
		c-0.479,3.822-0.306,7.646-0.112,11.476c0.231,4.554,0.992,9.096-1.704,13.416c-0.837,1.339-1.524,3.858,1.05,5.146
		c1.217,0.608,0.632,1.708,0.512,2.652c-0.226,1.768-1.582,2.887-2.447,4.29c-0.904,1.47-1.804,3.025,1.277,2.447
		c1.787-0.335,2.021,0.835,1.871,2.093c-0.854,7.104,0.237,14.239-0.429,21.356c-0.236,2.526-1.829,5.09,0.131,7.775
		c0.609,0.835-0.307,2.252-1.914,2.14c-1.755-0.125-2.398,0.898-2.408,2.447c-0.01,1.652-0.247,3.7,1.979,3.992
		c2.771,0.364,2.732,2.254,3.158,4.268c0.753,3.562-0.275,6.954-0.58,10.413c-0.1,1.13-0.937,2.267-0.222,3.38
		c2.061,3.211,1.632,6.709,1.268,10.19c-0.142,1.363-0.055,2.645,0.438,3.921c1.303,3.378,0.681,6.924,0.854,10.399
		c0.042,0.836,0.003,1.851-0.913,2.124c-3.543,1.061-1.83,2.815-0.614,4.428c0.738,0.979,1.119,1.67-0.411,2.18
		c-0.741,0.246-1.181,0.957-0.402,1.453c2.806,1.789,1.241,3.231-0.246,4.724c-0.578,0.58-1.292,1.071-1.221,2.202
		c0.244,0.256,0.53,0.666,0.914,0.942c4.117,2.968,4.627,5.015,1.902,9.081c-1.493,2.229-3.253,4.267-2.994,7.191
		C779.734,889.776,769.4,889.776,759.066,889.776z M776.431,106.337c-2.501,3.7-2.437,6.284-0.036,9.517
		C777.301,112.549,777.271,109.964,776.431,106.337z"/>
	<path fill-rule="evenodd" clip-rule="evenodd" fill="#FFD571" d="M-84.978,478.754c1.553-0.109,2.841-0.628,3.911-1.882
		c3.054-3.576,6.749-6.352,10.948-8.48c2.904-1.472,4.395-4.473,6.865-6.472c6.193-5.006,12.805-9.422,19.209-14.127
		c6.656-4.891,13.002-10.18,19.686-15.058c5.134-3.747,10.275-7.651,14.842-12.373c3.903-4.036,8.086-8.344,13.16-11.11
		c3.569-1.946,6.326-4.744,9.501-7.054c9.653-7.023,18.86-14.78,29.524-20.28c3.412-1.759,6.594-3.514,9.53-6.047
		c2.268-1.956,5.267-3.367,8.175-4.176c2.035-0.566,3.893-1.247,5.174-2.692c3.106-3.505,8.23-4.14,11.023-8.017
		c0.267-0.369,0.804-0.619,1.266-0.761c8.198-2.527,14.168-8.856,21.604-12.688c1.001-0.516,1.768-1.497,2.94-1.808
		c4.373-1.16,7.617-4.044,10.615-7.193c1.66-1.743,3.312-3.274,5.841-3.458c1.04-0.076,1.876-0.604,2.685-1.22
		c3.844-2.925,7.707-5.81,12.24-7.656c0.889-0.362,1.885-1.031,2.319-1.835c1.468-2.715,4.471-3.269,6.493-4.974
		c4.092-3.451,9.076-5.278,13.237-8.376c6.659-4.959,13.448-9.728,20.194-14.56c5.943-4.257,12.502-7.589,18.533-11.581
		c9.906-6.556,20.029-12.975,29.033-20.806c2.787-2.424,5.182-5.045,8.953-5.947c1.021-0.244,1.864-1.338,2.732-2.107
		c2.984-2.646,5.984-5.146,9.615-7.033c3.176-1.65,5.755-4.434,8.648-6.65c1.45-1.11,2.881-2.45,4.549-3.038
		c7.757-2.732,12.981-9.083,19.547-13.505c7.717-5.198,14.938-11.167,23.256-15.422c3.866-1.977,6.851-5.09,10.613-7.198
		c3.682-2.062,6.916-4.907,10.438-7.272c4.666-3.134,9.677-5.7,13.214-10.404c1.622-2.158,4.021-3.997,7.019-4.449
		c0.484-0.073,1.055-0.18,1.398-0.483c3.815-3.367,8.188-6.014,12.142-9.105c3.543-2.77,7.022-5.364,11.08-7.223
		c0.291-0.133,0.771,0.008,0.962-0.181c5.153-5.119,12.887-6.527,17.655-12.043c2.232-2.582,6.695-0.377,7.301-2.649
		c0.966-3.625,3.4-4.047,5.934-5.073c0.914-0.371,1.949-0.778,2.569-1.484c3.901-4.441,9.553-6.492,13.92-10.33
		c1.918-1.686,4.318-3.128,7.091-3.464c1.581-0.191,2.635-1.31,3.779-2.288c6.348-5.425,13.393-9.559,21.02-13.104
		c5.945-2.764,11.82-6.04,17.35-9.661c2.732-1.79,4.861-4.458,8.328-5.096c0.609-0.112,1.34-0.516,1.678-1.013
		c3.477-5.119,9.569-6.398,14.13-9.821c3.964-2.975,8.991-3.732,12.603-7.098c3.138,0.392,4.838-1.976,7.185-3.253
		c2.507-1.363,4.208-3.517,6.582-4.779c4.61-2.452,8.126-6.793,13.606-7.782c0.848-0.153,1.537-1.19,2.301-1.817
		c0.766-0.628,1.45-1.638,2.311-1.819c6.703-1.415,11.201-6.423,16.442-10.123c5.947-4.198,11.178-9.447,17.269-13.392
		c3.91-2.533,7.211-6.272,12.076-7.284c0.458-0.095,1.019-0.403,1.246-0.783c3.021-5.031,8.332-7.365,12.834-10.509
		c4.68-3.269,8.384-7.597,13.024-10.822c4.448-3.092,8.909-6.179,13.941-8.31c0.741-0.313,1.452-0.873,1.979-1.489
		c3.129-3.664,7.348-5.672,11.536-7.735c1.9-0.937,3.779-2.458,5.658,0.17c0.584,0.816,1.486,0.312,2.202-0.196
		c0.892-0.634,1.802-2.014,2.946-0.815c1.156,1.211,1.707,2.844,1.098,4.608c-0.309,0.895-1.748,1.192-1.188,2.894
		c2.297-0.654,5.536,0.668,5.872-3.577c0.049-0.61,0.615-0.754,1.12-0.639c0.984,0.225,2.259,0.539,2.191,1.689
		c-0.188,3.209,1.479,3.165,3.764,2.488c2.573-0.763,4.588,0.724,6.383,2.084c2.236,1.694,2.001,5.281-0.356,6.818
		c-1.831,1.193-3.661,2.301-4.897,4.159c-0.377,0.566-0.873,1.212-1.564,1.012c-4.627-1.339-6.384,2.714-9.054,4.892
		c-1.099,0.896-1.501,2.68-3.47,2.121c-0.146-0.042-0.423-0.019-0.477,0.071c-2.953,4.974-9.324,4.106-13.139,7.68
		c-1.117,1.046-2.028,2.094-2.797,3.41c-1.367,2.343-2.965,4.5-6.256,3.988c-1.01-0.157-2.617,0.225-2.637,0.964
		c-0.098,3.684-3.754,3.267-5.439,5.062c-1.928,2.053-3.99,3.983-6.051,5.907c-0.719,0.671-1.7,1.749-2.4,1.636
		c-3.767-0.606-5.289,2.215-7.174,4.412c-0.996,1.162-2.014,2.146-3.408,2.822c-2.406,1.167-4.704,2.507-6.236,4.841
		c-0.355,0.54-0.904,1.301-1.408,1.337c-4.139,0.293-6.432,3.013-8.626,6.064c-0.497,0.691-1.746,0.877-2.679,1.212
		c-1.9,0.681-3.59,1.285-4.205,3.716c-0.577,2.283-2.656,3.293-5.02,3.344c-3.438,0.074-6.029,1.615-7.955,4.398
		c-0.283,0.41-0.543,1.094-0.898,1.155c-3.867,0.658-4.957,4.608-7.587,6.38c-4.417,2.976-8.698,6.255-14.004,8.111
		c-3.081,1.078-7.698,0.511-9.258,4.88c-5.554,1.105-10.075,3.943-13.828,8.131c-0.198,0.222-0.937-0.053-1.425-0.077
		c-3.019-0.151-5.287,1.262-6.288,3.95c-0.979,2.631-2.502,3.81-5.198,3.377c-1.333-0.214-1.882,0.349-2.019,1.531
		c-0.247,2.14-1.827,2.987-3.507,3.852c-2.659,1.369-5.194,3.475-7.857,4.233c-6.363,1.813-10.813,6.438-16.26,9.536
		c-0.413,0.235-1.029,0.541-1.377,0.397c-3.807-1.578-5.49,0.894-7.111,3.593c-1.699,2.826-4.648,4.131-7.25,5.854
		c-0.586,0.389-1.146,0.388-1.862,0.201c-2.701-0.706-5.953,0.61-6.708,3.283c-0.715,2.533-1.235,3.64-3.939,2.032
		c-1.681-1-2.807,0.332-3.483,1.79c-1.624,3.5-3.959,5.657-8.153,4.711c-0.434-0.098-1.076,0.037-1.412,0.315
		c-3.926,3.258-9.253,4.404-12.434,8.989c-1.398,2.016-3.452,4.542-6.881,4.26c-1.439-0.119-2.396,1.054-2.717,2.5
		c-0.5,2.24-1.906,3.513-4.143,3.639c-1.23,0.069-1.74,0.587-2.108,1.655c-0.35,1.017-1.238,1.687-2.282,1.688
		c-4.897,0.002-7.663,3.514-10.496,6.599c-2.91,3.169-6.969,3.738-10.512,5.423c-2.249,1.069-4.369,2.115-6.197,3.753
		c1.07,1.363,2.027-0.653,2.842,0.476c-0.201,1.157-1.169,1.682-2.07,1.92c-9.281,2.454-16.496,8.507-23.629,14.326
		c-3.715,3.03-7.039,6.722-10.77,9.87c-1.489,1.257-2.73,3.061-5.133,2.464c-0.508-0.126-1.149,0.017-1.136,0.613
		c0.092,3.965-3.038,3.794-5.54,4.255c-1.064,0.196-1.637,0.403-2.219,1.473c-2.342,4.306-6.617,6.758-10.808,8.221
		c-3.483,1.215-5.86,3.344-8.497,5.441c-0.511,0.406-0.967,1.402-1.359,1.357c-3.864-0.445-5.297,2.242-7.158,4.848
		c-1.018,1.423-2.717,3.07-5.137,2.209c-1.327-0.472-2.512,0.121-2.787,1.373c-0.57,2.595-2.504,3.362-4.631,3.923
		c-2.443,0.645-4.083,2.143-5.111,4.386c-0.825,1.8-2.02,3.122-4.188,2.891c-4.563-0.485-7.079,2.567-9.216,5.709
		c-1.443,2.122-2.659,3.704-5.485,3.192c-0.986-0.179-2.021,0.335-2.732,1.042c-1.555,1.543-1.107,4.904-4.983,4.408
		c-2.477-0.317-3.793,3.038-6.329,3.659c-1.979,0.484-3.259,2.438-3.613,3.871c-0.811,3.285-3.68,4.131-5.648,6.019
		c-0.341,0.326-0.828,0.603-1.286,0.686c-4.845,0.885-5.974,1.51-8.308,4.845c-1.001,1.43-2.436,2.186-3.984,2.851
		c-4.043,1.737-8.448,2.66-10.57,7.557c-0.682,1.574-3.639,2.864-5.619,3.578c-2.372,0.854-3.749,2.552-5.624,3.776
		c-2.589,1.69-4.575,4.69-8.222,4.522c-1.559-0.072-2.34,0.904-2.986,2.203c-1.49,2.991-3.42,5.272-7.33,4.347
		c-1.463-0.346-2.59,0.466-3.172,1.842c-0.322,0.761-0.449,1.614-1.351,1.96c-5.201,1.998-7.913,7.257-12.788,9.742
		c-1.569,0.801-3.328,1.578-4.371,3.227c-0.258,0.405-0.721,0.976-1.085,0.974c-6.536-0.043-9.08,6.271-14.005,8.793
		c-1.217,0.624-2.251,1.15-3.678,1.129c-3.22-0.046-6.842,2.619-7.849,5.667c-0.554,1.675-1.829,2.372-3.336,2.614
		c-2.082,0.335-3.769,1.183-5.094,2.837c-1.001,1.252-2.486,1.584-3.981,1.865c-2.961,0.559-5.121,2.213-6.689,4.775
		c-1.228,2.008-2.457,4.201-5.481,2.727c-0.239-0.117-0.609,0.035-0.919,0.062c0.526,4.619-5.527,2.526-6.233,6.077
		c-0.138,0.688-1.905,1.788-2.316,1.568c-2.745-1.471-3.765,0.951-5.532,1.953c-2.264,1.283-5.069,1.643-7.263,3.007
		c-2.137,1.329-5.103,1.794-6.455,3.554c-2.685,3.5-6.36,4.707-10.067,6.197c-1.073,0.432-2.273,1.078-2.24,2.433
		c0.068,2.886-2.164,3.411-4.01,3.374c-2.443-0.048-3.449,1.039-4.625,2.906c-1.742,2.767-4.998,3.703-7.799,5.004
		c-1.816,0.843-3.605,1.316-4.221,3.539c-0.291,1.053-1.273,1.755-2.336,1.407c-3.027-0.99-4.175,0.685-5.213,3.099
		c-0.819,1.902-2.716,3.732-4.477,3.628c-4.227-0.252-5.654,3.018-7.633,5.327c-3.82,4.458-8.375,8.27-12.908,11.656
		c-4.441,3.316-9.041,6.4-12.785,10.48c-1.971,2.146-5.175,0.417-6.721,2.648c-1.314,1.898-2.076,4.168-5.057,3.925
		c-0.794-0.064-1.604,0.623-1.957,1.396c-1.059,2.307-2.062,4.596-5.313,3.802c-2.134,3.288-6.461,3.993-8.587,7.293
		c-0.27,0.419-0.623,0.792-0.85,1.231c-1.501,2.896-6.188,1.472-7.019,4.873c-0.825,3.38-2.823,4.941-5.968,5.755
		c-1.281,0.332-2.164,1.505-2.818,2.715c-1.535,2.838-3.977,4.549-7.09,4.979c-3.635,0.503-4.599,4.253-7.346,5.629
		c-2.676,1.342-5.723,2.004-6.314,5.616c-0.154,0.938-1.025,1.388-1.74,1.655c-2.406,0.898-5.029,1.437-5.622,4.548
		c-4.966,1.774-8.311,6.071-12.962,8.328c-0.434,0.21-0.975,0.195-1.467,0.284C-84.978,503.422-84.978,491.088-84.978,478.754z"/>
	<path fill-rule="evenodd" clip-rule="evenodd" fill="#FFD571" d="M1587.109,388.75c-3.835-4.45-9.428-6.092-14.298-8.875
		c-1.427-0.816-3.145-1.186-4.345-2.387c-3.758-3.758-8.683-5.383-13.374-7.441c-0.457-0.199-0.99-0.275-1.389-0.551
		c-8.082-5.598-17.178-9.482-25.312-14.986c-0.413-0.28-0.75-0.714-1.195-0.893c-7.117-2.863-13.045-7.823-19.782-11.261
		c-3.947-2.015-7.869-4.197-11.922-5.951c-4.312-1.867-7.923-4.772-12.024-6.935c-8.921-4.703-17.672-9.727-26.68-14.3
		c-7.249-3.681-14.03-8.277-21.216-12.096c-9.246-4.913-18.628-9.585-28.075-14.101c-4.374-2.091-7.989-5.325-12.363-7.427
		c-2.244-1.079-4.593-1.889-6.829-2.986c-11.17-5.478-22.642-10.378-33.581-16.274c-6.706-3.615-13.887-6.084-20.551-9.922
		c-6.897-3.972-14.528-6.996-21.851-10.406c-6.632-3.089-13.162-6.413-19.633-9.831c-3.116-1.646-6.492-2.578-9.713-3.887
		c-5.272-2.143-10.043-5.205-15.197-7.469c-5.483-2.408-10.832-5.007-16.112-7.831c-6.263-3.351-12.965-5.847-18.984-9.71
		c-3.378-2.168-7.46-2.682-11.044-4.561c-8.037-4.214-16.398-7.807-24.484-11.933c-10.189-5.2-20.457-10.214-30.833-15.039
		c-10.036-4.667-19.685-10.163-29.611-15.075c-8.465-4.188-17.043-8.157-25.651-12.043c-4.553-2.056-8.939-4.356-13.328-6.741
		c-4.922-2.674-10.151-4.852-15.159-7.428c-7.976-4.102-15.963-8.181-23.875-12.402c-2.36-1.26-4.703-2.497-7.245-3.326
		c-4.931-1.606-9.023-4.875-13.591-7.19c-4.225-2.142-8.605-4.151-12.788-6.473c-5.782-3.209-11.588-6.438-17.706-9.065
		c-6.711-2.881-13.444-5.827-19.786-9.419c-5.774-3.271-11.643-6.329-17.551-9.324c-9.189-4.659-18.419-9.242-27.641-13.84
		c-2.545-1.269-4.905-2.724-7.002-4.721c-3.039-2.895-7.438-3.502-10.794-5.949c-0.519-0.379-1.334-0.362-1.835-0.754
		c-6.722-5.274-14.42-8.873-21.839-12.972c-3.024-1.671-5.562-4.199-9.096-5.007c-0.778-0.178-1.579-0.656-2.164-1.212
		c-6.368-6.058-14.915-8.456-22.081-13.182c-4.131-2.724-7.84-6.144-12.605-7.879c-1.095-0.398-2.048-1.153-2.62-2.227
		c-0.981-1.837-2.262-3.265-4.409-3.75c-0.828-0.188-1.659-0.682-1.685-1.616c-0.037-1.35,1.228-1.317,2.112-1.666
		c2.865-1.126,5.723-2.269,8.571-3.4c-0.543-2.216-3.104-1.497-3.893-3.451c0.86-1.771,3.003-2.097,4.792-4.022
		c0.783,5.207,4.558,5.902,8.109,6.263c3.45,0.351,6.628,2.259,10.229,1.597c1.094-0.201,1.795,0.658,2.464,1.438
		c2.35,2.741,5.492,4.181,8.807,5.361c1.087,0.387,2.625,0.699,3.063,1.522c2.516,4.714,8.041,5.083,11.458,8.161
		c7.635,6.878,17.575,9.94,25.481,16.305c2.384,1.919,5.298,3.559,8.766,2.894c0.675-0.129,1.228,0.201,1.699,0.79
		c3.565,4.443,6.919,6.159,11.661,7.94c5.346,2.008,11.211,3.377,14.954,8.38c0.386,0.515,0.934,1.071,1.516,1.25
		c4.459,1.365,7.401,5.538,11.765,6.748c7.24,2.007,13.084,6.907,20.185,9.093c3.385,1.042,6.34,2.968,9.218,4.928
		c4.79,3.262,9.856,5.843,15.181,8.187c6.57,2.893,13.163,5.74,19.771,8.547c1.4,0.595,2.54,1.551,3.8,2.337
		c3.32,2.072,6.208,4.9,10.56,5.174c2.096,0.131,3.765,2.029,5.328,3.539c1.331,1.286,2.652,2.611,4.538,2.955
		c4.695,0.856,8.227,3.971,12.304,5.968c3.57,1.749,6.648,4.94,11.132,4.933c2.836-0.005,4.955,1.857,6.679,3.967
		c1.548,1.896,3.438,3.357,5.805,3.608c5.58,0.593,9.655,4.187,14.177,6.834c1.9,1.113,3.537,2.29,5.901,2.188
		c2.854-0.124,5.021,1.695,7.098,3.325c1.86,1.459,3.583,2.977,6.109,3.05c0.479,0.014,1.133,0.129,1.396,0.451
		c2.865,3.516,7.229,3.794,11.067,5.177c2.838,1.023,5.466,2.251,7.808,4.281c2.802,2.428,7,2.185,9.883,4.609
		c4.359,3.667,10.214,4.369,14.862,7.772c2.527,1.851,6.356,2.226,9.371,4.091c1.813,1.121,3.678,2.134,5.404,3.439
		c3.609,2.729,8.001,3.738,12.212,5.067c1.594,0.503,3.249,0.792,4.591,1.835c5.893,4.584,12.696,7.445,19.489,10.317
		c1.421,0.601,2.572,1.516,3.71,2.492c1.54,1.319,3.282,2.288,5.207,2.899c5.771,1.832,11.456,3.493,16.804,6.793
		c4.937,3.047,10.855,4.615,16.093,7.418c1.328,0.71,2.721,1.173,3.616,2.505c0.354,0.527,0.936,1.208,1.468,1.26
		c5.201,0.509,8.881,4.351,13.541,6.132c5.057,1.933,9.603,5.168,14.645,7.349c2.292,0.991,4.472,2.179,6.95,2.674
		c1.32,0.263,2.576,0.747,3.602,1.646c2.299,2.017,4.703,3.295,8.015,3.281c2.472-0.01,4.573,1.989,6.309,3.765
		c2.228,2.28,4.892,3.065,7.89,3.819c4.965,1.25,9.801,3.135,13.776,6.584c1.665,1.446,3.508,2.212,5.612,2.938
		c3.617,1.248,7.473,2.304,10.491,4.852c2.991,2.526,6.74,3.644,10.143,5.151c5.33,2.361,10.424,5.129,15.574,7.792
		c2.671,1.38,5.59,1.955,8.246,3.475c6.316,3.615,12.704,7.334,19.503,9.796c4.238,1.535,7.964,3.934,12.133,5.445
		c2.372,0.86,4.635,1.754,5.789,4.328c0.49,1.094,1.771,1.768,2.906,1.714c5.763-0.269,9.24,3.845,13.064,6.966
		c3.223,2.63,7.141,3.538,10.684,5.247c3.707,1.786,6.674,4.736,10.764,6.012c1.713,0.534,3.322,1.585,5.338,1.857
		c3.256,0.438,5.793,2.538,7.74,5.027c0.973,1.244,1.892,2.543,3.338,2.755c4.063,0.595,7.15,3.51,11.067,4.383
		c0.621,0.138,1.477,0.405,1.721,0.875c2.586,4.967,8.186,5.298,12.206,8.034c0.395,0.269,0.955,0.502,1.404,0.451
		c4.707-0.532,6.971,4.099,10.929,5.119c0.524,2.752,3.163,2.677,4.974,3.439c4.569,1.922,8.758,3.98,12.545,7.556
		c2.898,2.738,8.12,2.753,10.733,6.659c2.539-0.811,4.087,1.412,5.507,2.495c4.932,3.764,10.834,5.146,16.28,7.614
		c2.399,1.087,3.951,2.983,5.112,5.266C1587.109,373.416,1587.109,381.083,1587.109,388.75z"/>
	<path fill-rule="evenodd" clip-rule="evenodd" fill="#FFD571" d="M-84.978,104.735c3.322-2.34,7.164-3.353,10.973-4.593
		c10.134-3.301,20.623-5.158,30.863-7.976c4.807-1.323,10.309-0.789,14.287-4.69c4.289,0.412,7.451-3.437,11.767-3.098
		c1.104,0.087,2.432-0.23,3.364-0.822c5.935-3.758,13.18-4.521,19.035-8.427c0.41-0.274,0.879-0.526,1.355-0.629
		c2.926-0.63,5.841-1.511,8.803-1.73c2.968-0.22,4.6-2.929,7.697-3.165c3.258-0.249,7.012-0.258,9.443-3.461
		c0.552-0.727,1.756-1.077,2.779-0.698c1.264,0.468,2.172,0.303,3.029-0.828c0.875-1.155,2.104-1.541,3.569-1.022
		c0.43,0.152,1.132,0.227,1.419-0.012c4.922-4.087,11.25-4.648,16.953-6.726c5.287-1.926,10.761-3.325,16.408-3.906
		c3.018-0.311,5.895-1.017,8.1-3.417c0.564-0.615,1.601-2.343,2.308,0.112c0.164,0.569,0.812,0.142,1.208-0.128
		c7.436-5.071,15.645-7.89,24.631-8.386c1.051-0.058,1.93-0.278,2.724-0.985c1.646-1.467,3.396-2.69,5.805-2.233
		c0.946,0.18,1.501-0.513,2.122-1.078c0.608-0.554,1.457-1.561,1.934-1.426c2.711,0.768,4.377-1.676,6.568-1.938
		c3.014-0.359,5.82-1.751,8.627-2.021c5.537-0.531,10.268-3.067,15.396-4.47c3.312-0.906,6.701-2.055,10.318-2.365
		c4.017-0.344,7.966-1.907,11.855-3.209c5.349-1.791,10.543-4.182,16.426-3.085c1.449,0.27,2.449-0.784,3.648-1.312
		c2.645-1.163,5.23-3.163,8.395-1.219c0.486,0.298,1.453,0.396,1.881,0.111c2.955-1.973,6.643-1.673,9.742-3.433
		c3.354-1.904,7.314-1.984,11.163-1.896c0.157,0.004,0.313,0.106,0.468,0.17c3.195,1.33,5.306-2.699,8.527-1.658
		c2.967,0.959,5.916,1.066,8.319-1.538c0.302-0.326,0.89-0.496,1.363-0.539c6.897-0.626,13.584-2.737,20.396-3.397
		c4.038-0.391,7.862-1.97,11.965-1.751c0.9,0.048,1.839-0.653,2.763-1.001c0.773-0.292,1.534-0.741,2.332-0.826
		c2.596-0.277,5.094,2.505,7.923-0.357c1.799-1.82,5.151-0.455,7.468-2.046c0.881-0.605,1.931-0.043,2.86,0.344
		c0.968,0.404,2.09,0.625,2.843-0.124c1.727-1.718,4.064-1.2,5.971-1.923c3.929-1.489,8.412-0.737,11.899-2.402
		c4.112-1.962,8.456-2.707,12.614-4.223c7.401-2.699,15.054-4.016,22.997-3.868c3.759,0.07,6.62,1.452,9.359,3.804
		c1.022,0.878,2.168,3.708,4.19,0.625c0.588-0.895,1.434,0.377,1.79,1.039c1.11,2.062,2.569,2.978,4.898,1.942
		c1.585-0.705,2.884,0.464,4.3,0.815c1.894,0.469,3.662,1.651,6.412,0.127c-0.867,2.51-2.072,3.979-1.998,5.801
		c0.081,1.967-0.353,3.253-2.844,2.504c-1.028-0.309-1.219,0.794-1.398,1.631c-0.279,1.295-0.543,2.604-0.971,3.852
		c-0.412,1.206-1.473,2.205-2.653,1.763c-2.378-0.891-5.548,1.181-7.333-2.318c-0.737-1.444-4.754-0.824-5.629,1.155
		c-1.908,4.313-5.904,3.658-9.201,4.405c-2.385,0.541-5.048,0.007-7.317,1.223c-2.201,1.18-3.306-2.415-5.462-1.047
		c-1.562,0.99-1.912,3.133-3.844,3.805c-1.57,0.546-2.656,0.315-4.062-0.75c-2.906-2.203-3.165-2.125-5.593,0.641
		c-1.041,1.186-2.088,1.483-3.484,1.349c-1.988-0.191-3.98-0.497-5.969-0.489c-1.953,0.008-4.152-0.116-5.059,2.271
		c-0.721,1.893-2.027,2.132-3.571,1.267c-1.947-1.092-3.782-1.082-5.672,0.032c-1.214,0.715-2.544,0.689-3.888,0.575
		c-1.062-0.09-2.072,0.136-2.547,1.17c-1.24,2.703-3.009,3.332-5.588,1.728c-0.61-0.379-1.311-0.035-1.682,0.617
		c-0.508,0.893-0.991,0.941-1.969,0.472c-4.05-1.943-4.488-1.96-7.123,1.048c-1.242,1.42-2.398,1.881-4.244,1.903
		c-3.208,0.039-6.354,2.186-9.637,0.258c-1.444,1.822-2.452,1.354-4.113-0.108c-1.233-1.085-3.215,0.14-4.556,1.104
		c-1.595,1.148-3.027,1.883-5.007,0.792c-1.409-0.776-2.104-0.259-1.957,1.519c0.104,1.268-1,1.247-1.662,0.625
		c-3.135-2.944-5.601-1.896-7.988,1.032c-0.588,0.722-1.643,1.085-2.523,1.536c-0.43,0.22-0.886,0.162-1.35-0.182
		c-2.701-2.006-2.966-2.174-4.34-0.264c-1.865,2.591-4.046,2.642-6.503,1.453c-1.583-0.766-2.772-1.04-3.689,0.832
		c-0.509,1.038-1.321,1.198-2.493,0.856c-5.789-1.689-11.08,0.233-16.173,2.671c-1.403,0.672-2.432,1.6-4.052,0.685
		c-0.912-0.516-2.047-0.383-2.881,0.192c-3.406,2.348-8.431,1.19-11.086,5.147c-0.159,0.236-0.613,0.466-0.871,0.413
		c-1.607-0.333-3.191-0.784-4.798-1.123c-1.549-0.328-1.69,2.247-3.773,1.587c-3.062-0.97-5.972,1.846-9.229,0.983
		c-0.453-0.12-1.338,0.44-1.658,0.926c-2.275,3.454-5.412,3.371-8.961,2.597c-3.002-0.655-3.584,0.041-4.026,4.198
		c-2.496-3.268-5.107-3.017-7.761-0.691c-0.915,0.802-2.039,1.023-3.197,1.273c-5.194,1.123-10.377,2.3-15.554,3.501
		c-2.622,0.608-5.013,1.793-7.31,3.175c-0.997,0.601-1.99,1.653-3.016,1.691c-5.652,0.21-10.447,3.4-15.923,4.315
		c-3.868,0.647-7.991,1.615-10.831,4.674c-2.483,2.674-5.715,1.165-8.434,2.149c-2.451,0.887-3.855,3.877-7.491,2.592
		c-2.368-0.836-5.306,0.205-6.841,2.958c-0.484,0.867-0.945,2.108-1.958,2.114c-2.562,0.014-4.645,1.177-6.937,1.939
		c-2.241,0.744-4.991,1.896-7.764,0.674c-1.586-0.699-2.994,0.015-3.287,1.937c-0.428,2.808-1.625,2.644-3.763,1.412
		c-2.794-1.61-2.924-1.416-4.839,1.684c-0.258,0.417-0.51,0.836-0.762,1.255c-1.141,1.886-2.516-2.597-3.537,0.099
		c-0.818,2.16-1.919,1.02-3.111,0.5c-1.865-0.813-3.61-1.023-4.297,1.543c-0.324,1.208-1.078,0.968-1.922,0.642
		c-3.059-1.181-5.259,0.07-6.6,2.737c-0.688,1.365-1.553,1.925-2.928,2.334c-2.372,0.706-4.951,0.769-7.099,2.209
		c-0.26,0.174-0.78,0.352-0.938,0.225c-3.922-3.118-5.576,0.483-7.948,2.471c-1.212,1.016-2.823,2.675-4.599,0.2
		c-1.059-1.476-2.911-1.228-3.992-0.091c-3.132,3.291-7.576,2.996-11.379,4.203c-4.044,1.284-8.486,1.301-11.793,4.501
		c-5.562,0.235-10.556,2.06-15.024,5.358c-6.464-0.684-11.847,2.428-17.518,4.75c-2.506,1.025-5.427,1.294-8.178,1.389
		c-2.535,0.087-4.89,1.028-7.4,1.068c-0.642,0.01-1.325,0.238-1.908,0.53c-4.315,2.156-4.309,2.169-7.993,1.288
		C-84.978,120.736-84.978,112.736-84.978,104.735z"/>
	<path fill-rule="evenodd" clip-rule="evenodd" fill="#FFD571" d="M1587.109,125.736c-3.122,1.072-6.155,0.837-9.287-0.207
		c-5.136-1.712-10.273-3.231-14.867-6.357c-1.773-1.207-4.226-1.783-6.632-1.903c-3.253-0.163-6.24-1.011-9.229-2.707
		c-2.509-1.424-5.343-2.598-8.929-1.838c-3.417,0.724-7.32-0.636-10.226-3.03c-4.897-4.035-10.84-4.924-16.694-5.286
		c-3.185-0.197-6.256-0.39-9.259-1.366c-3.311-1.075-6.483-2.625-10.068-2.684c-0.481-0.008-1.116-0.112-1.411-0.425
		c-2.584-2.736-5.996-3.006-9.408-3.192c-0.942-0.052-1.43-0.31-1.936-1.125c-0.879-1.414-2.922-2.166-3.896-1.566
		c-3.206,1.978-5.287-2.218-8.147-1.073c-2.965-3.439-6.884-2.218-10.566-2.179c-0.819,0.009-1.7,0.075-2.447-0.187
		c-2.601-0.911-5.751-0.661-7.504-3.443c-0.166-0.265-0.497-0.433-0.769-0.623c-1.849-1.293-4.031,1.741-6.014-0.667
		c-1.403-1.704-3.583-2.409-5.892-1.24c-0.268,0.135-0.873,0.174-0.94,0.05c-1.424-2.626-4.357-1.422-5.996-2.326
		c-2.576-1.421-5.338-1.767-7.922-2.739c-3.532-1.33-7.464-1.469-11.042-2.906c-0.688-0.276-1.623,0.021-2.438,0.118
		c-0.652,0.077-1.689,0.567-1.88,0.331c-2.717-3.379-6.269-1.703-9.548-1.759c-0.971-0.017-2.121-0.212-2.871-0.761
		c-4.811-3.524-10.673-2.693-16.002-4.032c-1.284-0.323-2.983-0.383-3.72-1.232c-2.168-2.503-4.885-2.524-7.708-2.366
		c-2.29,0.128-4.32-0.389-5.963-2.001c-1.755-1.723-3.532-2.332-5.773-0.799c-0.614,0.42-1.611,0.457-2.408,0.389
		c-0.929-0.08-2.167-0.078-0.932-1.716c0.874-1.16-0.672-1.064-1.253-1.418c-1.856-1.136-1.993,2.457-3.664,1.401
		c-1.213-0.767-1.603-2.623-3.331-2.797c-0.982-0.099-2.144-0.374-2.947,0.01c-4.579,2.188-8.743-0.694-13.106-0.942
		c-0.902-0.051-1.869-0.747-2.619-1.37c-2.272-1.889-4.421-3.056-7.7-1.994c-1.578,0.511-3.891-0.614-5.663-1.442
		c-6.423-3.004-13.448-3.646-20.202-5.306c-5.47-1.345-11.156-1.717-16.72-2.637c-3.488-0.577-7.489-1.837-11.27,0.017
		c-0.935,0.458-2.717,0.574-3.367,0.002c-4.043-3.555-9.045-0.901-13.426-2.316c-2.822-0.912-5.731-1.145-8.236-3.186
		c-1.734-1.412-4.181-1.952-6.317-2.86c-0.299-0.126-0.682-0.06-0.972-0.198c-1.792-0.854-2.161,2.839-4.214,1.271
		c-1.312-1.002-2.38-2.41-4.059-2.848c-1.77-0.462-3.705-1.4-5.339-1.053c-4.24,0.902-7.919-2.861-12.124-1.122
		c-2.779-2.614-6.262-2.663-9.777-2.953c-0.992-0.082-2.04-0.918-3.257-0.723c-1.616,0.26-2.882-0.359-4.032-1.497
		c-0.69-0.682-1.619-1.604-2.437-1.599c-6.42,0.038-11.495-4.213-17.589-5.317c-4.675-0.847-9.571-1.427-13.628-4.43
		c-0.803-0.595-1.903-0.579-2.897-0.228c-0.798,0.282-1.772,0.705-2.399,0.169c-3.803-3.247-9.295-2.367-13.141-5.498
		c-1.359-1.107-3.04-1.282-4.755-0.869c-1.156,0.279-2.521,0.575-3.42-0.094c-4.211-3.131-9.457-3.555-14.127-5.466
		c-4.641-1.899-9.893-2.289-14.123-5.385c-4.481,0.771-6.933-2.563-9.855-4.908c-1.244-0.997-2.049-2.571-4.146-0.968
		c-1.521,1.163-2.596-0.314-3.493-1.543c1.312-1.558,2.922-1.175,4.329-1.31c4.074-0.393,4.079-0.345,2.049-5.031
		c3.536,2.418,5.468,6.862,10.217,5.228c-0.294-1.743-2.067-2.547-2.631-4.128c-0.432-1.211-0.686-2.628,0.775-2.91
		c3.397-0.656,6.887-2.742,10.216,0.594c1.67,1.673,4.072,1.9,6.46,2.211c3.679,0.479,7.331,1.395,10.898,2.451
		c7.742,2.291,14.874,6.243,22.973,7.737c7.303,1.347,14.55,3.404,21.53,5.948c5.703,2.078,11.873,2.621,17.272,5.669
		c2.148,1.213,4.867,0.947,7.298,1.354c6.415,1.075,12.448,3.184,18.43,5.566c1.138,0.453,2.295,0.523,3.427,0.194
		c3.135-0.913,5.992,0.049,8.643,1.478c2.13,1.149,4.176,1.405,6.596,1.497c4.551,0.172,9.4-0.215,13.402,2.787
		c0.938,0.703,1.839,0.46,2.83,0.438c2.817-0.061,5.717-0.315,7.954,1.991c4.718-0.365,9.3-0.047,13.404,2.67
		c3.714-1.154,6.885-0.245,10.129,1.886c1.703,1.119,4.224,0.46,6.361,0.208c1.35-0.159,2.72-0.428,3.889,0.338
		c2.341,1.534,4.739,2.27,7.553,1.507c1.169-0.316,2.288,0.315,3.241,1.028c1.11,0.83,2.114,1.558,3.553,0.454
		c0.775-0.594,1.565,0.143,2.211,0.654c0.939,0.743,2.048,1.583,3.159,1.24c4.743-1.461,8.593,1.286,12.754,2.507
		c1.296,0.38,2.572,0.649,3.908,0.708c0.997,0.043,2.285-0.288,2.943,0.209c3.756,2.839,8.104,2.438,12.369,2.612
		c0.657,0.027,1.438,0.056,1.938,0.404c2.653,1.842,5.548,2.201,8.72,2.706c4.521,0.719,9.145,1.754,13.557,3.281
		c1.284,0.444,2.596,0.453,3.897,0.656c3.209,0.5,6.459,0.535,9.417,2.604c1.931,1.351,4.741,2.14,7.102,2.026
		c4.078-0.196,7.642,1.734,11.593,1.977c2.193,0.135,4.238,1.866,6.464,2.411c5.98,1.465,12.001,2.798,18.053,3.932
		c2.298,0.431,4.417,1.035,6.607,1.89c2.489,0.971,5.084,1.802,8.099,1.747c2.982-0.054,6.076,1.845,8.983,3.186
		c2.304,1.062,4.417,1.562,7.087,1.472c4.788-0.16,9.576,1.347,13.764,3.553c5.075,2.674,10.527,2.547,15.846,3.407
		c1.799,0.291,3.683,0.249,5.328,1.065c3.309,1.643,6.939,2.17,10.452,2.96c3.606,0.811,7.142,1.743,10.401,3.41
		c6.168,3.156,12.753,4.6,19.535,5.627c3.251,0.492,6.494,1.516,9.543,2.779c6.448,2.673,13.384,3.782,19.817,6.491
		c2.726,1.148,5.903,1.538,8.67,1.808c5.878,0.575,10.587,4.501,16.545,4.639c2.886,0.067,5.723,1.668,8.368,3.126
		C1587.109,113.736,1587.109,119.736,1587.109,125.736z"/>
	<path fill-rule="evenodd" clip-rule="evenodd" fill="#FFD571" d="M776.431,106.337c0.84,3.627,0.87,6.211-0.036,9.517
		C773.995,112.621,773.93,110.038,776.431,106.337z"/>
</g>
</svg>
